SplineFontDB: 3.0
FontName: SpaceCodePro-It
FullName: Space Code Pro Italic
FamilyName: Space Code Pro
Weight: Regular
Copyright: Based on Source Code Pro, distributed under an SIL OPEN FONT LICENSE. Copyright 2010, 2012 Adobe Systems Incorporated (http://www.adobe.com/), with Reserved Font Name 'Source'. All Rights Reserved. Source is a trademark of Adobe Systems Incorporated in the United States and/or other countries.
Version: 1.0
ItalicAngle: -11
UnderlinePosition: -100
UnderlineWidth: 50
Ascent: 750
Descent: 250
InvalidEm: 0
sfntRevision: 0x000107ae
LayerCount: 2
Layer: 0 0 "Back" 1
Layer: 1 0 "Fore" 0
XUID: [1021 71 2027841715 6483260]
BaseHoriz: 2 'ideo' 'romn'
BaseScript: 'DFLT' 1  -170 0
BaseScript: 'cyrl' 1  -170 0
BaseScript: 'grek' 1  -170 0
BaseScript: 'latn' 1  -170 0
StyleMap: 0x0001
FSType: 0
OS2Version: 4
OS2_WeightWidthSlopeOnly: 0
OS2_UseTypoMetrics: 0
CreationTime: 1436292828
ModificationTime: 1468278976
PfmFamily: 17
TTFWeight: 400
TTFWidth: 5
LineGap: 0
VLineGap: 0
Panose: 2 11 4 9 3 4 3 9 2 4
OS2TypoAscent: 750
OS2TypoAOffset: 0
OS2TypoDescent: -250
OS2TypoDOffset: 0
OS2TypoLinegap: 0
OS2WinAscent: 984
OS2WinAOffset: 0
OS2WinDescent: 273
OS2WinDOffset: 0
HheadAscent: 984
HheadAOffset: 0
HheadDescent: -273
HheadDOffset: 0
OS2SubXSize: 650
OS2SubYSize: 600
OS2SubXOff: -15
OS2SubYOff: 75
OS2SupXSize: 650
OS2SupYSize: 600
OS2SupXOff: 68
OS2SupYOff: 350
OS2StrikeYSize: 50
OS2StrikeYPos: 288
OS2CapHeight: 660
OS2XHeight: 480
OS2Vendor: 'VIMU'
OS2CodePages: 60000193.00000000
OS2UnicodeRanges: 20000077.02003803.00000000.00000000
Lookup: 1 0 0 "'ss02' Style Set 2 lookup 0" { "'ss02' Style Set 2 lookup 0 subtable"  } ['cv01' ('DFLT' <'dflt' > 'cyrl' <'SRB ' 'dflt' > 'grek' <'dflt' > 'latn' <'NSM ' 'SKS ' 'dflt' > ) 'salt' ('DFLT' <'dflt' > 'cyrl' <'SRB ' 'dflt' > 'grek' <'dflt' > 'latn' <'NSM ' 'SKS ' 'dflt' > ) 'ss02' ('DFLT' <'dflt' > 'cyrl' <'SRB ' 'dflt' > 'grek' <'dflt' > 'latn' <'NSM ' 'SKS ' 'dflt' > ) ]

StartChar: .notdef
Encoding: 1114112 -1 0
Width: 600
Flags: MW
HStem: 0 38<140 457 140 521> 621 39<155 444 155 155>
VStem: 80 43<81 81 81 603> 475 46<81 603 603 603>
LayerCount: 2
Fore
SplineSet
80 0 m 1
 80 660 l 1
 521 660 l 1
 521 0 l 1
 80 0 l 1
140 38 m 1
 457 38 l 1
 362 205 l 1
 302 310 l 1
 298 310 l 1
 236 205 l 1
 140 38 l 1
123 81 m 1
 272 340 l 1
 123 603 l 1
 123 81 l 1
298 370 m 1
 302 370 l 1
 355 463 l 1
 444 621 l 1
 155 621 l 1
 243 463 l 1
 298 370 l 1
328 340 m 1
 475 81 l 1
 475 603 l 1
 328 340 l 1
EndSplineSet
EndChar

StartChar: A
Encoding: 65 65 2
Width: 600
GlyphClass: 2
Flags: MW
HStem: 0 21G<-12 -12 -12 34 448 448 448 492> 229 35<179 416 179 420 160 416> 617 42<369 374 369 369>
VStem: -12 504<0 0>
AnchorPoint: "Anchor-6" 455 0 basechar 0
AnchorPoint: "Anchor-3" 250 -20 basechar 0
AnchorPoint: "Anchor-2" 472 0 basechar 0
AnchorPoint: "Anchor-0" 374 679 basechar 0
LayerCount: 2
Fore
SplineSet
250 394 m 2
 179 264 l 1
 416 264 l 1
 401 391 l 2
 391 465 383 544 374 617 c 1
 369 617 l 1
 327 540 291 471 250 394 c 2
-12 0 m 1
 357 659 l 1
 403 659 l 1
 492 0 l 1
 448 0 l 1
 420 229 l 1
 160 229 l 1
 34 0 l 1
 -12 0 l 1
EndSplineSet
EndChar

StartChar: B
Encoding: 66 66 3
Width: 600
GlyphClass: 2
Flags: MW
HStem: 0 37<100 230 230 245> 331 37<166 277 277 293 160 277> 622 37<218 325 218 218>
VStem: 469 42<143 241> 492 44<469.5 547>
AnchorPoint: "Anchor-3" 250 -20 basechar 0
AnchorPoint: "Anchor-0" 374 679 basechar 0
LayerCount: 2
Fore
SplineSet
50 0 m 1xf0
 182 659 l 1
 342 659 l 2
 473 659 536 606 536 516 c 0xe8
 536 419 452 362 387 351 c 1
 387 347 l 1
 452 332 511 289 511 207 c 0
 511 65 402 0 245 0 c 2
 50 0 l 1xf0
166 368 m 1
 277 368 l 2
 421 368 492 427 492 512 c 0
 492 582 448 622 325 622 c 2
 218 622 l 1
 166 368 l 1
100 37 m 1
 230 37 l 2
 373 37 469 82 469 204 c 0xf0
 469 278 405 331 293 331 c 2
 160 331 l 1
 100 37 l 1
EndSplineSet
EndChar

StartChar: C
Encoding: 67 67 4
Width: 600
GlyphClass: 2
Flags: MW
HStem: -12 37<246 340.5 246 343> 634 37<322 442.5>
VStem: 82 44<189 337.5 189 346>
AnchorPoint: "Anchor-3" 290 -20 basechar 0
AnchorPoint: "Anchor-2" 291 0 basechar 0
AnchorPoint: "Anchor-0" 402 679 basechar 0
LayerCount: 2
Fore
SplineSet
306 -12 m 0
 157 -12 82 99 82 248 c 0
 82 444 208 671 416 671 c 0
 490 671 540 629 571 578 c 1
 538 555 l 1
 512 602 472 634 413 634 c 0
 231 634 126 421 126 254 c 0
 126 124 181 25 311 25 c 0
 370 25 419 49 467 89 c 1
 489 61 l 1
 435 16 380 -12 306 -12 c 0
EndSplineSet
EndChar

StartChar: D
Encoding: 68 68 5
Width: 600
GlyphClass: 2
Flags: MW
HStem: 0 36<77 190> 623 36<195 279 195 195>
VStem: 508 44<296 468>
AnchorPoint: "Anchor-3" 230 -20 basechar 0
AnchorPoint: "Anchor-2" 221 0 basechar 0
AnchorPoint: "Anchor-0" 361 679 basechar 0
LayerCount: 2
Fore
SplineSet
28 0 m 1
 160 659 l 1
 281 659 l 2
 462 659 552 560 552 403 c 0
 552 175 427 0 190 0 c 2
 28 0 l 1
77 36 m 1
 191 36 l 2
 395 36 508 192 508 400 c 0
 508 536 433 623 279 623 c 2
 195 623 l 1
 77 36 l 1
EndSplineSet
EndChar

StartChar: E
Encoding: 69 69 6
Width: 600
GlyphClass: 2
Flags: MW
HStem: 0 37<122 472> 331 37<189 472 183 480> 622 37<240 588 240 240>
VStem: 73 523
AnchorPoint: "Anchor-6" 406 0 basechar 0
AnchorPoint: "Anchor-3" 287 -20 basechar 0
AnchorPoint: "Anchor-2" 297 0 basechar 0
AnchorPoint: "Anchor-0" 415 679 basechar 0
LayerCount: 2
Fore
SplineSet
73 0 m 1
 205 659 l 1
 596 659 l 1
 588 622 l 1
 240 622 l 1
 189 368 l 1
 480 368 l 1
 472 331 l 1
 183 331 l 1
 122 37 l 1
 480 37 l 1
 472 0 l 1
 73 0 l 1
EndSplineSet
EndChar

StartChar: F
Encoding: 70 70 7
Width: 600
GlyphClass: 2
Flags: MW
HStem: 0 21G<93 93 93 136> 318 37<206 484 200 492> 622 37<259 602 259 259>
VStem: 93 517
AnchorPoint: "Anchor-3" 121 -20 basechar 0
AnchorPoint: "Anchor-2" 116 0 basechar 0
AnchorPoint: "Anchor-0" 427 679 basechar 0
LayerCount: 2
Fore
SplineSet
93 0 m 1
 225 659 l 1
 610 659 l 1
 602 622 l 1
 259 622 l 1
 206 355 l 1
 492 355 l 1
 484 318 l 1
 200 318 l 1
 136 0 l 1
 93 0 l 1
EndSplineSet
EndChar

StartChar: G
Encoding: 71 71 8
Width: 600
GlyphClass: 2
Flags: MW
HStem: -12 37<237.5 337 237.5 338.5> 286 36<341 485 333 533> 634 37<316 440.5>
VStem: 71 43<191 337.5 191 347.5>
AnchorPoint: "Anchor-3" 299 -20 basechar 0
AnchorPoint: "Anchor-0" 399 679 basechar 0
LayerCount: 2
Fore
SplineSet
303 -12 m 0
 147 -12 71 95 71 248 c 0
 71 447 194 671 413 671 c 0
 488 671 538 628 569 578 c 1
 536 555 l 1
 511 600 470 634 411 634 c 0
 221 634 114 421 114 254 c 0
 114 128 168 25 307 25 c 0
 367 25 412 47 443 75 c 1
 485 286 l 1
 333 286 l 1
 341 322 l 1
 533 322 l 1
 479 54 l 1
 432 14 374 -12 303 -12 c 0
EndSplineSet
EndChar

StartChar: H
Encoding: 72 72 9
Width: 600
GlyphClass: 2
Flags: MW
HStem: 0 21G<27 27 27 70 406 406 406 449> 331 37<143 473 136 479> 639 20G<159 202 202 202 538 581 581 581>
VStem: 27 554
AnchorPoint: "Anchor-3" 234 -20 basechar 0
AnchorPoint: "Anchor-2" 50 0 basechar 0
AnchorPoint: "Anchor-0" 374 679 basechar 0
LayerCount: 2
Fore
SplineSet
27 0 m 1
 159 659 l 1
 202 659 l 1
 143 368 l 1
 479 368 l 1
 538 659 l 1
 581 659 l 1
 449 0 l 1
 406 0 l 1
 473 331 l 1
 136 331 l 1
 70 0 l 1
 27 0 l 1
EndSplineSet
EndChar

StartChar: I
Encoding: 73 73 10
Width: 600
GlyphClass: 2
Flags: MW
HStem: 0 37<46 222 54 222 265 428> 622 37<178 339 170 562 382 382 382 554>
VStem: 46 516
AnchorPoint: "Anchor-6" 238 0 basechar 0
AnchorPoint: "Anchor-3" 234 -20 basechar 0
AnchorPoint: "Anchor-2" 238 0 basechar 0
AnchorPoint: "Anchor-0" 374 679 basechar 0
LayerCount: 2
Fore
SplineSet
46 0 m 1
 54 37 l 1
 222 37 l 1
 339 622 l 1
 170 622 l 1
 178 659 l 1
 562 659 l 1
 554 622 l 1
 382 622 l 1
 265 37 l 1
 436 37 l 1
 428 0 l 1
 46 0 l 1
EndSplineSet
EndChar

StartChar: J
Encoding: 74 74 11
Width: 600
GlyphClass: 2
Flags: MW
HStem: -12 37<172 257 172 267.5> 622 37<194 472 186 523>
VStem: 33 490
AnchorPoint: "Anchor-3" 222 -20 basechar 0
AnchorPoint: "Anchor-0" 363 679 basechar 0
LayerCount: 2
Fore
SplineSet
201 -12 m 0
 121 -12 62 33 33 84 c 1
 63 108 l 1
 94 56 139 25 205 25 c 0
 309 25 366 90 391 217 c 2
 472 622 l 1
 186 622 l 1
 194 659 l 1
 523 659 l 1
 433 211 l 2
 403 64 334 -12 201 -12 c 0
EndSplineSet
EndChar

StartChar: K
Encoding: 75 75 12
Width: 600
GlyphClass: 2
Flags: MW
HStem: 0 21G<58 101 58 58 464 511 464 464> 639 20G<190 233 233 233 553 605 605 605>
VStem: 58 547
AnchorPoint: "Anchor-3" 296 -20 basechar 0
AnchorPoint: "Anchor-0" 389 679 basechar 0
LayerCount: 2
Fore
SplineSet
605 659 m 1
 323 395 l 1
 511 0 l 1
 464 0 l 1
 292 366 l 1
 147 229 l 1
 101 0 l 1
 58 0 l 1
 190 659 l 1
 233 659 l 1
 159 292 l 1
 163 292 l 1
 553 659 l 1
 605 659 l 1
EndSplineSet
EndChar

StartChar: L
Encoding: 76 76 13
Width: 600
GlyphClass: 2
Flags: MW
HStem: 0 37<170 506> 639 20G<250 293 293 293>
VStem: 119 395<0 37>
AnchorPoint: "Anchor-4" 207 332 basechar 0
AnchorPoint: "Anchor-3" 316 -20 basechar 0
AnchorPoint: "Anchor-2" 326 0 basechar 0
AnchorPoint: "Anchor-0" 279 679 basechar 0
LayerCount: 2
Fore
SplineSet
119 0 m 1
 250 659 l 1
 293 659 l 1
 170 37 l 1
 514 37 l 1
 506 0 l 1
 119 0 l 1
EndSplineSet
EndChar

StartChar: M
Encoding: 77 77 14
Width: 600
GlyphClass: 2
Flags: MW
HStem: 0 21G<26 26 26 67 408 408 408 450> 180 51<280 284 280 293 254 284> 610 49<184 188 184 184 533 537 533 533>
VStem: 26 555
AnchorPoint: "Anchor-3" 234 -20 basechar 0
AnchorPoint: "Anchor-2" 429 0 basechar 0
AnchorPoint: "Anchor-0" 374 679 basechar 0
LayerCount: 2
Fore
SplineSet
26 0 m 1
 158 659 l 1
 215 659 l 1
 269 326 l 1
 280 231 l 1
 284 231 l 1
 333 326 l 1
 524 659 l 1
 581 659 l 1
 450 0 l 1
 408 0 l 1
 503 470 l 2
 511 513 525 566 537 610 c 1
 533 610 l 1
 518 579 496 536 473 496 c 2
 293 180 l 1
 254 180 l 1
 205 495 l 2
 200 525 192 578 188 610 c 1
 184 610 l 1
 177 565 170 512 162 473 c 2
 67 0 l 1
 26 0 l 1
EndSplineSet
EndChar

StartChar: N
Encoding: 78 78 15
Width: 600
GlyphClass: 2
Flags: MW
HStem: 0 57<402 423 419 423 419 446> 602 57<188 192 188 188>
VStem: 33 545
AnchorPoint: "Anchor-3" 250 -20 basechar 0
AnchorPoint: "Anchor-2" 426 0 basechar 0
AnchorPoint: "Anchor-0" 378 679 basechar 0
LayerCount: 2
Fore
SplineSet
33 0 m 1
 165 659 l 1
 210 659 l 1
 376 189 l 1
 419 57 l 1
 423 57 l 1
 433 120 443 185 455 243 c 2
 536 659 l 1
 578 659 l 1
 446 0 l 1
 402 0 l 1
 236 470 l 1
 192 602 l 1
 188 602 l 1
 178 539 168 477 156 414 c 2
 75 0 l 1
 33 0 l 1
EndSplineSet
EndChar

StartChar: O
Encoding: 79 79 16
Width: 600
GlyphClass: 2
Flags: MW
HStem: -12 37<202.5 342.5 202.5 353> 634 37<267.5 407.5>
VStem: 48 43<180 331.5 180 343> 519 43<327.5 479>
AnchorPoint: "Anchor-6" 238 0 basechar 0
AnchorPoint: "Anchor-5" 366 649 basechar 0
AnchorPoint: "Anchor-3" 234 -20 basechar 0
AnchorPoint: "Anchor-2" 238 0 basechar 0
AnchorPoint: "Anchor-0" 374 679 basechar 0
LayerCount: 2
Fore
SplineSet
255 -12 m 0
 123 -12 48 93 48 243 c 0
 48 443 159 671 354 671 c 0
 487 671 562 566 562 416 c 0
 562 216 451 -12 255 -12 c 0
259 25 m 0
 426 25 519 241 519 414 c 0
 519 544 464 634 351 634 c 0
 184 634 91 418 91 245 c 0
 91 115 146 25 259 25 c 0
EndSplineSet
EndChar

StartChar: P
Encoding: 80 80 17
Width: 600
GlyphClass: 2
Flags: MW
HStem: 0 21G<65 65 65 108> 286 36<172 282 282 286 165 282> 623 36<232 350 232 232>
VStem: 522 43<442.5 545>
AnchorPoint: "Anchor-3" 92 -20 basechar 0
AnchorPoint: "Anchor-0" 381 679 basechar 0
LayerCount: 2
Fore
SplineSet
65 0 m 1
 197 659 l 1
 369 659 l 2
 490 659 565 613 565 506 c 0
 565 358 455 286 286 286 c 2
 165 286 l 1
 108 0 l 1
 65 0 l 1
172 322 m 1
 282 322 l 2
 440 322 522 383 522 502 c 0
 522 588 463 623 350 623 c 2
 232 623 l 1
 172 322 l 1
EndSplineSet
EndChar

StartChar: Q
Encoding: 81 81 18
Width: 600
GlyphClass: 2
Flags: MW
HStem: -154 38<363 410.5> -12 36 634 37<267.5 407.5>
VStem: 48 43<179.5 331.5 179.5 343> 519 43<327 479>
AnchorPoint: "Anchor-0" 374 679 basechar 0
LayerCount: 2
Fore
SplineSet
259 24 m 0
 426 24 519 240 519 414 c 0
 519 544 464 634 351 634 c 0
 184 634 91 418 91 245 c 0
 91 114 146 24 259 24 c 0
393 -154 m 0
 310 -154 241 -110 221 -10 c 1
 110 7 48 106 48 243 c 0
 48 443 159 671 354 671 c 0
 487 671 562 566 562 416 c 0
 562 219 454 -5 264 -12 c 1
 278 -79 329 -116 397 -116 c 0
 430 -116 456 -112 477 -102 c 1
 487 -137 l 1
 461 -147 428 -154 393 -154 c 0
EndSplineSet
EndChar

StartChar: R
Encoding: 82 82 19
Width: 600
GlyphClass: 2
Flags: MW
HStem: 0 21G<46 46 46 89 404 404 404 452> 301 36<157 272 272 282 149 272> 623 36<213 324 213 213>
VStem: 494 43<456.5 551>
AnchorPoint: "Anchor-3" 260 -20 basechar 0
AnchorPoint: "Anchor-2" 69 0 basechar 0
AnchorPoint: "Anchor-0" 370 679 basechar 0
LayerCount: 2
Fore
SplineSet
46 0 m 1
 178 659 l 1
 342 659 l 2
 462 659 537 617 537 513 c 0
 537 394 448 318 326 303 c 1
 452 0 l 1
 404 0 l 1
 282 301 l 1
 149 301 l 1
 89 0 l 1
 46 0 l 1
157 337 m 1
 272 337 l 2
 413 337 494 403 494 510 c 0
 494 592 437 623 324 623 c 2
 213 623 l 1
 157 337 l 1
EndSplineSet
EndChar

StartChar: S
Encoding: 83 83 20
Width: 600
GlyphClass: 2
Flags: MW
HStem: -12 37<218.5 308 218.5 318> 634 37<296 373>
VStem: 155 44<477 538.5 477 547.5> 429 43<130.5 205>
AnchorPoint: "Anchor-3" 260 -20 basechar 0
AnchorPoint: "Anchor-2" 260 0 basechar 0
AnchorPoint: "Anchor-0" 359 679 basechar 0
LayerCount: 2
Fore
SplineSet
257 -12 m 0
 161 -12 89 30 45 100 c 1
 77 124 l 1
 118 61 177 25 260 25 c 0
 356 25 429 85 429 176 c 0
 429 234 396 271 344 301 c 2
 260 351 l 2
 205 383 155 430 155 502 c 0
 155 593 232 671 344 671 c 0
 425 671 489 630 525 581 c 1
 495 556 l 1
 461 599 408 634 338 634 c 0
 254 634 199 570 199 507 c 0
 199 447 239 412 283 387 c 2
 367 337 l 2
 430 301 472 255 472 181 c 0
 472 63 379 -12 257 -12 c 0
EndSplineSet
EndChar

StartChar: T
Encoding: 84 84 21
Width: 600
GlyphClass: 2
Flags: MW
HStem: 0 21G<216 216 216 259> 620 39<118 339 110 620 382 382 382 612>
VStem: 110 510<620 659>
AnchorPoint: "Anchor-3" 234 -20 basechar 0
AnchorPoint: "Anchor-2" 238 0 basechar 0
AnchorPoint: "Anchor-0" 374 679 basechar 0
LayerCount: 2
Fore
SplineSet
216 0 m 1
 339 620 l 1
 110 620 l 1
 118 659 l 1
 620 659 l 1
 612 620 l 1
 382 620 l 1
 259 0 l 1
 216 0 l 1
EndSplineSet
EndChar

StartChar: U
Encoding: 85 85 22
Width: 600
GlyphClass: 2
Flags: MW
HStem: -12 37<214.5 305.5 214.5 311.5> 639 20G<159 202 202 202 538 581 581 581>
VStem: 71 43<138 195.5>
AnchorPoint: "Anchor-6" 238 0 basechar 0
AnchorPoint: "Anchor-5" 454 669 basechar 0
AnchorPoint: "Anchor-3" 234 -20 basechar 0
AnchorPoint: "Anchor-2" 238 0 basechar 0
AnchorPoint: "Anchor-0" 374 679 basechar 0
LayerCount: 2
Fore
SplineSet
259 -12 m 0
 141 -12 71 60 71 182 c 0
 71 209 74 234 80 267 c 2
 159 659 l 1
 202 659 l 1
 124 272 l 2
 117 240 114 214 114 190 c 0
 114 86 165 25 264 25 c 0
 347 25 424 84 455 242 c 2
 538 659 l 1
 581 659 l 1
 496 234 l 2
 459 51 364 -12 259 -12 c 0
EndSplineSet
EndChar

StartChar: V
Encoding: 86 86 23
Width: 600
GlyphClass: 2
Flags: MW
HStem: 0 48<213 250 246 250 246 263> 639 20G<143 185 185 185 576 621 621 621>
VStem: 143 478<659 659>
AnchorPoint: "Anchor-3" 234 -20 basechar 0
AnchorPoint: "Anchor-0" 373 679 basechar 0
LayerCount: 2
Fore
SplineSet
213 0 m 1
 143 659 l 1
 185 659 l 1
 224 270 l 2
 231 197 238 122 246 48 c 1
 250 48 l 1
 286 119 330 201 366 269 c 2
 576 659 l 1
 621 659 l 1
 263 0 l 1
 213 0 l 1
EndSplineSet
EndChar

StartChar: W
Encoding: 87 87 24
Width: 600
GlyphClass: 2
Flags: MW
HStem: 0 33<108 112 108 131> 0 38<368 405 399 405 399 427> 422 47<319 324 319 319> 639 20G<103 145 145 145 592 633 633 633>
VStem: 71 562
AnchorPoint: "Anchor-3" 234 -20 basechar 0
AnchorPoint: "Anchor-0" 373 679 basechar 0
LayerCount: 2
Fore
SplineSet
71 0 m 1x78
 103 659 l 1
 145 659 l 1
 117 157 l 2
 114 89 109 38 108 33 c 1
 112 33 l 1xb8
 114 38 163 154 165 159 c 2
 308 469 l 1
 352 469 l 1
 381 221 l 2
 387 170 397 78 399 38 c 1
 405 38 l 1
 406 43 437 158 438 164 c 2
 592 659 l 1
 633 659 l 1
 427 0 l 1
 368 0 l 1
 335 302 l 2
 330 341 326 394 324 422 c 1
 319 422 l 1
 309 393 288 341 270 302 c 2
 131 0 l 1
 71 0 l 1x78
EndSplineSet
EndChar

StartChar: X
Encoding: 88 88 25
Width: 600
GlyphClass: 2
Flags: MW
HStem: 0 21G<12 12 12 61 424 424 424 470> 639 20G<146 192 192 192 536 586 586 586>
VStem: 12 574
AnchorPoint: "Anchor-3" 236 -20 basechar 0
AnchorPoint: "Anchor-2" 450 0 basechar 0
AnchorPoint: "Anchor-0" 373 679 basechar 0
LayerCount: 2
Fore
SplineSet
12 0 m 1
 278 344 l 1
 146 659 l 1
 192 659 l 1
 274 462 l 2
 286 433 300 394 308 369 c 1
 312 369 l 1
 333 399 366 444 380 461 c 2
 536 659 l 1
 586 659 l 1
 330 338 l 1
 470 0 l 1
 424 0 l 1
 339 205 l 2
 329 228 310 280 299 307 c 1
 295 307 l 1
 269 270 243 235 220 205 c 2
 61 0 l 1
 12 0 l 1
EndSplineSet
EndChar

StartChar: Y
Encoding: 89 89 26
Width: 600
GlyphClass: 2
Flags: MW
HStem: 0 21G<217 217 217 260> 639 20G<121 165 165 165 569 614 614 614>
VStem: 121 493<659 659>
AnchorPoint: "Anchor-6" 240 0 basechar 0
AnchorPoint: "Anchor-3" 234 -20 basechar 0
AnchorPoint: "Anchor-0" 360 679 basechar 0
LayerCount: 2
Fore
SplineSet
217 0 m 1
 266 241 l 1
 121 659 l 1
 165 659 l 1
 240 440 l 2
 259 384 280 318 291 275 c 1
 295 275 l 1
 320 314 368 384 408 440 c 2
 569 659 l 1
 614 659 l 1
 307 236 l 1
 260 0 l 1
 217 0 l 1
EndSplineSet
EndChar

StartChar: Z
Encoding: 90 90 27
Width: 600
GlyphClass: 2
Flags: MW
HStem: 0 37<88 481> 623 36<143 513 135 579>
VStem: 22 557
AnchorPoint: "Anchor-3" 269 -20 basechar 0
AnchorPoint: "Anchor-2" 288 0 basechar 0
AnchorPoint: "Anchor-0" 360 679 basechar 0
LayerCount: 2
Fore
SplineSet
481 0 m 1
 22 0 l 1
 28 25 l 1
 513 623 l 1
 135 623 l 1
 143 659 l 1
 579 659 l 1
 573 633 l 1
 88 37 l 1
 489 37 l 1
 481 0 l 1
EndSplineSet
EndChar

StartChar: a
Encoding: 97 97 28
Width: 600
GlyphClass: 2
Flags: MW
HStem: -12 36<198 264.5> 0 21G<411 446 411 411> 456 36<266.5 359> 460 20G<508 542 542 542>
VStem: 62 42<126.5 249 126.5 256>
AnchorPoint: "Anchor-6" 407 0 basechar 0
AnchorPoint: "Anchor-3" 248 -20 basechar 0
AnchorPoint: "Anchor-2" 427 0 basechar 0
AnchorPoint: "Anchor-0" 357 502 basechar 0
LayerCount: 2
Fore
SplineSet
231 -12 m 0xa8
 130 -12 62 51 62 171 c 0
 62 341 178 492 330 492 c 0
 401 492 456 461 485 414 c 1
 489 414 l 1xa8
 508 480 l 1
 542 480 l 1
 446 0 l 1
 411 0 l 1x58
 422 77 l 1
 418 77 l 1
 365 25 298 -12 231 -12 c 0xa8
239 24 m 0
 300 24 369 62 430 129 c 1
 480 369 l 1
 439 431 387 456 331 456 c 0
 202 456 104 319 104 179 c 0
 104 74 157 24 239 24 c 0
EndSplineSet
Substitution2: "'sups' Superscript lookup 18 subtable" a.sups
Substitution2: "'ss02' Style Set 2 lookup 0 subtable" a.a
EndChar

StartChar: b
Encoding: 98 98 29
Width: 600
GlyphClass: 2
Flags: MW
HStem: -12 36<231.5 325.5 231.5 339> 0 21G<48 82 48 48> 456 36<323.5 391.5> 699 20G<191 232 232 232>
VStem: 486 42<222 347>
AnchorPoint: "Anchor-3" 258 -20 basechar 0
AnchorPoint: "Anchor-0" 211 739 basechar 0
LayerCount: 2
Fore
SplineSet
260 -12 m 0xb8
 191 -12 136 21 103 66 c 1
 99 66 l 1xb8
 82 0 l 1
 48 0 l 1x78
 191 719 l 1
 232 719 l 1
 190 510 l 1
 165 403 l 1
 169 403 l 1
 220 448 289 492 358 492 c 0
 461 492 528 424 528 300 c 0
 528 127 418 -12 260 -12 c 0xb8
259 24 m 0
 392 24 486 151 486 293 c 0
 486 401 433 456 350 456 c 0
 293 456 219 414 160 355 c 1
 110 107 l 1
 153 45 204 24 259 24 c 0
EndSplineSet
Substitution2: "'sups' Superscript lookup 18 subtable" b.sups
EndChar

StartChar: c
Encoding: 99 99 30
Width: 600
GlyphClass: 2
Flags: MW
HStem: -12 36<238.5 322 238.5 322> 456 36<291.5 386>
VStem: 71 41<146 276 146 287.5>
AnchorPoint: "Anchor-3" 267 -20 basechar 0
AnchorPoint: "Anchor-2" 271 0 basechar 0
AnchorPoint: "Anchor-0" 357 502 basechar 0
LayerCount: 2
Fore
SplineSet
287 -12 m 0
 161 -12 71 60 71 201 c 0
 71 374 211 492 359 492 c 0
 441 492 502 453 536 407 c 1
 507 382 l 1
 470 431 423 456 349 456 c 0
 234 456 112 345 112 207 c 0
 112 85 185 24 292 24 c 0
 352 24 415 54 463 98 c 1
 485 69 l 1
 433 21 357 -12 287 -12 c 0
EndSplineSet
Substitution2: "'sups' Superscript lookup 18 subtable" c.sups
EndChar

StartChar: d
Encoding: 100 100 31
Width: 600
GlyphClass: 2
Flags: MW
HStem: -12 36<198 264.5> 0 21G<411 446 411 411> 456 36<266.5 359> 699 20G<550 591 591 591>
VStem: 62 42<126.5 249 126.5 256>
AnchorPoint: "Anchor-3" 248 -20 basechar 0
AnchorPoint: "Anchor-2" 246 0 basechar 0
AnchorPoint: "Anchor-0" 567 739 basechar 0
LayerCount: 2
Fore
SplineSet
231 -12 m 0xb8
 130 -12 62 51 62 171 c 0
 62 341 178 492 330 492 c 0
 401 492 455 461 485 415 c 1
 489 415 l 1
 508 510 l 1
 550 719 l 1
 591 719 l 1
 446 0 l 1
 411 0 l 1x78
 422 77 l 1
 418 77 l 1
 365 25 298 -12 231 -12 c 0xb8
239 24 m 0
 300 24 369 62 430 129 c 1
 480 369 l 1
 439 431 387 456 331 456 c 0
 202 456 104 319 104 179 c 0
 104 74 157 24 239 24 c 0
EndSplineSet
Substitution2: "'sups' Superscript lookup 18 subtable" d.sups
EndChar

StartChar: e
Encoding: 101 101 32
Width: 600
GlyphClass: 2
Flags: MW
HStem: -12 36<225.5 311 225.5 313> 237 35<124 474 124 508 117 474> 457 35<293 382>
VStem: 72 42<143.5 202 143.5 278.5> 478 40<306.5 356.5>
AnchorPoint: "Anchor-6" 368 0 basechar 0
AnchorPoint: "Anchor-3" 265 -20 basechar 0
AnchorPoint: "Anchor-2" 269 0 basechar 0
AnchorPoint: "Anchor-0" 349 502 basechar 0
LayerCount: 2
Fore
SplineSet
271 -12 m 0
 147 -12 72 64 72 192 c 0
 72 365 200 492 343 492 c 0
 457 492 518 414 518 310 c 0
 518 279 512 248 508 237 c 1
 117 237 l 1
 115 223 114 209 114 195 c 0
 114 92 174 24 277 24 c 0
 345 24 408 53 453 93 c 1
 473 63 l 1
 429 25 355 -12 271 -12 c 0
339 457 m 0
 247 457 155 381 124 272 c 1
 474 272 l 1
 477 285 478 300 478 313 c 0
 478 400 425 457 339 457 c 0
EndSplineSet
Substitution2: "'sups' Superscript lookup 18 subtable" e.sups
EndChar

StartChar: f
Encoding: 102 102 33
Width: 600
GlyphClass: 2
Flags: MW
HStem: 0 21G<184 184 184 226> 444 36<130 280 280 315 322 537> 695 36<454 514>
VStem: 130 494<444 683>
AnchorPoint: "Anchor-3" 210 -20 basechar 0
AnchorPoint: "Anchor-2" 202 0 basechar 0
AnchorPoint: "Anchor-0" 475 739 basechar 0
LayerCount: 2
Fore
SplineSet
184 0 m 1
 273 444 l 1
 130 444 l 1
 136 476 l 1
 280 480 l 1
 295 553 l 2
 321 682 395 731 494 731 c 0
 544 731 590 712 624 683 c 1
 601 655 l 1
 570 680 535 695 493 695 c 0
 415 695 357 654 336 549 c 2
 322 480 l 1
 545 480 l 1
 537 444 l 1
 315 444 l 1
 226 0 l 1
 184 0 l 1
EndSplineSet
Substitution2: "'sups' Superscript lookup 18 subtable" f.sups
EndChar

StartChar: g
Encoding: 103 103 34
Width: 600
GlyphClass: 2
Flags: MW
HStem: -229 36<173 252 173 257.5> -3 36<198.5 266> 456 36<267 359.5> 460 20G<508 542 542 542>
VStem: 63 42<133.5 254 133.5 261>
AnchorPoint: "Anchor-3" 220 -227 basechar 0
AnchorPoint: "Anchor-0" 357 502 basechar 0
LayerCount: 2
Fore
SplineSet
197 -229 m 0xe8
 123 -229 64 -205 23 -172 c 1
 46 -141 l 1
 86 -175 145 -193 201 -193 c 0
 303 -193 378 -140 399 -36 c 2
 422 83 l 1
 418 83 l 1
 366 33 299 -3 233 -3 c 0
 131 -3 63 60 63 177 c 0
 63 345 178 492 330 492 c 0
 401 492 456 461 485 414 c 1
 489 414 l 1xe8
 508 480 l 1
 542 480 l 1xd8
 437 -45 l 2
 412 -170 318 -229 197 -229 c 0xe8
240 33 m 0
 301 33 370 71 430 135 c 1
 480 369 l 1
 439 431 388 456 331 456 c 0
 203 456 105 323 105 185 c 0
 105 82 157 33 240 33 c 0
EndSplineSet
Substitution2: "'sups' Superscript lookup 18 subtable" g.sups
Substitution2: "'ss03' Style Set 3 lookup 1 subtable" g.a
EndChar

StartChar: h
Encoding: 104 104 35
Width: 600
GlyphClass: 2
Flags: MW
HStem: 0 21G<48 48 48 89 412 412 412 453> 455 37<350 417> 699 20G<191 232 232 232>
VStem: 480 41<359.5 395>
AnchorPoint: "Anchor-3" 257 -20 basechar 0
AnchorPoint: "Anchor-2" 68 0 basechar 0
AnchorPoint: "Anchor-0" 212 739 basechar 0
LayerCount: 2
Fore
SplineSet
48 0 m 1
 191 719 l 1
 232 719 l 1
 173 424 l 1
 161 374 l 1
 165 374 l 1
 231 436 302 492 398 492 c 0
 486 492 521 443 521 375 c 0
 521 344 517 320 511 292 c 2
 453 0 l 1
 412 0 l 1
 470 288 l 2
 476 317 480 340 480 367 c 0
 480 423 447 455 387 455 c 0
 308 455 232 404 154 321 c 1
 89 0 l 1
 48 0 l 1
EndSplineSet
Substitution2: "'sups' Superscript lookup 18 subtable" h.sups
EndChar

StartChar: i
Encoding: 105 105 36
Width: 600
GlyphClass: 2
Flags: MW
HStem: -12 36<335 374.5> 444 36<127 305 119 353> 597 93<340 355.5>
VStem: 235 42<76.5 105.5> 302 91<636 650.5>
AnchorPoint: "Anchor-6" 376 0 basechar 0
AnchorPoint: "Anchor-3" 345 -20 basechar 0
AnchorPoint: "Anchor-2" 358 0 basechar 0
AnchorPoint: "Anchor-0" 360 725 basechar 0
LayerCount: 2
Fore
SplineSet
350 -12 m 0
 283 -12 235 23 235 98 c 0
 235 113 237 129 241 148 c 2
 305 444 l 1
 119 444 l 1
 127 480 l 1
 353 480 l 1
 281 140 l 2
 278 127 277 115 277 105 c 0
 277 48 311 24 359 24 c 0
 394 24 425 36 462 53 c 1
 474 21 l 1
 434 2 399 -12 350 -12 c 0
342 597 m 0xf8
 318 597 302 612 302 636 c 0
 302 665 327 690 353 690 c 0
 378 690 393 674 393 651 c 0
 393 621 369 597 342 597 c 0xf8
EndSplineSet
Substitution2: "Single Substitution lookup 25 subtable" dotlessi
Substitution2: "'sups' Superscript lookup 18 subtable" i.sups
EndChar

StartChar: j
Encoding: 106 106 37
Width: 600
GlyphClass: 2
Flags: MW
HStem: -229 36<92.5 165.5 92.5 176> 444 36<149 376 141 425> 597 93<411 426.5>
VStem: 373 91<636 650.5>
AnchorPoint: "Anchor-3" 134 -227 basechar 0
AnchorPoint: "Anchor-0" 431 725 basechar 0
LayerCount: 2
Fore
SplineSet
112 -229 m 0
 59 -229 12 -207 -15 -187 c 1
 6 -156 l 1
 34 -178 69 -193 116 -193 c 0
 215 -193 260 -131 278 -43 c 2
 376 444 l 1
 141 444 l 1
 149 480 l 1
 425 480 l 1
 321 -39 l 2
 296 -162 240 -229 112 -229 c 0
413 597 m 0
 389 597 373 612 373 636 c 0
 373 665 398 690 424 690 c 0
 449 690 464 674 464 651 c 0
 464 621 440 597 413 597 c 0
EndSplineSet
Substitution2: "Single Substitution lookup 25 subtable" uni0237
Substitution2: "'sups' Superscript lookup 18 subtable" j.sups
EndChar

StartChar: k
Encoding: 107 107 38
Width: 600
GlyphClass: 2
Flags: MW
HStem: 0 21G<66 66 66 107 454 454 454 499> 460 20G<517 571 571 571> 699 20G<209 251 251 251>
VStem: 66 505<0 480>
AnchorPoint: "Anchor-3" 283 -20 basechar 0
AnchorPoint: "Anchor-0" 228 738 basechar 0
LayerCount: 2
Fore
SplineSet
66 0 m 1
 209 719 l 1
 251 719 l 1
 146 190 l 1
 150 190 l 1
 517 480 l 1
 571 480 l 1
 339 292 l 1
 499 0 l 1
 454 0 l 1
 308 267 l 1
 134 134 l 1
 107 0 l 1
 66 0 l 1
EndSplineSet
Substitution2: "'sups' Superscript lookup 18 subtable" k.sups
EndChar

StartChar: l
Encoding: 108 108 39
Width: 600
GlyphClass: 2
Flags: MW
HStem: -12 36<307 346> 684 35<157 323 149 370>
VStem: 207 43<77.5 109>
AnchorPoint: "Anchor-4" 286 396 basechar 0
AnchorPoint: "Anchor-3" 328 -20 basechar 0
AnchorPoint: "Anchor-2" 329 0 basechar 0
AnchorPoint: "Anchor-0" 346 739 basechar 0
LayerCount: 2
Fore
SplineSet
324 -12 m 0
 257 -12 207 25 207 102 c 0
 207 116 209 131 214 150 c 2
 323 684 l 1
 149 684 l 1
 157 719 l 1
 370 719 l 1
 256 155 l 2
 252 138 250 121 250 106 c 0
 250 49 281 24 333 24 c 0
 366 24 399 34 436 53 c 1
 449 20 l 1
 410 0 368 -12 324 -12 c 0
EndSplineSet
Substitution2: "'sups' Superscript lookup 18 subtable" l.sups
EndChar

StartChar: m
Encoding: 109 109 40
Width: 600
GlyphClass: 2
Flags: MW
HStem: 0 21G<12 12 12 53 225 225 225 266 439 439 439 480> 455 37<245 269.5 461.5 483> 460 20G<108 141 141 141>
VStem: 301 40<409 418.5> 514 42<401 418.5>
AnchorPoint: "Anchor-3" 241 -20 basechar 0
AnchorPoint: "Anchor-2" 457 0 basechar 0
AnchorPoint: "Anchor-0" 350 500 basechar 0
LayerCount: 2
Fore
SplineSet
12 0 m 1xd8
 108 480 l 1
 141 480 l 1xb8
 132 413 l 1
 135 413 l 1
 179 467 222 492 268 492 c 0
 313 492 341 468 341 409 c 1
 394 471 441 492 482 492 c 0
 528 492 556 467 556 409 c 0
 556 393 555 378 550 352 c 2
 480 0 l 1
 439 0 l 1
 509 351 l 2
 512 370 514 384 514 398 c 0
 514 439 498 455 468 455 c 0
 423 455 382 423 338 359 c 1
 266 0 l 1
 225 0 l 1
 296 351 l 2
 300 370 301 384 301 398 c 0
 301 439 285 455 254 455 c 0
 208 455 171 423 124 359 c 1
 53 0 l 1
 12 0 l 1xd8
EndSplineSet
Substitution2: "'sups' Superscript lookup 18 subtable" m.sups
EndChar

StartChar: n
Encoding: 110 110 41
Width: 600
GlyphClass: 2
Flags: MW
HStem: 0 21G<48 48 48 89 412 412 412 453> 455 37<350 417> 460 20G<144 178 178 178>
VStem: 480 41<359.5 395>
AnchorPoint: "Anchor-3" 257 -20 basechar 0
AnchorPoint: "Anchor-2" 431 0 basechar 0
AnchorPoint: "Anchor-0" 350 502 basechar 0
LayerCount: 2
Fore
SplineSet
48 0 m 1xd0
 144 480 l 1
 178 480 l 1xb0
 162 373 l 1
 166 373 l 1
 230 435 302 492 398 492 c 0
 486 492 521 443 521 375 c 0
 521 344 517 320 511 292 c 2
 453 0 l 1
 412 0 l 1
 470 288 l 2
 476 317 480 340 480 367 c 0
 480 423 447 455 387 455 c 0
 308 455 232 404 154 321 c 1
 89 0 l 1
 48 0 l 1xd0
EndSplineSet
Substitution2: "'sups' Superscript lookup 18 subtable" n.sups
EndChar

StartChar: o
Encoding: 111 111 42
Width: 600
GlyphClass: 2
Flags: MW
HStem: -12 36<201 310.5 201 321> 456 36<263.5 373.5>
VStem: 53 42<148 270.5 148 279> 480 41<210 332.5>
AnchorPoint: "Anchor-6" 238 0 basechar 0
AnchorPoint: "Anchor-5" 350 480 basechar 0
AnchorPoint: "Anchor-3" 234 -20 basechar 0
AnchorPoint: "Anchor-2" 238 0 basechar 0
AnchorPoint: "Anchor-0" 338 502 basechar 0
LayerCount: 2
Fore
SplineSet
247 -12 m 0
 125 -12 53 74 53 196 c 0
 53 362 179 492 327 492 c 0
 449 492 521 406 521 284 c 0
 521 119 395 -12 247 -12 c 0
250 24 m 0
 371 24 480 141 480 279 c 0
 480 386 423 456 324 456 c 0
 203 456 95 339 95 202 c 0
 95 94 152 24 250 24 c 0
EndSplineSet
Substitution2: "'sups' Superscript lookup 18 subtable" o.sups
EndChar

StartChar: p
Encoding: 112 112 43
Width: 600
GlyphClass: 2
Flags: MW
HStem: -217 21G<4 4 4 46> -12 36<232.5 326 232.5 339.5> 456 36<323.5 391.5> 460 20G<144 179 179 179>
VStem: 486 42<222 347>
AnchorPoint: "Anchor-3" 24 -227 basechar 0
AnchorPoint: "Anchor-0" 356 502 basechar 0
LayerCount: 2
Fore
SplineSet
4 -217 m 1xe8
 144 480 l 1
 179 480 l 1xd8
 166 401 l 1
 170 401 l 1
 222 448 288 492 359 492 c 0
 460 492 528 424 528 300 c 0
 528 127 419 -12 260 -12 c 0
 194 -12 137 21 103 65 c 1
 100 65 l 1
 79 -43 l 1
 46 -217 l 1
 4 -217 l 1xe8
260 24 m 0
 392 24 486 151 486 293 c 0
 486 401 433 456 350 456 c 0xe8
 293 456 219 414 160 355 c 1
 110 107 l 1
 153 45 205 24 260 24 c 0
EndSplineSet
Substitution2: "'sups' Superscript lookup 18 subtable" p.sups
EndChar

StartChar: q
Encoding: 113 113 44
Width: 600
GlyphClass: 2
Flags: MW
HStem: -217 21G<362 362 362 403> -12 36<198 264.5> 456 36<266.5 359> 460 20G<508 542 542 542>
VStem: 62 42<126.5 249 126.5 256>
AnchorPoint: "Anchor-3" 378 -227 basechar 0
AnchorPoint: "Anchor-0" 357 502 basechar 0
LayerCount: 2
Fore
SplineSet
362 -217 m 1xe8
 397 -43 l 2
 397 -40 422 72 424 77 c 1
 420 77 l 1
 367 25 298 -12 231 -12 c 0
 130 -12 62 51 62 171 c 0
 62 341 178 492 330 492 c 0
 401 492 456 461 485 414 c 1
 489 414 l 1xe8
 508 480 l 1
 542 480 l 1xd8
 403 -217 l 1
 362 -217 l 1xe8
239 24 m 0
 300 24 369 62 430 129 c 1
 480 369 l 1
 439 431 387 456 331 456 c 0
 202 456 104 319 104 179 c 0
 104 74 157 24 239 24 c 0
EndSplineSet
Substitution2: "'sups' Superscript lookup 18 subtable" q.sups
EndChar

StartChar: r
Encoding: 114 114 45
Width: 600
GlyphClass: 2
Flags: MW
HStem: 0 21G<111 111 111 152> 453 39<401 457.5> 460 20G<207 242 242 242>
VStem: 111 433
AnchorPoint: "Anchor-3" 132 -20 basechar 0
AnchorPoint: "Anchor-2" 132 0 basechar 0
AnchorPoint: "Anchor-0" 375 502 basechar 0
LayerCount: 2
Fore
SplineSet
111 0 m 1xd0
 207 480 l 1
 242 480 l 1xb0
 217 338 l 1
 221 338 l 1
 277 417 356 492 446 492 c 0
 488 492 519 482 544 465 c 1
 524 430 l 1
 499 447 475 453 440 453 c 0
 359 453 279 378 207 273 c 1
 152 0 l 1
 111 0 l 1xd0
EndSplineSet
Substitution2: "'sups' Superscript lookup 18 subtable" r.sups
EndChar

StartChar: s
Encoding: 115 115 46
Width: 600
GlyphClass: 2
Flags: MW
HStem: -12 35<244 321.5 244 325.5> 457 35<262.5 341.5>
VStem: 138 40<343 397.5 343 409.5> 425 41<86.5 150>
AnchorPoint: "Anchor-3" 259 -20 basechar 0
AnchorPoint: "Anchor-2" 261 0 basechar 0
AnchorPoint: "Anchor-0" 332 502 basechar 0
LayerCount: 2
Fore
SplineSet
272 -12 m 0
 193 -12 108 22 64 76 c 1
 91 103 l 1
 136 49 207 23 281 23 c 0
 362 23 425 52 425 121 c 0
 425 179 365 201 279 230 c 0
 178 265 138 304 138 367 c 0
 138 452 212 492 304 492 c 0
 395 492 465 453 504 414 c 1
 479 387 l 1
 439 422 382 457 301 457 c 0
 224 457 178 424 178 371 c 0
 178 315 229 291 308 264 c 0
 400 233 466 204 466 125 c 0
 466 26 379 -12 272 -12 c 0
EndSplineSet
Substitution2: "'sups' Superscript lookup 18 subtable" s.sups
EndChar

StartChar: t
Encoding: 116 116 47
Width: 600
GlyphClass: 2
Flags: MW
HStem: -12 36<281.5 337> 444 36<84 240 240 273 281 529>
VStem: 170 41<93.5 131>
AnchorPoint: "Anchor-3" 309 -20 basechar 0
AnchorPoint: "Anchor-2" 309 0 basechar 0
AnchorPoint: "Anchor-0" 285 631 basechar 0
LayerCount: 2
Fore
SplineSet
306 -12 m 0
 213 -12 170 43 170 120 c 0
 170 142 174 162 178 183 c 2
 232 444 l 1
 84 444 l 1
 90 476 l 1
 240 480 l 1
 278 639 l 1
 313 639 l 1
 281 480 l 1
 537 480 l 1
 529 444 l 1
 273 444 l 1
 217 176 l 2
 213 158 211 143 211 128 c 0
 211 59 250 24 313 24 c 0
 366 24 411 39 448 59 c 1
 463 28 l 1
 423 3 368 -12 306 -12 c 0
EndSplineSet
Substitution2: "'sups' Superscript lookup 18 subtable" t.sups
EndChar

StartChar: u
Encoding: 117 117 48
Width: 600
GlyphClass: 2
Flags: MW
HStem: -12 37<170 237.5> 0 21G<409 443 409 409> 460 20G<134 176 176 176 498 539 539 539>
VStem: 66 42<85.5 120.5>
AnchorPoint: "Anchor-6" 404 0 basechar 0
AnchorPoint: "Anchor-3" 250 -20 basechar 0
AnchorPoint: "Anchor-2" 424 0 basechar 0
AnchorPoint: "Anchor-0" 338 502 basechar 0
LayerCount: 2
Fore
SplineSet
190 -12 m 0xb0
 102 -12 66 37 66 105 c 0
 66 136 70 161 76 188 c 2
 134 480 l 1
 176 480 l 1
 118 192 l 2
 112 163 108 140 108 114 c 0
 108 57 140 25 200 25 c 0xb0
 279 25 355 76 433 159 c 1
 498 480 l 1
 539 480 l 1
 443 0 l 1
 409 0 l 1x70
 425 107 l 1
 421 107 l 1
 357 45 285 -12 190 -12 c 0xb0
EndSplineSet
Substitution2: "'sups' Superscript lookup 18 subtable" u.sups
EndChar

StartChar: v
Encoding: 118 118 49
Width: 600
GlyphClass: 2
Flags: MW
HStem: 0 37<218 252 248 252 248 267> 460 20G<96 137 137 137 526 570 570 570>
VStem: 96 474<480 480>
AnchorPoint: "Anchor-3" 240 -20 basechar 0
AnchorPoint: "Anchor-0" 330 502 basechar 0
LayerCount: 2
Fore
SplineSet
218 0 m 1
 96 480 l 1
 137 480 l 1
 214 175 l 2
 225 128 236 80 248 37 c 1
 252 37 l 1
 275 80 305 126 336 176 c 2
 526 480 l 1
 570 480 l 1
 267 0 l 1
 218 0 l 1
EndSplineSet
Substitution2: "'sups' Superscript lookup 18 subtable" v.sups
EndChar

StartChar: w
Encoding: 119 119 50
Width: 600
GlyphClass: 2
Flags: MW
HStem: 0 38<74 112 108 112 108 130 378 382> 432 41<321 324 321 321> 460 20G<46 89 89 89 576 620 620 620>
VStem: 324 40.5 338 40
AnchorPoint: "Anchor-3" 240 -20 basechar 0
AnchorPoint: "Anchor-0" 330 502 basechar 0
LayerCount: 2
Fore
SplineSet
74 0 m 1xa8
 46 480 l 1
 89 480 l 1xa8
 104 166 l 2
 106 122 107 81 108 38 c 1
 112 38 l 1
 130 80 147 121 167 166 c 2
 305 473 l 1
 356 473 l 1xd0
 373 166 l 2
 376 121 377 81 378 38 c 1
 382 38 l 1
 401 81 418 121 437 166 c 2
 576 480 l 1
 620 480 l 1
 402 0 l 1
 346 0 l 1xa8
 330 298 l 2
 327 344 327 384 324 432 c 1
 321 432 l 1
 301 384 283 340 264 297 c 2xd0
 130 0 l 1
 74 0 l 1xa8
EndSplineSet
Substitution2: "'sups' Superscript lookup 18 subtable" w.sups
EndChar

StartChar: x
Encoding: 120 120 51
Width: 600
GlyphClass: 2
Flags: MW
HStem: 0 21G<25 25 25 78 408 408 408 455> 220 52<279 294 279 294> 460 20G<134 179 179 179 484 536 536 536>
VStem: 25 511<0 480>
AnchorPoint: "Anchor-3" 241 -20 basechar 0
AnchorPoint: "Anchor-2" 429 0 basechar 0
AnchorPoint: "Anchor-0" 330 502 basechar 0
LayerCount: 2
Fore
SplineSet
25 0 m 1
 264 251 l 1
 134 480 l 1
 179 480 l 1
 248 355 l 2
 249 353 289 275 290 272 c 2
 294 272 l 2
 295 275 364 354 366 355 c 2
 484 480 l 1
 536 480 l 1
 311 245 l 1
 455 0 l 1
 408 0 l 1
 333 133 l 2
 332 135 286 217 285 220 c 2
 279 220 l 2
 277 217 210 142 208 140 c 2
 78 0 l 1
 25 0 l 1
EndSplineSet
Substitution2: "'sups' Superscript lookup 18 subtable" x.sups
EndChar

StartChar: y
Encoding: 121 121 52
Width: 600
GlyphClass: 2
Flags: MW
HStem: -219 36<18 61.5 18 71> -5 21G<223 223> 460 20G<96 137 137 137 526 571 571 571>
VStem: -41 612
AnchorPoint: "Anchor-6" 161 -126 basechar 0
AnchorPoint: "Anchor-3" 187 -227 basechar 0
AnchorPoint: "Anchor-0" 330 502 basechar 0
LayerCount: 2
Fore
SplineSet
26 -219 m 0
 -1 -219 -21 -214 -41 -203 c 1
 -26 -171 l 1
 -10 -179 7 -183 29 -183 c 0
 94 -183 127 -153 185 -63 c 2
 223 -5 l 1
 96 480 l 1
 137 480 l 1
 214 175 l 2
 224 135 237 76 247 33 c 1
 251 33 l 1
 276 76 311 135 336 175 c 2
 526 480 l 1
 571 480 l 1
 220 -74 l 2
 159 -171 116 -219 26 -219 c 0
EndSplineSet
Substitution2: "'sups' Superscript lookup 18 subtable" y.sups
EndChar

StartChar: z
Encoding: 122 122 53
Width: 600
GlyphClass: 2
Flags: MW
HStem: 0 36<106 459> 445 35<129 461 121 526>
VStem: 41 485<0 480>
AnchorPoint: "Anchor-3" 260 -20 basechar 0
AnchorPoint: "Anchor-2" 288 0 basechar 0
AnchorPoint: "Anchor-0" 331 502 basechar 0
LayerCount: 2
Fore
SplineSet
41 0 m 1
 45 26 l 1
 461 445 l 1
 121 445 l 1
 129 480 l 1
 526 480 l 1
 522 455 l 1
 106 36 l 1
 467 36 l 1
 459 0 l 1
 41 0 l 1
EndSplineSet
Substitution2: "'sups' Superscript lookup 18 subtable" z.sups
EndChar

StartChar: Agrave
Encoding: 192 192 54
Width: 600
Flags: MW
HStem: 0 21G<-12 -12 -12 34 448 448 448 492> 229 35<179 416 179 420 160 416> 617 42<369 374 369 369> 703 20G<425 425>
VStem: -12 504<0 0>
LayerCount: 2
Fore
SplineSet
250 394 m 2
 179 264 l 1
 416 264 l 1
 401 391 l 2
 391 465 383 544 374 617 c 1
 369 617 l 1
 327 540 291 471 250 394 c 2
-12 0 m 1
 357 659 l 1
 403 659 l 1
 492 0 l 1
 448 0 l 1
 420 229 l 1
 160 229 l 1
 34 0 l 1
 -12 0 l 1
402 702 m 1
 285 826 l 1
 318 854 l 1
 425 723 l 1
 402 702 l 1
EndSplineSet
EndChar

StartChar: Aacute
Encoding: 193 193 55
Width: 600
GlyphClass: 2
Flags: MW
HStem: 0 21G<-12 -12 -12 34 448 448 448 492> 229 35<179 416 179 420 160 416> 617 42<369 374 369 369>
VStem: -12 533
AnchorPoint: "Anchor-6" 455 0 basechar 0
LayerCount: 2
Fore
SplineSet
250 394 m 2
 179 264 l 1
 416 264 l 1
 401 391 l 2
 391 465 383 544 374 617 c 1
 369 617 l 1
 327 540 291 471 250 394 c 2
-12 0 m 1
 357 659 l 1
 403 659 l 1
 492 0 l 1
 448 0 l 1
 420 229 l 1
 160 229 l 1
 34 0 l 1
 -12 0 l 1
368 712 m 1
 351 736 l 1
 498 848 l 1
 521 813 l 1
 368 712 l 1
EndSplineSet
EndChar

StartChar: Acircumflex
Encoding: 194 194 56
Width: 600
Flags: MW
HStem: 0 21G<-12 -12 -12 34 448 448 448 492> 229 35<179 416 179 420 160 416> 617 42<369 374 369 369> 706 20G<245 245 518 518> 808 34<397 401 397 397>
VStem: -12 530
LayerCount: 2
Fore
SplineSet
250 394 m 2
 179 264 l 1
 416 264 l 1
 401 391 l 2
 391 465 383 544 374 617 c 1
 369 617 l 1
 327 540 291 471 250 394 c 2
-12 0 m 1
 357 659 l 1
 403 659 l 1
 492 0 l 1
 448 0 l 1
 420 229 l 1
 160 229 l 1
 34 0 l 1
 -12 0 l 1
265 707 m 1
 245 726 l 1
 380 842 l 1
 424 842 l 1
 518 726 l 1
 496 709 l 1
 401 808 l 1
 397 808 l 1
 265 707 l 1
EndSplineSet
EndChar

StartChar: Atilde
Encoding: 195 195 57
Width: 600
Flags: MW
HStem: 0 21G<-12 -12 -12 34 448 448 448 492> 229 35<179 416 179 420 160 416> 617 42<369 374 369 369> 704 20G<224 224> 718 36<438 478.5 438 484> 799 35<309 349.5>
VStem: -12 575
LayerCount: 2
Fore
SplineSet
250 394 m 2xf6
 179 264 l 1
 416 264 l 1
 401 391 l 2
 391 465 383 544 374 617 c 1
 369 617 l 1
 327 540 291 471 250 394 c 2xf6
-12 0 m 1
 357 659 l 1
 403 659 l 1
 492 0 l 1
 448 0 l 1
 420 229 l 1
 160 229 l 1
 34 0 l 1
 -12 0 l 1
457 718 m 0xee
 389 718 375 799 324 799 c 0
 294 799 269 769 255 721 c 1
 224 724 l 1xf6
 236 789 277 834 331 834 c 0
 399 834 412 754 464 754 c 0
 493 754 517 784 533 832 c 1
 563 829 l 1
 552 764 511 718 457 718 c 0xee
EndSplineSet
EndChar

StartChar: Adieresis
Encoding: 196 196 58
Width: 600
GlyphClass: 2
Flags: MW
HStem: 0 21G<-12 -12 -12 34 448 448 448 492> 229 35<179 416 179 420 160 416> 617 42<369 374 369 369>
VStem: 271 67<753 765> 443 66<753 765>
AnchorPoint: "Anchor-6" 455 0 basechar 0
LayerCount: 2
Fore
SplineSet
250 394 m 2
 179 264 l 1
 416 264 l 1
 401 391 l 2
 391 465 383 544 374 617 c 1
 369 617 l 1
 327 540 291 471 250 394 c 2
-12 0 m 1
 357 659 l 1
 403 659 l 1
 492 0 l 1
 448 0 l 1
 420 229 l 1
 160 229 l 1
 34 0 l 1
 -12 0 l 1
301 723 m 0
 283 723 271 734 271 753 c 0
 271 777 289 795 308 795 c 0
 326 795 338 784 338 764 c 0
 338 742 320 723 301 723 c 0
472 723 m 0
 454 723 443 734 443 753 c 0
 443 777 460 795 480 795 c 0
 497 795 509 784 509 764 c 0
 509 742 492 723 472 723 c 0
EndSplineSet
EndChar

StartChar: Amacron
Encoding: 256 256 59
Width: 600
Flags: MW
HStem: 0 21G<-12 -12 -12 34 448 448 448 492> 229 35<179 416 179 420 160 416> 617 42<369 374 369 369> 734 34<266 511 274 503>
VStem: -12 523
LayerCount: 2
Fore
SplineSet
250 394 m 2
 179 264 l 1
 416 264 l 1
 401 391 l 2
 391 465 383 544 374 617 c 1
 369 617 l 1
 327 540 291 471 250 394 c 2
-12 0 m 1
 357 659 l 1
 403 659 l 1
 492 0 l 1
 448 0 l 1
 420 229 l 1
 160 229 l 1
 34 0 l 1
 -12 0 l 1
266 734 m 1
 274 768 l 1
 511 768 l 1
 503 734 l 1
 266 734 l 1
EndSplineSet
EndChar

StartChar: Abreve
Encoding: 258 258 60
Width: 600
Flags: MW
HStem: 0 21G<-12 -12 -12 34 448 448 448 492> 229 35<179 416 179 420 160 416> 617 42<369 374 369 369> 710 33<353 417 353 423>
VStem: 266 33<835 840>
LayerCount: 2
Fore
SplineSet
250 394 m 2
 179 264 l 1
 416 264 l 1
 401 391 l 2
 391 465 383 544 374 617 c 1
 369 617 l 1
 327 540 291 471 250 394 c 2
-12 0 m 1
 357 659 l 1
 403 659 l 1
 492 0 l 1
 448 0 l 1
 420 229 l 1
 160 229 l 1
 34 0 l 1
 -12 0 l 1
378 710 m 0
 291 710 262 775 266 835 c 1
 299 840 l 1
 296 789 321 743 385 743 c 0
 449 743 488 789 506 840 c 1
 538 835 l 1
 521 775 468 710 378 710 c 0
EndSplineSet
EndChar

StartChar: Aring
Encoding: 197 197 61
Width: 600
GlyphClass: 2
Flags: MW
HStem: 0 21G<-12 -12 -12 34 448 448 448 492> 229 35<179 416 179 420 160 416> 617 42<369 374 369 369> 701 26<373 405 373 413> 843 26<387 419.5>
VStem: 310 30<763 797.5 763 802.5> 452 30<773 807.5>
AnchorPoint: "Anchor-6" 455 0 basechar 0
LayerCount: 2
Fore
SplineSet
250 394 m 2
 179 264 l 1
 416 264 l 1
 401 391 l 2
 391 465 383 544 374 617 c 1
 369 617 l 1
 327 540 291 471 250 394 c 2
-12 0 m 1
 357 659 l 1
 403 659 l 1
 492 0 l 1
 448 0 l 1
 420 229 l 1
 160 229 l 1
 34 0 l 1
 -12 0 l 1
386 701 m 0
 346 701 310 726 310 777 c 0
 310 828 352 869 406 869 c 0
 446 869 482 845 482 794 c 0
 482 742 440 701 386 701 c 0
388 727 m 0
 422 727 452 755 452 791 c 0
 452 824 435 843 404 843 c 0
 370 843 340 816 340 779 c 0
 340 747 358 727 388 727 c 0
EndSplineSet
EndChar

StartChar: Aringacute
Encoding: 506 506 62
Width: 600
Flags: MW
HStem: 0 21G<-12 -12 -12 34 448 448 448 492> 229 35<179 416 179 420 160 416> 617 42<369 374 369 369> 701 26<373 405 373 413> 843 23<387 429>
VStem: 310 30<763 794> 452 30<773 807.5>
LayerCount: 2
Fore
SplineSet
250 394 m 2
 179 264 l 1
 416 264 l 1
 401 391 l 2
 391 465 383 544 374 617 c 1
 369 617 l 1
 327 540 291 471 250 394 c 2
-12 0 m 1
 357 659 l 1
 403 659 l 1
 492 0 l 1
 448 0 l 1
 420 229 l 1
 160 229 l 1
 34 0 l 1
 -12 0 l 1
386 701 m 0
 346 701 310 726 310 777 c 0
 310 811 328 840 356 856 c 2
 494 941 l 1
 514 911 l 1
 429 866 l 1
 459 858 482 835 482 794 c 0
 482 742 440 701 386 701 c 0
388 727 m 0
 422 727 452 755 452 791 c 0
 452 824 435 843 404 843 c 0
 370 843 340 816 340 779 c 0
 340 747 358 727 388 727 c 0
EndSplineSet
EndChar

StartChar: uni01CD
Encoding: 461 461 63
Width: 600
Flags: MW
HStem: 0 21G<-12 -12 -12 34 448 448 448 492> 229 35<179 416 179 420 160 416> 617 42<369 374 369 369> 709 34<362 389 385 389 385 406>
VStem: -12 553
LayerCount: 2
Fore
SplineSet
250 394 m 2
 179 264 l 1
 416 264 l 1
 401 391 l 2
 391 465 383 544 374 617 c 1
 369 617 l 1
 327 540 291 471 250 394 c 2
-12 0 m 1
 357 659 l 1
 403 659 l 1
 492 0 l 1
 448 0 l 1
 420 229 l 1
 160 229 l 1
 34 0 l 1
 -12 0 l 1
362 709 m 1
 268 825 l 1
 290 842 l 1
 385 743 l 1
 389 743 l 1
 521 844 l 1
 541 824 l 1
 406 709 l 1
 362 709 l 1
EndSplineSet
EndChar

StartChar: Aogonek
Encoding: 260 260 64
Width: 600
GlyphClass: 2
Flags: MW
HStem: -224 33<421 443.5> 0 21G<-12 34 -12 -12 448 454 448 448 492 492> 229 35<179 416 179 420 160 416> 617 42<369 374 369 369>
VStem: 339 38<-157 -118.5>
AnchorPoint: "Anchor-0" 374 679 basechar 0
LayerCount: 2
Fore
SplineSet
427 -224 m 0
 382 -224 339 -203 339 -151 c 0
 339 -86 398 -33 454 0 c 1
 448 0 l 1
 420 229 l 1
 160 229 l 1
 34 0 l 1
 -12 0 l 1
 357 659 l 1
 403 659 l 1
 492 0 l 1
 432 -36 377 -90 377 -139 c 0
 377 -175 404 -191 438 -191 c 0
 459 -191 476 -183 492 -172 c 1
 506 -196 l 1
 486 -212 460 -224 427 -224 c 0
250 394 m 2
 179 264 l 1
 416 264 l 1
 401 391 l 2
 391 465 383 544 374 617 c 1
 369 617 l 1
 327 540 291 471 250 394 c 2
EndSplineSet
Ligature2: "'ccmp' Glyph Composition/Decomposition lookup 12 subtable" A uni0328
EndChar

StartChar: uni1EA0
Encoding: 7840 7840 65
Width: 600
Flags: MW
HStem: -227 21G<203 228.5> -227 93<213 228.5> 0 21G<-12 -12 -12 34 448 448 448 492> 229 35<179 416 179 420 160 416> 617 42<369 374 369 369>
VStem: 175 91<-188 -173.5>
LayerCount: 2
Fore
SplineSet
250 394 m 2xbc
 179 264 l 1
 416 264 l 1
 401 391 l 2
 391 465 383 544 374 617 c 1
 369 617 l 1
 327 540 291 471 250 394 c 2xbc
-12 0 m 1
 357 659 l 1
 403 659 l 1
 492 0 l 1
 448 0 l 1
 420 229 l 1
 160 229 l 1
 34 0 l 1
 -12 0 l 1
215 -227 m 0
 191 -227 175 -212 175 -188 c 0
 175 -159 200 -134 226 -134 c 0x7c
 251 -134 266 -150 266 -173 c 0
 266 -203 242 -227 215 -227 c 0
EndSplineSet
EndChar

StartChar: uni1EA2
Encoding: 7842 7842 66
Width: 600
Flags: MW
HStem: 0 21G<-12 -12 -12 34 448 448 448 492> 229 35<179 416 179 420 160 416> 617 42<369 374 369 369> 831 32<331 340>
VStem: 407 41
LayerCount: 2
Fore
SplineSet
250 394 m 2
 179 264 l 1
 416 264 l 1
 401 391 l 2
 391 465 383 544 374 617 c 1
 369 617 l 1
 327 540 291 471 250 394 c 2
-12 0 m 1
 357 659 l 1
 403 659 l 1
 492 0 l 1
 448 0 l 1
 420 229 l 1
 160 229 l 1
 34 0 l 1
 -12 0 l 1
337 702 m 1
 334 729 l 1
 372 740 403 755 407 783 c 0
 412 814 384 829 331 831 c 1
 340 863 l 1
 406 861 456 839 448 789 c 0
 438 737 387 715 337 702 c 1
EndSplineSet
EndChar

StartChar: uni1EA4
Encoding: 7844 7844 67
Width: 600
Flags: MW
HStem: 0 21G<-12 -12 -12 34 448 448 448 492> 229 35<179 416 179 420 160 416> 617 42<369 374 369 369> 704 20G<497 497> 706 20G<267 267> 775 35<393 397 393 393>
VStem: -12 620
LayerCount: 2
Fore
SplineSet
250 394 m 2xee
 179 264 l 1
 416 264 l 1
 401 391 l 2
 391 465 383 544 374 617 c 1
 369 617 l 1
 327 540 291 471 250 394 c 2xee
-12 0 m 1
 357 659 l 1
 403 659 l 1
 492 0 l 1
 448 0 l 1
 420 229 l 1
 160 229 l 1
 34 0 l 1
 -12 0 l 1
284 707 m 1
 267 726 l 1xee
 378 810 l 1
 418 810 l 1
 497 724 l 1xf6
 476 707 l 1
 397 775 l 1
 393 775 l 1
 284 707 l 1
492 771 m 1
 475 793 l 1
 587 880 l 1
 608 851 l 1
 492 771 l 1
EndSplineSet
EndChar

StartChar: uni1EA6
Encoding: 7846 7846 68
Width: 600
Flags: MW
HStem: 0 21G<-12 -12 -12 34 448 448 448 492> 229 35<179 416 179 420 160 416> 617 42<369 374 369 369> 704 20G<497 497> 706 20G<267 267> 775 35<393 397 393 393>
VStem: -12 509
LayerCount: 2
Fore
SplineSet
250 394 m 2xee
 179 264 l 1
 416 264 l 1
 401 391 l 2
 391 465 383 544 374 617 c 1
 369 617 l 1
 327 540 291 471 250 394 c 2xee
-12 0 m 1
 357 659 l 1
 403 659 l 1
 492 0 l 1
 448 0 l 1
 420 229 l 1
 160 229 l 1
 34 0 l 1
 -12 0 l 1
284 707 m 1
 267 726 l 1xee
 378 810 l 1
 418 810 l 1
 497 724 l 1xf6
 476 707 l 1
 397 775 l 1
 393 775 l 1
 284 707 l 1
306 781 m 1
 220 863 l 1
 247 886 l 1
 328 799 l 1
 306 781 l 1
EndSplineSet
EndChar

StartChar: uni1EA8
Encoding: 7848 7848 69
Width: 600
Flags: MW
HStem: 0 21G<-12 -12 -12 34 448 448 448 492> 229 35<179 416 179 420 160 416> 617 42<369 374 369 369> 704 20G<497 497> 706 20G<267 267> 775 35<393 397 393 393> 870 29<478 485>
VStem: -12 592 543 36
LayerCount: 2
Fore
SplineSet
250 394 m 2xef
 179 264 l 1
 416 264 l 1
 401 391 l 2
 391 465 383 544 374 617 c 1
 369 617 l 1
 327 540 291 471 250 394 c 2xef
-12 0 m 1
 357 659 l 1
 403 659 l 1
 492 0 l 1
 448 0 l 1
 420 229 l 1
 160 229 l 1
 34 0 l 1
 -12 0 l 1
284 707 m 1
 267 726 l 1xef
 378 810 l 1
 418 810 l 1
 497 724 l 1xf7
 476 707 l 1
 397 775 l 1
 393 775 l 1
 284 707 l 1
490 759 m 1xee80
 484 784 l 1
 515 791 539 803 543 826 c 0
 549 857 526 868 478 870 c 1
 485 899 l 1
 544 896 589 878 579 831 c 0
 573 786 528 768 490 759 c 1xee80
EndSplineSet
EndChar

StartChar: uni1EAA
Encoding: 7850 7850 70
Width: 600
Flags: MW
HStem: 0 21G<-12 -12 -12 34 448 448 448 492> 229 35<179 416 179 420 160 416> 617 42<369 374 369 369> 704 20G<497 497> 706 20G<267 267> 774 35<393 397 393 393> 840 32<452.5 490.5 452.5 498> 893 32<329.5 367.5>
VStem: -12 569
LayerCount: 2
Fore
SplineSet
250 394 m 2xed80
 179 264 l 1
 416 264 l 1
 401 391 l 2
 391 465 383 544 374 617 c 1
 369 617 l 1
 327 540 291 471 250 394 c 2xed80
-12 0 m 1
 357 659 l 1
 403 659 l 1
 492 0 l 1
 448 0 l 1
 420 229 l 1
 160 229 l 1
 34 0 l 1
 -12 0 l 1
284 707 m 1
 267 726 l 1xef80
 378 809 l 1
 418 809 l 1
 497 724 l 1xf580
 475 707 l 1
 397 774 l 1
 393 774 l 1
 284 707 l 1
471 840 m 0
 403 840 392 893 343 893 c 0
 316 893 302 873 292 842 c 1
 264 845 l 1
 272 882 294 925 348 925 c 0xed80
 417 925 428 872 477 872 c 0
 504 872 517 892 527 923 c 1
 557 920 l 1
 548 883 525 840 471 840 c 0
EndSplineSet
EndChar

StartChar: uni1EAC
Encoding: 7852 7852 71
Width: 600
Flags: MW
HStem: -227 21G<203 228.5> -227 93<213 228.5> 0 21G<-12 -12 -12 34 448 448 448 492> 229 35<179 416 179 420 160 416> 617 42<369 374 369 369> 706 20G<245 245 518 518> 808 34<397 401 397 397>
VStem: 175 91<-188 -173.5>
LayerCount: 2
Fore
SplineSet
250 394 m 2xbf
 179 264 l 1
 416 264 l 1
 401 391 l 2
 391 465 383 544 374 617 c 1
 369 617 l 1
 327 540 291 471 250 394 c 2xbf
-12 0 m 1
 357 659 l 1
 403 659 l 1
 492 0 l 1
 448 0 l 1
 420 229 l 1
 160 229 l 1
 34 0 l 1
 -12 0 l 1
265 707 m 1
 245 726 l 1
 380 842 l 1
 424 842 l 1
 518 726 l 1
 496 709 l 1
 401 808 l 1
 397 808 l 1
 265 707 l 1
215 -227 m 0
 191 -227 175 -212 175 -188 c 0
 175 -159 200 -134 226 -134 c 0x7f
 251 -134 266 -150 266 -173 c 0
 266 -203 242 -227 215 -227 c 0
EndSplineSet
EndChar

StartChar: uni1EAE
Encoding: 7854 7854 72
Width: 600
Flags: MW
HStem: 0 21G<-12 -12 -12 34 448 448 448 492> 229 35<179 416 179 420 160 416> 617 42<369 374 369 369> 710 32<352.5 417 352.5 423>
VStem: 266 32<834 839>
LayerCount: 2
Fore
SplineSet
250 394 m 2
 179 264 l 1
 416 264 l 1
 401 391 l 2
 391 465 383 544 374 617 c 1
 369 617 l 1
 327 540 291 471 250 394 c 2
-12 0 m 1
 357 659 l 1
 403 659 l 1
 492 0 l 1
 448 0 l 1
 420 229 l 1
 160 229 l 1
 34 0 l 1
 -12 0 l 1
378 710 m 0
 291 710 263 775 266 834 c 1
 298 839 l 1
 296 788 320 742 385 742 c 0
 449 742 488 788 506 839 c 1
 538 834 l 1
 521 775 468 710 378 710 c 0
393 824 m 1
 373 845 l 1
 486 939 l 1
 512 912 l 1
 393 824 l 1
EndSplineSet
EndChar

StartChar: uni1EB0
Encoding: 7856 7856 73
Width: 600
Flags: MW
HStem: 0 21G<-12 -12 -12 34 448 448 448 492> 229 35<179 416 179 420 160 416> 617 42<369 374 369 369> 710 32<352.5 417 352.5 423>
VStem: 266 32<834 839>
LayerCount: 2
Fore
SplineSet
250 394 m 2
 179 264 l 1
 416 264 l 1
 401 391 l 2
 391 465 383 544 374 617 c 1
 369 617 l 1
 327 540 291 471 250 394 c 2
-12 0 m 1
 357 659 l 1
 403 659 l 1
 492 0 l 1
 448 0 l 1
 420 229 l 1
 160 229 l 1
 34 0 l 1
 -12 0 l 1
378 710 m 0
 291 710 263 775 266 834 c 1
 298 839 l 1
 296 788 320 742 385 742 c 0
 449 742 488 788 506 839 c 1
 538 834 l 1
 521 775 468 710 378 710 c 0
412 818 m 1
 327 924 l 1
 359 944 l 1
 434 833 l 1
 412 818 l 1
EndSplineSet
EndChar

StartChar: uni1EB2
Encoding: 7858 7858 74
Width: 600
Flags: MW
HStem: 0 21G<-12 -12 -12 34 448 448 448 492> 229 35<179 416 179 420 160 416> 617 42<369 374 369 369> 710 32<352.5 417 352.5 423> 909 30<368 379>
VStem: 266 32<834 839>
LayerCount: 2
Fore
SplineSet
250 394 m 2
 179 264 l 1
 416 264 l 1
 401 391 l 2
 391 465 383 544 374 617 c 1
 369 617 l 1
 327 540 291 471 250 394 c 2
-12 0 m 1
 357 659 l 1
 403 659 l 1
 492 0 l 1
 448 0 l 1
 420 229 l 1
 160 229 l 1
 34 0 l 1
 -12 0 l 1
378 710 m 0
 291 710 263 775 266 834 c 1
 298 839 l 1
 296 788 320 742 385 742 c 0
 449 742 489 788 507 839 c 1
 538 834 l 1
 521 775 468 710 378 710 c 0
378 797 m 1
 373 824 l 1
 403 832 428 843 433 866 c 0
 438 896 416 906 368 909 c 1
 379 939 l 1
 437 937 481 919 472 871 c 0
 462 825 418 807 378 797 c 1
EndSplineSet
EndChar

StartChar: uni1EB4
Encoding: 7860 7860 75
Width: 600
Flags: MW
HStem: 0 21G<-12 -12 -12 34 448 448 448 492> 229 35<179 416 179 420 160 416> 617 42<369 374 369 369> 711 31<353 418.5 353 424> 841 32<455.5 493.5 455.5 501> 894 32<331.5 369.5>
VStem: 265 31<814 819 819 846>
LayerCount: 2
Fore
SplineSet
250 394 m 2
 179 264 l 1
 416 264 l 1
 401 391 l 2
 391 465 383 544 374 617 c 1
 369 617 l 1
 327 540 291 471 250 394 c 2
-12 0 m 1
 357 659 l 1
 403 659 l 1
 492 0 l 1
 448 0 l 1
 420 229 l 1
 160 229 l 1
 34 0 l 1
 -12 0 l 1
380 711 m 0
 291 711 261 765 265 814 c 1
 296 819 l 1
 295 779 320 742 386 742 c 0
 451 742 489 779 503 819 c 1
 535 814 l 1
 519 765 468 711 380 711 c 0
474 841 m 0xfe
 405 841 394 894 345 894 c 0
 318 894 304 874 295 843 c 1
 265 846 l 1
 275 883 297 926 352 926 c 0xf6
 420 926 431 873 480 873 c 0
 507 873 521 893 531 924 c 1
 559 921 l 1
 550 884 528 841 474 841 c 0xfe
EndSplineSet
EndChar

StartChar: uni1EB6
Encoding: 7862 7862 76
Width: 600
Flags: MW
HStem: -227 21G<203 228.5> -227 93<213 228.5> 0 21G<-12 -12 -12 34 448 448 448 492> 229 35<179 416 179 420 160 416> 617 42<369 374 369 369> 710 33<353 417 353 423>
VStem: 175 91<-188 -173.5> 266 33<835 840>
LayerCount: 2
Fore
SplineSet
250 394 m 2xbd
 179 264 l 1
 416 264 l 1
 401 391 l 2
 391 465 383 544 374 617 c 1
 369 617 l 1
 327 540 291 471 250 394 c 2xbd
-12 0 m 1
 357 659 l 1
 403 659 l 1
 492 0 l 1
 448 0 l 1
 420 229 l 1
 160 229 l 1
 34 0 l 1
 -12 0 l 1
378 710 m 0
 291 710 262 775 266 835 c 1
 299 840 l 1
 296 789 321 743 385 743 c 0
 449 743 488 789 506 840 c 1
 538 835 l 1
 521 775 468 710 378 710 c 0
215 -227 m 0xbe
 191 -227 175 -212 175 -188 c 0
 175 -159 200 -134 226 -134 c 0x7e
 251 -134 266 -150 266 -173 c 0
 266 -203 242 -227 215 -227 c 0xbe
EndSplineSet
EndChar

StartChar: AE
Encoding: 198 198 77
Width: 600
GlyphClass: 2
Flags: MW
HStem: 0 37<310 529> 220 35<148 307 126 314> 333 36<376 542 369 549> 623 36<427 643 427 427>
VStem: -60 711<0 659>
AnchorPoint: "Anchor-3" 298 -20 basechar 0
AnchorPoint: "Anchor-2" 418 0 basechar 0
AnchorPoint: "Anchor-0" 496 679 basechar 0
LayerCount: 2
Fore
SplineSet
234 391 m 2
 148 255 l 1
 314 255 l 1
 387 622 l 1
 381 622 l 1
 333 546 285 471 234 391 c 2
-60 0 m 1
 366 659 l 1
 651 659 l 1
 643 623 l 1
 427 623 l 1
 376 369 l 1
 549 369 l 1
 542 333 l 1
 369 333 l 1
 310 37 l 1
 536 37 l 1
 529 0 l 1
 263 0 l 1
 307 220 l 1
 126 220 l 1
 -14 0 l 1
 -60 0 l 1
EndSplineSet
EndChar

StartChar: AEacute
Encoding: 508 508 78
Width: 600
Flags: MW
HStem: 0 37<310 529> 220 35<148 307 126 314> 333 36<376 542 369 549> 623 36<427 643 427 427>
VStem: -60 711<0 659>
LayerCount: 2
Fore
SplineSet
234 391 m 2
 148 255 l 1
 314 255 l 1
 387 622 l 1
 381 622 l 1
 333 546 285 471 234 391 c 2
-60 0 m 1
 366 659 l 1
 651 659 l 1
 643 623 l 1
 427 623 l 1
 376 369 l 1
 549 369 l 1
 542 333 l 1
 369 333 l 1
 310 37 l 1
 536 37 l 1
 529 0 l 1
 263 0 l 1
 307 220 l 1
 126 220 l 1
 -14 0 l 1
 -60 0 l 1
490 712 m 1
 473 736 l 1
 620 848 l 1
 643 813 l 1
 490 712 l 1
EndSplineSet
EndChar

StartChar: uni01E2
Encoding: 482 482 79
Width: 600
Flags: MW
HStem: 0 37<310 529> 220 35<148 307 126 314> 333 36<376 542 369 549> 623 36<427 643 427 427> 734 34<388 633 396 625>
VStem: -60 711<0 659>
LayerCount: 2
Fore
SplineSet
234 391 m 2
 148 255 l 1
 314 255 l 1
 387 622 l 1
 381 622 l 1
 333 546 285 471 234 391 c 2
-60 0 m 1
 366 659 l 1
 651 659 l 1
 643 623 l 1
 427 623 l 1
 376 369 l 1
 549 369 l 1
 542 333 l 1
 369 333 l 1
 310 37 l 1
 536 37 l 1
 529 0 l 1
 263 0 l 1
 307 220 l 1
 126 220 l 1
 -14 0 l 1
 -60 0 l 1
388 734 m 1
 396 768 l 1
 633 768 l 1
 625 734 l 1
 388 734 l 1
EndSplineSet
EndChar

StartChar: uni0243
Encoding: 579 579 80
Width: 600
Flags: MW
HStem: 0 37<107 237 237 250> 176 35<14 100 143 303> 333 36<174 283 283 299 168 283> 622 37<225 332 225 225>
VStem: 476 43<145.5 244.5> 500 43<472 548>
LayerCount: 2
Fore
SplineSet
58 0 m 1xf8
 93 176 l 1
 14 176 l 1
 22 207 l 1
 100 211 l 1
 190 659 l 1
 350 659 l 2
 476 659 543 607 543 519 c 0xf4
 543 425 466 365 394 352 c 1
 393 348 l 1
 459 334 519 291 519 208 c 0
 519 66 410 0 250 0 c 2
 58 0 l 1xf8
107 37 m 1
 237 37 l 2
 383 37 476 84 476 207 c 0xf8
 476 282 410 333 299 333 c 2
 168 333 l 1
 143 211 l 1
 310 211 l 1
 303 176 l 1
 136 176 l 1
 107 37 l 1
174 369 m 1
 283 369 l 2
 430 369 500 427 500 513 c 0xf4
 500 583 452 622 332 622 c 2
 225 622 l 1
 174 369 l 1
EndSplineSet
EndChar

StartChar: uni1E06
Encoding: 7686 7686 81
Width: 600
Flags: MW
HStem: -183 34<101 344 106 339> 0 37<100 230 230 245> 331 37<166 277 277 293 160 277> 622 37<218 325 218 218>
VStem: 469 42<143 241> 492 44<469.5 547>
LayerCount: 2
Fore
SplineSet
50 0 m 1xf8
 182 659 l 1
 342 659 l 2
 473 659 536 606 536 516 c 0xf4
 536 419 452 362 387 351 c 1
 387 347 l 1
 452 332 511 289 511 207 c 0
 511 65 402 0 245 0 c 2
 50 0 l 1xf8
166 368 m 1
 277 368 l 2
 421 368 492 427 492 512 c 0
 492 582 448 622 325 622 c 2
 218 622 l 1
 166 368 l 1
100 37 m 1
 230 37 l 2
 373 37 469 82 469 204 c 0xf8
 469 278 405 331 293 331 c 2
 160 331 l 1
 100 37 l 1
101 -183 m 1
 106 -149 l 1
 344 -149 l 1
 339 -183 l 1
 101 -183 l 1
EndSplineSet
EndChar

StartChar: Ccedilla
Encoding: 199 199 82
Width: 600
Flags: MW
HStem: -219 28<161 163> -12 37<299 306 299 300.5> -9 34<266 266> 634 37<322 442.5>
VStem: 82 44<189 337.5 189 346> 283 39
LayerCount: 2
Fore
SplineSet
306 -12 m 0xdc
 304 -12 302 -12 299 -12 c 2
 265 -67 l 1xdc
 312 -79 323 -96 322 -125 c 0
 321 -184 257 -217 163 -219 c 1
 161 -191 l 1
 242 -188 283 -165 283 -132 c 0
 283 -104 262 -91 215 -87 c 1
 266 -9 l 1xbc
 144 9 82 113 82 248 c 0
 82 444 208 671 416 671 c 0
 490 671 540 629 571 578 c 1
 538 555 l 1
 512 602 472 634 413 634 c 0
 231 634 126 421 126 254 c 0
 126 124 181 25 311 25 c 0
 370 25 419 49 467 89 c 1
 489 61 l 1
 435 16 380 -12 306 -12 c 0xdc
EndSplineSet
EndChar

StartChar: Cacute
Encoding: 262 262 83
Width: 600
Flags: MW
HStem: -12 37<246 340.5 246 343> 634 37<322 442.5>
VStem: 82 44<189 337.5 189 346>
LayerCount: 2
Fore
SplineSet
306 -12 m 0
 157 -12 82 99 82 248 c 0
 82 444 208 671 416 671 c 0
 490 671 540 629 571 578 c 1
 538 555 l 1
 512 602 472 634 413 634 c 0
 231 634 126 421 126 254 c 0
 126 124 181 25 311 25 c 0
 370 25 419 49 467 89 c 1
 489 61 l 1
 435 16 380 -12 306 -12 c 0
396 712 m 1
 379 736 l 1
 526 848 l 1
 549 813 l 1
 396 712 l 1
EndSplineSet
EndChar

StartChar: Ccircumflex
Encoding: 264 264 84
Width: 600
Flags: MW
HStem: -12 37<246 340.5 246 343> 634 37<322 442.5> 706 20G<273 273 546 546> 808 34<425 429 425 425>
VStem: 82 44<189 337.5 189 346>
LayerCount: 2
Fore
SplineSet
306 -12 m 0
 157 -12 82 99 82 248 c 0
 82 444 208 671 416 671 c 0
 490 671 540 629 571 578 c 1
 538 555 l 1
 512 602 472 634 413 634 c 0
 231 634 126 421 126 254 c 0
 126 124 181 25 311 25 c 0
 370 25 419 49 467 89 c 1
 489 61 l 1
 435 16 380 -12 306 -12 c 0
293 707 m 1
 273 726 l 1
 408 842 l 1
 452 842 l 1
 546 726 l 1
 524 709 l 1
 429 808 l 1
 425 808 l 1
 293 707 l 1
EndSplineSet
EndChar

StartChar: Ccaron
Encoding: 268 268 85
Width: 600
Flags: MW
HStem: -12 37<246 340.5 246 343> 634 37<322 442.5> 709 34<390 417 413 417 413 434>
VStem: 82 44<189 337.5 189 346>
LayerCount: 2
Fore
SplineSet
306 -12 m 0
 157 -12 82 99 82 248 c 0
 82 444 208 671 416 671 c 0
 490 671 540 629 571 578 c 1
 538 555 l 1
 512 602 472 634 413 634 c 0
 231 634 126 421 126 254 c 0
 126 124 181 25 311 25 c 0
 370 25 419 49 467 89 c 1
 489 61 l 1
 435 16 380 -12 306 -12 c 0
390 709 m 1
 296 825 l 1
 318 842 l 1
 413 743 l 1
 417 743 l 1
 549 844 l 1
 569 824 l 1
 434 709 l 1
 390 709 l 1
EndSplineSet
EndChar

StartChar: Cdotaccent
Encoding: 266 266 86
Width: 600
Flags: MW
HStem: -12 37<246 340.5 246 343> 634 37<322 442.5>
VStem: 82 44<189 337.5 189 346> 381 75<753.5 769>
LayerCount: 2
Fore
SplineSet
306 -12 m 0
 157 -12 82 99 82 248 c 0
 82 444 208 671 416 671 c 0
 490 671 540 629 571 578 c 1
 538 555 l 1
 512 602 472 634 413 634 c 0
 231 634 126 421 126 254 c 0
 126 124 181 25 311 25 c 0
 370 25 419 49 467 89 c 1
 489 61 l 1
 435 16 380 -12 306 -12 c 0
414 723 m 0
 396 723 381 736 381 756 c 0
 381 782 401 801 423 801 c 0
 441 801 456 787 456 766 c 0
 456 741 436 723 414 723 c 0
EndSplineSet
EndChar

StartChar: Dcaron
Encoding: 270 270 87
Width: 600
Flags: MW
HStem: 0 36<77 190> 623 36<195 279 195 195> 709 34<349 376 372 376 372 393>
VStem: 508 44<296 468>
LayerCount: 2
Fore
SplineSet
28 0 m 1
 160 659 l 1
 281 659 l 2
 462 659 552 560 552 403 c 0
 552 175 427 0 190 0 c 2
 28 0 l 1
77 36 m 1
 191 36 l 2
 395 36 508 192 508 400 c 0
 508 536 433 623 279 623 c 2
 195 623 l 1
 77 36 l 1
349 709 m 1
 255 825 l 1
 277 842 l 1
 372 743 l 1
 376 743 l 1
 508 844 l 1
 528 824 l 1
 393 709 l 1
 349 709 l 1
EndSplineSet
EndChar

StartChar: uni1E0C
Encoding: 7692 7692 88
Width: 600
Flags: MW
HStem: -227 21G<174 199.5> -227 93<184 199.5> 0 36<77 190> 623 36<195 279 195 195>
VStem: 146 91<-188 -173.5> 508 44<296 468>
LayerCount: 2
Fore
SplineSet
28 0 m 1xbc
 160 659 l 1
 281 659 l 2
 462 659 552 560 552 403 c 0
 552 175 427 0 190 0 c 2
 28 0 l 1xbc
77 36 m 1
 191 36 l 2
 395 36 508 192 508 400 c 0
 508 536 433 623 279 623 c 2
 195 623 l 1
 77 36 l 1
186 -227 m 0
 162 -227 146 -212 146 -188 c 0
 146 -159 171 -134 197 -134 c 0x7c
 222 -134 237 -150 237 -173 c 0
 237 -203 213 -227 186 -227 c 0
EndSplineSet
EndChar

StartChar: uni1E0E
Encoding: 7694 7694 89
Width: 600
Flags: MW
HStem: -183 34<72 315 77 310> 0 36<77 190> 623 36<195 279 195 195>
VStem: 508 44<296 468>
LayerCount: 2
Fore
SplineSet
28 0 m 1
 160 659 l 1
 281 659 l 2
 462 659 552 560 552 403 c 0
 552 175 427 0 190 0 c 2
 28 0 l 1
77 36 m 1
 191 36 l 2
 395 36 508 192 508 400 c 0
 508 536 433 623 279 623 c 2
 195 623 l 1
 77 36 l 1
72 -183 m 1
 77 -149 l 1
 315 -149 l 1
 310 -183 l 1
 72 -183 l 1
EndSplineSet
EndChar

StartChar: uni1E10
Encoding: 7696 7696 90
Width: 600
Flags: MW
HStem: -219 28<91 93> 0 36<77 190 190 191 191 202> 623 36<195 279 195 195>
VStem: 213 39 508 44<297 468>
LayerCount: 2
Fore
SplineSet
77 36 m 1
 191 36 l 2
 395 36 508 192 508 400 c 0
 508 536 433 623 279 623 c 2
 195 623 l 1
 77 36 l 1
93 -219 m 1
 91 -191 l 1
 172 -188 213 -165 213 -132 c 0
 213 -104 192 -91 145 -87 c 1
 202 0 l 2
 198 0 194 0 190 0 c 2
 28 0 l 1
 160 659 l 1
 281 659 l 2
 462 659 552 560 552 403 c 0
 552 191 444 25 238 3 c 1
 195 -67 l 1
 242 -79 253 -96 252 -125 c 0
 251 -184 187 -217 93 -219 c 1
EndSplineSet
EndChar

StartChar: Dcroat
Encoding: 272 272 91
Width: 600
GlyphClass: 2
Flags: MW
HStem: 0 36<81 194> 333 34<20 105 148 304> 623 36<199 283 199 199>
VStem: 512 44<296 468>
AnchorPoint: "Anchor-3" 221 -20 basechar 0
AnchorPoint: "Anchor-0" 361 679 basechar 0
LayerCount: 2
Fore
SplineSet
32 0 m 1
 99 333 l 1
 20 333 l 1
 28 364 l 1
 105 367 l 1
 164 659 l 1
 285 659 l 2
 466 659 556 560 556 403 c 0
 556 175 431 0 194 0 c 2
 32 0 l 1
81 36 m 1
 195 36 l 2
 399 36 512 192 512 400 c 0
 512 536 437 623 283 623 c 2
 199 623 l 1
 148 367 l 1
 312 367 l 1
 304 333 l 1
 141 333 l 1
 81 36 l 1
EndSplineSet
EndChar

StartChar: uni018A
Encoding: 394 394 92
Width: 600
GlyphClass: 2
Flags: MW
HStem: 0 36<160 218> 635 36<328 396.5>
VStem: 54 38<383 457.5 383 468> 532 44<299.5 474>
AnchorPoint: "Anchor-3" 279 -20 basechar 0
AnchorPoint: "Anchor-0" 381 679 basechar 0
LayerCount: 2
Fore
SplineSet
160 0 m 1
 286 633 l 1
 170 619 92 508 92 407 c 0
 92 359 112 323 153 300 c 1
 130 268 l 1
 84 291 54 337 54 403 c 0
 54 533 157 671 326 671 c 0
 492 671 576 569 576 407 c 0
 576 178 449 0 209 0 c 2
 160 0 l 1
209 36 m 1
 218 36 l 2
 417 36 532 195 532 404 c 0
 532 544 465 635 328 635 c 1
 209 36 l 1
EndSplineSet
EndChar

StartChar: Egrave
Encoding: 200 200 93
Width: 600
Flags: MW
HStem: 0 37<122 472> 331 37<189 472 183 480> 622 37<240 588 240 240> 703 20G<466 466>
VStem: 73 523
LayerCount: 2
Fore
SplineSet
73 0 m 1
 205 659 l 1
 596 659 l 1
 588 622 l 1
 240 622 l 1
 189 368 l 1
 480 368 l 1
 472 331 l 1
 183 331 l 1
 122 37 l 1
 480 37 l 1
 472 0 l 1
 73 0 l 1
443 702 m 1
 326 826 l 1
 359 854 l 1
 466 723 l 1
 443 702 l 1
EndSplineSet
EndChar

StartChar: Eacute
Encoding: 201 201 94
Width: 600
GlyphClass: 2
Flags: MW
HStem: 0 37<122 472> 331 37<189 472 183 480> 622 37<240 588 240 240>
VStem: 73 523
AnchorPoint: "Anchor-6" 406 0 basechar 0
LayerCount: 2
Fore
SplineSet
73 0 m 1
 205 659 l 1
 596 659 l 1
 588 622 l 1
 240 622 l 1
 189 368 l 1
 480 368 l 1
 472 331 l 1
 183 331 l 1
 122 37 l 1
 480 37 l 1
 472 0 l 1
 73 0 l 1
409 712 m 1
 392 736 l 1
 539 848 l 1
 562 813 l 1
 409 712 l 1
EndSplineSet
EndChar

StartChar: Ecircumflex
Encoding: 202 202 95
Width: 600
Flags: MW
HStem: 0 37<122 472> 331 37<189 472 183 480> 622 37<240 588 240 240> 622 104<286 286 240 286> 706 20G<286 286 559 559> 808 34<438 442 438 438>
VStem: 73 523
LayerCount: 2
Fore
SplineSet
73 0 m 1xee
 205 659 l 1
 596 659 l 1
 588 622 l 1
 240 622 l 1
 189 368 l 1
 480 368 l 1
 472 331 l 1
 183 331 l 1
 122 37 l 1
 480 37 l 1
 472 0 l 1
 73 0 l 1xee
306 707 m 1
 286 726 l 1
 421 842 l 1
 465 842 l 1
 559 726 l 1
 537 709 l 1xd6
 442 808 l 1
 438 808 l 1
 306 707 l 1
EndSplineSet
MultipleSubs2: "Multiple Substitution lookup 8 subtable" E uni0302
EndChar

StartChar: Ecaron
Encoding: 282 282 96
Width: 600
Flags: MW
HStem: 0 37<122 472> 331 37<189 472 183 480> 622 37<240 588 240 240> 709 34<403 430 426 430 426 447>
VStem: 73 523
LayerCount: 2
Fore
SplineSet
73 0 m 1
 205 659 l 1
 596 659 l 1
 588 622 l 1
 240 622 l 1
 189 368 l 1
 480 368 l 1
 472 331 l 1
 183 331 l 1
 122 37 l 1
 480 37 l 1
 472 0 l 1
 73 0 l 1
403 709 m 1
 309 825 l 1
 331 842 l 1
 426 743 l 1
 430 743 l 1
 562 844 l 1
 582 824 l 1
 447 709 l 1
 403 709 l 1
EndSplineSet
EndChar

StartChar: Edieresis
Encoding: 203 203 97
Width: 600
Flags: MW
HStem: 0 37<122 472> 331 37<189 472 183 480> 622 37<240 588 240 240>
VStem: 312 67<753 765> 484 66<753 765>
LayerCount: 2
Fore
SplineSet
73 0 m 1
 205 659 l 1
 596 659 l 1
 588 622 l 1
 240 622 l 1
 189 368 l 1
 480 368 l 1
 472 331 l 1
 183 331 l 1
 122 37 l 1
 480 37 l 1
 472 0 l 1
 73 0 l 1
342 723 m 0
 324 723 312 734 312 753 c 0
 312 777 330 795 349 795 c 0
 367 795 379 784 379 764 c 0
 379 742 361 723 342 723 c 0
513 723 m 0
 495 723 484 734 484 753 c 0
 484 777 501 795 521 795 c 0
 538 795 550 784 550 764 c 0
 550 742 533 723 513 723 c 0
EndSplineSet
EndChar

StartChar: Emacron
Encoding: 274 274 98
Width: 600
Flags: MW
HStem: 0 37<122 472> 331 37<189 472 183 480> 622 37<240 588 240 240> 734 34<307 552 315 544>
VStem: 73 523
LayerCount: 2
Fore
SplineSet
73 0 m 1
 205 659 l 1
 596 659 l 1
 588 622 l 1
 240 622 l 1
 189 368 l 1
 480 368 l 1
 472 331 l 1
 183 331 l 1
 122 37 l 1
 480 37 l 1
 472 0 l 1
 73 0 l 1
307 734 m 1
 315 768 l 1
 552 768 l 1
 544 734 l 1
 307 734 l 1
EndSplineSet
MultipleSubs2: "Multiple Substitution lookup 8 subtable" E uni0304
EndChar

StartChar: Ebreve
Encoding: 276 276 99
Width: 600
Flags: MW
HStem: 0 37<122 472> 331 37<189 472 183 480> 622 37<240 588 240 240> 710 33<394 458 394 464>
VStem: 307 33<835 840>
LayerCount: 2
Fore
SplineSet
73 0 m 1
 205 659 l 1
 596 659 l 1
 588 622 l 1
 240 622 l 1
 189 368 l 1
 480 368 l 1
 472 331 l 1
 183 331 l 1
 122 37 l 1
 480 37 l 1
 472 0 l 1
 73 0 l 1
419 710 m 0
 332 710 303 775 307 835 c 1
 340 840 l 1
 337 789 362 743 426 743 c 0
 490 743 529 789 547 840 c 1
 579 835 l 1
 562 775 509 710 419 710 c 0
EndSplineSet
EndChar

StartChar: Edotaccent
Encoding: 278 278 100
Width: 600
Flags: MW
HStem: 0 37<122 472> 331 37<189 472 183 480> 622 37<240 588 240 240>
VStem: 394 75<753.5 769>
LayerCount: 2
Fore
SplineSet
73 0 m 1
 205 659 l 1
 596 659 l 1
 588 622 l 1
 240 622 l 1
 189 368 l 1
 480 368 l 1
 472 331 l 1
 183 331 l 1
 122 37 l 1
 480 37 l 1
 472 0 l 1
 73 0 l 1
427 723 m 0
 409 723 394 736 394 756 c 0
 394 782 414 801 436 801 c 0
 454 801 469 787 469 766 c 0
 469 741 449 723 427 723 c 0
EndSplineSet
EndChar

StartChar: Eogonek
Encoding: 280 280 101
Width: 600
GlyphClass: 2
Flags: MW
HStem: -224 33<372 394.5> 0 37<122 404 445.5 470 470 472> 331 37<189 472 183 480> 622 37<240 588 240 240>
VStem: 290 38<-157 -119>
AnchorPoint: "Anchor-0" 415 679 basechar 0
LayerCount: 2
Fore
SplineSet
378 -224 m 0
 333 -224 290 -203 290 -151 c 0
 290 -87 345 -31 404 0 c 1
 73 0 l 1
 205 659 l 1
 596 659 l 1
 588 622 l 1
 240 622 l 1
 189 368 l 1
 480 368 l 1
 472 331 l 1
 183 331 l 1
 122 37 l 1
 480 37 l 1
 472 0 l 1
 470 0 l 2
 421 0 328 -77 328 -139 c 0
 328 -175 355 -191 389 -191 c 0
 410 -191 427 -183 443 -172 c 1
 457 -196 l 1
 437 -212 411 -224 378 -224 c 0
EndSplineSet
Ligature2: "'ccmp' Glyph Composition/Decomposition lookup 12 subtable" E uni0328
EndChar

StartChar: uni1EB8
Encoding: 7864 7864 102
Width: 600
Flags: MW
HStem: -227 21G<240 265.5> -227 93<250 265.5> 0 37<122 472> 331 37<189 472 183 480> 622 37<240 588 240 240>
VStem: 212 91<-188 -173.5>
LayerCount: 2
Fore
SplineSet
73 0 m 1xbc
 205 659 l 1
 596 659 l 1
 588 622 l 1
 240 622 l 1
 189 368 l 1
 480 368 l 1
 472 331 l 1
 183 331 l 1
 122 37 l 1
 480 37 l 1
 472 0 l 1
 73 0 l 1xbc
252 -227 m 0
 228 -227 212 -212 212 -188 c 0
 212 -159 237 -134 263 -134 c 0x7c
 288 -134 303 -150 303 -173 c 0
 303 -203 279 -227 252 -227 c 0
EndSplineSet
EndChar

StartChar: uni1EBA
Encoding: 7866 7866 103
Width: 600
Flags: MW
HStem: 0 37<122 472> 331 37<189 472 183 480> 622 37<240 588 240 240> 831 32<372 381>
VStem: 448 41
LayerCount: 2
Fore
SplineSet
73 0 m 1
 205 659 l 1
 596 659 l 1
 588 622 l 1
 240 622 l 1
 189 368 l 1
 480 368 l 1
 472 331 l 1
 183 331 l 1
 122 37 l 1
 480 37 l 1
 472 0 l 1
 73 0 l 1
378 702 m 1
 375 729 l 1
 413 740 444 755 448 783 c 0
 453 814 425 829 372 831 c 1
 381 863 l 1
 447 861 497 839 489 789 c 0
 479 737 428 715 378 702 c 1
EndSplineSet
EndChar

StartChar: uni1EBC
Encoding: 7868 7868 104
Width: 600
Flags: MW
HStem: 0 37<122 472> 331 37<189 472 183 480> 622 37<240 588 240 240> 704 20G<265 265> 718 36<479 519.5 479 525> 799 35<350 390.5>
VStem: 73 531
LayerCount: 2
Fore
SplineSet
73 0 m 1xf6
 205 659 l 1
 596 659 l 1
 588 622 l 1
 240 622 l 1
 189 368 l 1
 480 368 l 1
 472 331 l 1
 183 331 l 1
 122 37 l 1
 480 37 l 1
 472 0 l 1
 73 0 l 1xf6
498 718 m 0xee
 430 718 416 799 365 799 c 0
 335 799 310 769 296 721 c 1
 265 724 l 1xf6
 277 789 318 834 372 834 c 0
 440 834 453 754 505 754 c 0
 534 754 558 784 574 832 c 1
 604 829 l 1
 593 764 552 718 498 718 c 0xee
EndSplineSet
EndChar

StartChar: uni1EBE
Encoding: 7870 7870 105
Width: 600
Flags: MW
HStem: 0 37<122 472> 331 37<189 472 183 480> 622 37<240 588 240 240> 704 20G<538 538> 706 20G<308 308> 775 35<434 438 434 434>
VStem: 73 576
LayerCount: 2
Fore
SplineSet
73 0 m 1xee
 205 659 l 1
 596 659 l 1
 588 622 l 1
 240 622 l 1
 189 368 l 1
 480 368 l 1
 472 331 l 1
 183 331 l 1
 122 37 l 1
 480 37 l 1
 472 0 l 1
 73 0 l 1xee
325 707 m 1
 308 726 l 1xee
 419 810 l 1
 459 810 l 1
 538 724 l 1xf6
 517 707 l 1
 438 775 l 1
 434 775 l 1
 325 707 l 1
533 771 m 1
 516 793 l 1
 628 880 l 1
 649 851 l 1
 533 771 l 1
EndSplineSet
EndChar

StartChar: uni1EC0
Encoding: 7872 7872 106
Width: 600
Flags: MW
HStem: 0 37<122 472> 331 37<189 472 183 480> 622 37<240 588 240 240> 704 20G<538 538> 706 20G<308 308> 775 35<434 438 434 434>
VStem: 73 523
LayerCount: 2
Fore
SplineSet
73 0 m 1xee
 205 659 l 1
 596 659 l 1
 588 622 l 1
 240 622 l 1
 189 368 l 1
 480 368 l 1
 472 331 l 1
 183 331 l 1
 122 37 l 1
 480 37 l 1
 472 0 l 1
 73 0 l 1xee
325 707 m 1
 308 726 l 1xee
 419 810 l 1
 459 810 l 1
 538 724 l 1xf6
 517 707 l 1
 438 775 l 1
 434 775 l 1
 325 707 l 1
347 781 m 1
 261 863 l 1
 288 886 l 1
 369 799 l 1
 347 781 l 1
EndSplineSet
EndChar

StartChar: uni1EC2
Encoding: 7874 7874 107
Width: 600
Flags: MW
HStem: 0 37<122 472> 331 37<189 472 183 480> 622 37<240 588 240 240> 704 20G<538 538> 706 20G<308 308> 775 35<434 438 434 434> 870 29<519 526>
VStem: 73 548 584 36
LayerCount: 2
Fore
SplineSet
73 0 m 1xef
 205 659 l 1
 596 659 l 1
 588 622 l 1
 240 622 l 1
 189 368 l 1
 480 368 l 1
 472 331 l 1
 183 331 l 1
 122 37 l 1
 480 37 l 1
 472 0 l 1
 73 0 l 1xef
325 707 m 1
 308 726 l 1xef
 419 810 l 1
 459 810 l 1
 538 724 l 1xf7
 517 707 l 1
 438 775 l 1
 434 775 l 1
 325 707 l 1
531 759 m 1xee80
 525 784 l 1
 556 791 580 803 584 826 c 0
 590 857 567 868 519 870 c 1
 526 899 l 1
 585 896 630 878 620 831 c 0
 614 786 569 768 531 759 c 1xee80
EndSplineSet
EndChar

StartChar: uni1EC4
Encoding: 7876 7876 108
Width: 600
Flags: MW
HStem: 0 37<122 472> 331 37<189 472 183 480> 622 37<240 588 240 240> 704 20G<538 538> 706 20G<308 308> 774 35<434 438 434 434> 840 32<493.5 531.5 493.5 539> 893 32<370.5 408.5>
VStem: 73 525
LayerCount: 2
Fore
SplineSet
73 0 m 1xed80
 205 659 l 1
 596 659 l 1
 588 622 l 1
 240 622 l 1
 189 368 l 1
 480 368 l 1
 472 331 l 1
 183 331 l 1
 122 37 l 1
 480 37 l 1
 472 0 l 1
 73 0 l 1xed80
325 707 m 1
 308 726 l 1xef80
 419 809 l 1
 459 809 l 1
 538 724 l 1xf580
 516 707 l 1
 438 774 l 1
 434 774 l 1
 325 707 l 1
512 840 m 0
 444 840 433 893 384 893 c 0
 357 893 343 873 333 842 c 1
 305 845 l 1
 313 882 335 925 389 925 c 0xed80
 458 925 469 872 518 872 c 0
 545 872 558 892 568 923 c 1
 598 920 l 1
 589 883 566 840 512 840 c 0
EndSplineSet
EndChar

StartChar: uni1EC6
Encoding: 7878 7878 109
Width: 600
Flags: MW
HStem: -227 21G<240 265.5> -227 93<250 265.5> 0 37<122 472> 331 37<189 472 183 480> 622 37<240 588 240 240> 622 104<286 286 240 286> 706 20G<286 286 559 559> 808 34<438 442 438 438>
VStem: 212 91<-188 -173.5>
LayerCount: 2
Fore
SplineSet
73 0 m 1xbb80
 205 659 l 1
 596 659 l 1
 588 622 l 1
 240 622 l 1
 189 368 l 1
 480 368 l 1
 472 331 l 1
 183 331 l 1
 122 37 l 1
 480 37 l 1
 472 0 l 1
 73 0 l 1xbb80
306 707 m 1
 286 726 l 1
 421 842 l 1
 465 842 l 1
 559 726 l 1
 537 709 l 1xb580
 442 808 l 1
 438 808 l 1
 306 707 l 1
252 -227 m 0
 228 -227 212 -212 212 -188 c 0
 212 -159 237 -134 263 -134 c 0x7b80
 288 -134 303 -150 303 -173 c 0
 303 -203 279 -227 252 -227 c 0
EndSplineSet
EndChar

StartChar: uni1E16
Encoding: 7702 7702 110
Width: 600
Flags: MW
HStem: 0 37<122 472> 331 37<189 472 183 480> 622 37<240 588 240 240> 734 34<307 552 315 544>
VStem: 73 523
LayerCount: 2
Fore
SplineSet
73 0 m 1
 205 659 l 1
 596 659 l 1
 588 622 l 1
 240 622 l 1
 189 368 l 1
 480 368 l 1
 472 331 l 1
 183 331 l 1
 122 37 l 1
 480 37 l 1
 472 0 l 1
 73 0 l 1
307 734 m 1
 315 768 l 1
 552 768 l 1
 544 734 l 1
 307 734 l 1
436 826 m 1
 417 846 l 1
 530 941 l 1
 556 914 l 1
 436 826 l 1
EndSplineSet
EndChar

StartChar: uni01F4
Encoding: 500 500 111
Width: 600
Flags: MW
HStem: -12 37<237.5 337 237.5 338.5> 286 36<341 485 333 533> 634 37<316 440.5>
VStem: 71 43<191 337.5 191 347.5>
LayerCount: 2
Fore
SplineSet
303 -12 m 0
 147 -12 71 95 71 248 c 0
 71 447 194 671 413 671 c 0
 488 671 538 628 569 578 c 1
 536 555 l 1
 511 600 470 634 411 634 c 0
 221 634 114 421 114 254 c 0
 114 128 168 25 307 25 c 0
 367 25 412 47 443 75 c 1
 485 286 l 1
 333 286 l 1
 341 322 l 1
 533 322 l 1
 479 54 l 1
 432 14 374 -12 303 -12 c 0
393 712 m 1
 376 736 l 1
 523 848 l 1
 546 813 l 1
 393 712 l 1
EndSplineSet
EndChar

StartChar: Gcircumflex
Encoding: 284 284 112
Width: 600
Flags: MW
HStem: -12 37<237.5 337 237.5 338.5> 286 36<341 485 333 533> 634 37<316 440.5> 706 20G<270 270 543 543> 808 34<422 426 422 422>
VStem: 71 43<191 337.5 191 347.5>
LayerCount: 2
Fore
SplineSet
303 -12 m 0
 147 -12 71 95 71 248 c 0
 71 447 194 671 413 671 c 0
 488 671 538 628 569 578 c 1
 536 555 l 1
 511 600 470 634 411 634 c 0
 221 634 114 421 114 254 c 0
 114 128 168 25 307 25 c 0
 367 25 412 47 443 75 c 1
 485 286 l 1
 333 286 l 1
 341 322 l 1
 533 322 l 1
 479 54 l 1
 432 14 374 -12 303 -12 c 0
290 707 m 1
 270 726 l 1
 405 842 l 1
 449 842 l 1
 543 726 l 1
 521 709 l 1
 426 808 l 1
 422 808 l 1
 290 707 l 1
EndSplineSet
EndChar

StartChar: Gbreve
Encoding: 286 286 113
Width: 600
Flags: MW
HStem: -12 37<237.5 337 237.5 338.5> 286 36<341 485 333 533> 634 37<316 440.5> 710 33<378 442 378 448>
VStem: 71 43<191 337.5 191 347.5> 291 33<835 840>
LayerCount: 2
Fore
SplineSet
303 -12 m 0
 147 -12 71 95 71 248 c 0
 71 447 194 671 413 671 c 0
 488 671 538 628 569 578 c 1
 536 555 l 1
 511 600 470 634 411 634 c 0
 221 634 114 421 114 254 c 0
 114 128 168 25 307 25 c 0
 367 25 412 47 443 75 c 1
 485 286 l 1
 333 286 l 1
 341 322 l 1
 533 322 l 1
 479 54 l 1
 432 14 374 -12 303 -12 c 0
403 710 m 0
 316 710 287 775 291 835 c 1
 324 840 l 1
 321 789 346 743 410 743 c 0
 474 743 513 789 531 840 c 1
 563 835 l 1
 546 775 493 710 403 710 c 0
EndSplineSet
EndChar

StartChar: Gdotaccent
Encoding: 288 288 114
Width: 600
Flags: MW
HStem: -12 37<237.5 337 237.5 338.5> 286 36<341 485 333 533> 634 37<316 440.5>
VStem: 71 43<191 337.5 191 347.5> 378 75<753.5 769>
LayerCount: 2
Fore
SplineSet
303 -12 m 0
 147 -12 71 95 71 248 c 0
 71 447 194 671 413 671 c 0
 488 671 538 628 569 578 c 1
 536 555 l 1
 511 600 470 634 411 634 c 0
 221 634 114 421 114 254 c 0
 114 128 168 25 307 25 c 0
 367 25 412 47 443 75 c 1
 485 286 l 1
 333 286 l 1
 341 322 l 1
 533 322 l 1
 479 54 l 1
 432 14 374 -12 303 -12 c 0
411 723 m 0
 393 723 378 736 378 756 c 0
 378 782 398 801 420 801 c 0
 438 801 453 787 453 766 c 0
 453 741 433 723 411 723 c 0
EndSplineSet
EndChar

StartChar: uni0122
Encoding: 290 290 115
Width: 600
Flags: MW
HStem: -219 28<179 180> -88 27<234 248> -12 37<237.5 337 237.5 338.5> 286 36<341 485 333 533> 634 37<316 440.5>
VStem: 71 43<191 337.5 191 347.5> 301 39<-149 -118.5>
LayerCount: 2
Fore
SplineSet
303 -12 m 0
 147 -12 71 95 71 248 c 0
 71 447 194 671 413 671 c 0
 488 671 538 628 569 578 c 1
 536 555 l 1
 511 600 470 634 411 634 c 0
 221 634 114 421 114 254 c 0
 114 128 168 25 307 25 c 0
 367 25 412 47 443 75 c 1
 485 286 l 1
 333 286 l 1
 341 322 l 1
 533 322 l 1
 479 54 l 1
 432 14 374 -12 303 -12 c 0
180 -219 m 1
 179 -191 l 1
 260 -188 301 -165 301 -133 c 0
 301 -104 279 -92 234 -88 c 1
 248 -61 l 1
 323 -70 340 -89 340 -124 c 0
 340 -184 274 -217 180 -219 c 1
EndSplineSet
EndChar

StartChar: Gcaron
Encoding: 486 486 116
Width: 600
Flags: MW
HStem: -12 37<237.5 337 237.5 338.5> 286 36<341 485 333 533> 634 37<316 440.5> 709 34<387 414 410 414 410 431>
VStem: 71 43<191 337.5 191 347.5>
LayerCount: 2
Fore
SplineSet
303 -12 m 0
 147 -12 71 95 71 248 c 0
 71 447 194 671 413 671 c 0
 488 671 538 628 569 578 c 1
 536 555 l 1
 511 600 470 634 411 634 c 0
 221 634 114 421 114 254 c 0
 114 128 168 25 307 25 c 0
 367 25 412 47 443 75 c 1
 485 286 l 1
 333 286 l 1
 341 322 l 1
 533 322 l 1
 479 54 l 1
 432 14 374 -12 303 -12 c 0
387 709 m 1
 293 825 l 1
 315 842 l 1
 410 743 l 1
 414 743 l 1
 546 844 l 1
 566 824 l 1
 431 709 l 1
 387 709 l 1
EndSplineSet
EndChar

StartChar: uni1E20
Encoding: 7712 7712 117
Width: 600
Flags: MW
HStem: -12 37<237.5 337 237.5 338.5> 286 36<341 485 333 533> 634 37<316 440.5> 734 34<291 536 299 528>
VStem: 71 43<191 337.5 191 347.5>
LayerCount: 2
Fore
SplineSet
303 -12 m 0
 147 -12 71 95 71 248 c 0
 71 447 194 671 413 671 c 0
 488 671 538 628 569 578 c 1
 536 555 l 1
 511 600 470 634 411 634 c 0
 221 634 114 421 114 254 c 0
 114 128 168 25 307 25 c 0
 367 25 412 47 443 75 c 1
 485 286 l 1
 333 286 l 1
 341 322 l 1
 533 322 l 1
 479 54 l 1
 432 14 374 -12 303 -12 c 0
291 734 m 1
 299 768 l 1
 536 768 l 1
 528 734 l 1
 291 734 l 1
EndSplineSet
EndChar

StartChar: uni00470303
Encoding: 1114113 -1 118
Width: 600
GlyphClass: 3
Flags: MW
HStem: -12 37<237.5 337 237.5 338.5> 286 36<341 485 333 533> 634 37<316 440.5> 704 20G<249 249> 718 36<463 503.5 463 509> 799 35<334 374.5>
VStem: 71 43<191 337.5 191 347.5>
LayerCount: 2
Fore
SplineSet
303 -12 m 0xf6
 147 -12 71 95 71 248 c 0
 71 447 194 671 413 671 c 0
 488 671 538 628 569 578 c 1
 536 555 l 1
 511 600 470 634 411 634 c 0
 221 634 114 421 114 254 c 0
 114 128 168 25 307 25 c 0
 367 25 412 47 443 75 c 1
 485 286 l 1
 333 286 l 1
 341 322 l 1
 533 322 l 1
 479 54 l 1
 432 14 374 -12 303 -12 c 0xf6
482 718 m 0xee
 414 718 400 799 349 799 c 0
 319 799 294 769 280 721 c 1
 249 724 l 1xf6
 261 789 302 834 356 834 c 0
 424 834 437 754 489 754 c 0
 518 754 542 784 558 832 c 1
 588 829 l 1
 577 764 536 718 482 718 c 0xee
EndSplineSet
Ligature2: "'ccmp' Glyph Composition/Decomposition lookup 12 subtable" G uni0303
EndChar

StartChar: uni0193
Encoding: 403 403 119
Width: 600
Flags: MW
HStem: -12 37<237.5 337 237.5 338.5> 286 36<341 485 333 533> 634 37<316 432.5 303.5 440.5> 757 36<580.5 605.5>
VStem: 71 43<191 337.5 191 347.5> 505 36<679.5 707 668 718.5>
LayerCount: 2
Fore
SplineSet
569 578 m 1
 536 555 l 1
 511 600 470 634 411 634 c 0
 221 634 114 421 114 254 c 0
 114 128 168 25 307 25 c 0
 367 25 412 47 443 75 c 1
 485 286 l 1
 333 286 l 1
 341 322 l 1
 533 322 l 1
 479 54 l 1
 432 14 374 -12 303 -12 c 0
 147 -12 71 95 71 248 c 0
 71 447 194 671 413 671 c 0
 452 671 484 660 510 641 c 1
 506 659 505 673 505 686 c 0
 505 751 540 793 598 793 c 0
 620 793 635 786 650 776 c 1
 634 745 l 1
 622 753 612 757 599 757 c 0
 562 757 541 725 541 689 c 0
 541 647 549 618 569 578 c 1
EndSplineSet
EndChar

StartChar: Hcircumflex
Encoding: 292 292 120
Width: 600
Flags: MW
HStem: 0 21G<27 27 27 70 406 406 406 449> 331 37<143 473 136 479> 706 20G<245 245 518 518> 808 34<397 401 397 397>
VStem: 27 554
LayerCount: 2
Fore
SplineSet
27 0 m 1
 159 659 l 1
 202 659 l 1
 143 368 l 1
 479 368 l 1
 538 659 l 1
 581 659 l 1
 449 0 l 1
 406 0 l 1
 473 331 l 1
 136 331 l 1
 70 0 l 1
 27 0 l 1
265 707 m 1
 245 726 l 1
 380 842 l 1
 424 842 l 1
 518 726 l 1
 496 709 l 1
 401 808 l 1
 397 808 l 1
 265 707 l 1
EndSplineSet
EndChar

StartChar: uni1E26
Encoding: 7718 7718 121
Width: 600
Flags: MW
HStem: 0 21G<27 27 27 70 406 406 406 449> 331 37<143 473 136 479>
VStem: 271 67<753 765> 443 66<753 765>
LayerCount: 2
Fore
SplineSet
27 0 m 1
 159 659 l 1
 202 659 l 1
 143 368 l 1
 479 368 l 1
 538 659 l 1
 581 659 l 1
 449 0 l 1
 406 0 l 1
 473 331 l 1
 136 331 l 1
 70 0 l 1
 27 0 l 1
301 723 m 0
 283 723 271 734 271 753 c 0
 271 777 289 795 308 795 c 0
 326 795 338 784 338 764 c 0
 338 742 320 723 301 723 c 0
472 723 m 0
 454 723 443 734 443 753 c 0
 443 777 460 795 480 795 c 0
 497 795 509 784 509 764 c 0
 509 742 492 723 472 723 c 0
EndSplineSet
EndChar

StartChar: uni1E24
Encoding: 7716 7716 122
Width: 600
Flags: MW
HStem: -227 21G<187 212.5> -227 93<197 212.5> 0 21G<27 27 27 70 406 406 406 449> 331 37<143 473 136 479>
VStem: 159 91<-188 -173.5>
LayerCount: 2
Fore
SplineSet
27 0 m 1xb8
 159 659 l 1
 202 659 l 1
 143 368 l 1
 479 368 l 1
 538 659 l 1
 581 659 l 1
 449 0 l 1
 406 0 l 1
 473 331 l 1
 136 331 l 1
 70 0 l 1
 27 0 l 1xb8
199 -227 m 0
 175 -227 159 -212 159 -188 c 0
 159 -159 184 -134 210 -134 c 0x78
 235 -134 250 -150 250 -173 c 0
 250 -203 226 -227 199 -227 c 0
EndSplineSet
EndChar

StartChar: uni1E28
Encoding: 7720 7720 123
Width: 600
Flags: MW
HStem: -219 28<-80 -78> 0 21G<27 27 27 31 66 66 66 70 406 406 406 449> 331 37<143 473 136 479>
VStem: 42 39
LayerCount: 2
Fore
SplineSet
27 0 m 1
 159 659 l 1
 202 659 l 1
 143 368 l 1
 479 368 l 1
 538 659 l 1
 581 659 l 1
 449 0 l 1
 406 0 l 1
 473 331 l 1
 136 331 l 1
 70 0 l 1
 66 0 l 1
 24 -67 l 1
 71 -79 82 -96 81 -125 c 0
 80 -184 16 -217 -78 -219 c 1
 -80 -191 l 1
 1 -188 42 -165 42 -132 c 0
 42 -104 21 -91 -26 -87 c 1
 31 0 l 1
 27 0 l 1
EndSplineSet
EndChar

StartChar: uni1E2A
Encoding: 7722 7722 124
Width: 600
Flags: MW
HStem: -222 34<168 240 168 249> 0 21G<27 27 27 70 406 406 406 449> 331 37<143 473 136 479>
VStem: 76 34<-74 -69>
LayerCount: 2
Fore
SplineSet
27 0 m 1
 159 659 l 1
 202 659 l 1
 143 368 l 1
 479 368 l 1
 538 659 l 1
 581 659 l 1
 449 0 l 1
 406 0 l 1
 473 331 l 1
 136 331 l 1
 70 0 l 1
 27 0 l 1
197 -222 m 0
 97 -222 73 -140 76 -74 c 1
 110 -69 l 1
 106 -125 132 -188 204 -188 c 0
 276 -188 322 -125 341 -69 c 1
 374 -74 l 1
 356 -140 301 -222 197 -222 c 0
EndSplineSet
EndChar

StartChar: Hbar
Encoding: 294 294 125
Width: 600
Flags: MW
HStem: 0 21G<27 70 27 27 406 449 406 406> 331 37<143 473 136 479> 495 33<50 133 175 505 555 621>
VStem: 27 602<0 528>
LayerCount: 2
Fore
SplineSet
50 495 m 1
 55 523 l 1
 133 528 l 1
 159 659 l 1
 202 659 l 1
 175 528 l 1
 511 528 l 1
 538 659 l 1
 581 659 l 1
 555 528 l 1
 629 528 l 1
 621 495 l 1
 548 495 l 1
 449 0 l 1
 406 0 l 1
 473 331 l 1
 136 331 l 1
 70 0 l 1
 27 0 l 1
 126 495 l 1
 50 495 l 1
143 368 m 1
 479 368 l 1
 505 495 l 1
 169 495 l 1
 143 368 l 1
EndSplineSet
EndChar

StartChar: Igrave
Encoding: 204 204 126
Width: 600
Flags: MW
HStem: 0 37<46 222 54 222 265 428> 622 37<178 339 170 562 382 382 382 554> 703 20G<425 425>
VStem: 46 516
LayerCount: 2
Fore
SplineSet
46 0 m 1
 54 37 l 1
 222 37 l 1
 339 622 l 1
 170 622 l 1
 178 659 l 1
 562 659 l 1
 554 622 l 1
 382 622 l 1
 265 37 l 1
 436 37 l 1
 428 0 l 1
 46 0 l 1
402 702 m 1
 285 826 l 1
 318 854 l 1
 425 723 l 1
 402 702 l 1
EndSplineSet
EndChar

StartChar: Iacute
Encoding: 205 205 127
Width: 600
Flags: MW
HStem: 0 37<46 222 54 222 265 428> 622 37<178 339 170 562 382 382 382 554>
VStem: 46 516
LayerCount: 2
Fore
SplineSet
46 0 m 1
 54 37 l 1
 222 37 l 1
 339 622 l 1
 170 622 l 1
 178 659 l 1
 562 659 l 1
 554 622 l 1
 382 622 l 1
 265 37 l 1
 436 37 l 1
 428 0 l 1
 46 0 l 1
368 712 m 1
 351 736 l 1
 498 848 l 1
 521 813 l 1
 368 712 l 1
EndSplineSet
EndChar

StartChar: Icircumflex
Encoding: 206 206 128
Width: 600
Flags: MW
HStem: 0 37<46 222 54 222 265 428> 622 37<178 339 170 562 382 382 382 554> 706 20G<245 245 518 518> 808 34<397 401 397 397>
VStem: 46 516
LayerCount: 2
Fore
SplineSet
46 0 m 1
 54 37 l 1
 222 37 l 1
 339 622 l 1
 170 622 l 1
 178 659 l 1
 562 659 l 1
 554 622 l 1
 382 622 l 1
 265 37 l 1
 436 37 l 1
 428 0 l 1
 46 0 l 1
265 707 m 1
 245 726 l 1
 380 842 l 1
 424 842 l 1
 518 726 l 1
 496 709 l 1
 401 808 l 1
 397 808 l 1
 265 707 l 1
EndSplineSet
EndChar

StartChar: Itilde
Encoding: 296 296 129
Width: 600
Flags: MW
HStem: 0 37<46 222 54 222 265 428> 622 37<178 339 170 562 382 382 382 554> 704 20G<224 224> 718 36<438 478.5 438 484> 799 35<309 349.5>
VStem: 46 517
LayerCount: 2
Fore
SplineSet
46 0 m 1xec
 54 37 l 1
 222 37 l 1
 339 622 l 1
 170 622 l 1
 178 659 l 1
 562 659 l 1
 554 622 l 1
 382 622 l 1
 265 37 l 1
 436 37 l 1
 428 0 l 1
 46 0 l 1xec
457 718 m 0xdc
 389 718 375 799 324 799 c 0
 294 799 269 769 255 721 c 1
 224 724 l 1xec
 236 789 277 834 331 834 c 0
 399 834 412 754 464 754 c 0
 493 754 517 784 533 832 c 1
 563 829 l 1
 552 764 511 718 457 718 c 0xdc
EndSplineSet
EndChar

StartChar: Idieresis
Encoding: 207 207 130
Width: 600
Flags: MW
HStem: 0 37<46 222 54 222 265 428> 622 37<178 339 170 562 382 382 382 554>
VStem: 271 67<753 765> 443 66<753 765>
LayerCount: 2
Fore
SplineSet
46 0 m 1
 54 37 l 1
 222 37 l 1
 339 622 l 1
 170 622 l 1
 178 659 l 1
 562 659 l 1
 554 622 l 1
 382 622 l 1
 265 37 l 1
 436 37 l 1
 428 0 l 1
 46 0 l 1
301 723 m 0
 283 723 271 734 271 753 c 0
 271 777 289 795 308 795 c 0
 326 795 338 784 338 764 c 0
 338 742 320 723 301 723 c 0
472 723 m 0
 454 723 443 734 443 753 c 0
 443 777 460 795 480 795 c 0
 497 795 509 784 509 764 c 0
 509 742 492 723 472 723 c 0
EndSplineSet
EndChar

StartChar: Imacron
Encoding: 298 298 131
Width: 600
Flags: MW
HStem: 0 37<46 222 54 222 265 428> 622 37<178 339 170 562 382 382 382 554> 734 34<266 511 274 503>
VStem: 46 516
LayerCount: 2
Fore
SplineSet
46 0 m 1
 54 37 l 1
 222 37 l 1
 339 622 l 1
 170 622 l 1
 178 659 l 1
 562 659 l 1
 554 622 l 1
 382 622 l 1
 265 37 l 1
 436 37 l 1
 428 0 l 1
 46 0 l 1
266 734 m 1
 274 768 l 1
 511 768 l 1
 503 734 l 1
 266 734 l 1
EndSplineSet
EndChar

StartChar: Idotaccent
Encoding: 304 304 132
Width: 600
Flags: MW
HStem: 0 37<46 222 54 222 265 428> 622 37<178 339 170 562 382 382 382 554>
VStem: 353 75<753.5 769>
LayerCount: 2
Fore
SplineSet
46 0 m 1
 54 37 l 1
 222 37 l 1
 339 622 l 1
 170 622 l 1
 178 659 l 1
 562 659 l 1
 554 622 l 1
 382 622 l 1
 265 37 l 1
 436 37 l 1
 428 0 l 1
 46 0 l 1
386 723 m 0
 368 723 353 736 353 756 c 0
 353 782 373 801 395 801 c 0
 413 801 428 787 428 766 c 0
 428 741 408 723 386 723 c 0
EndSplineSet
EndChar

StartChar: uni01CF
Encoding: 463 463 133
Width: 600
Flags: MW
HStem: 0 37<46 222 54 222 265 428> 622 37<178 339 170 562 382 382 382 554> 709 34<362 389 385 389 385 406>
VStem: 46 516
LayerCount: 2
Fore
SplineSet
46 0 m 1
 54 37 l 1
 222 37 l 1
 339 622 l 1
 170 622 l 1
 178 659 l 1
 562 659 l 1
 554 622 l 1
 382 622 l 1
 265 37 l 1
 436 37 l 1
 428 0 l 1
 46 0 l 1
362 709 m 1
 268 825 l 1
 290 842 l 1
 385 743 l 1
 389 743 l 1
 521 844 l 1
 541 824 l 1
 406 709 l 1
 362 709 l 1
EndSplineSet
EndChar

StartChar: Iogonek
Encoding: 302 302 134
Width: 600
GlyphClass: 2
Flags: MW
HStem: -224 33<206.5 228.5> 0 37<54 220 46 222 265 428> 622 37<178 339 170 562 382 382 382 554>
VStem: 125 37<-157 -120>
AnchorPoint: "Anchor-0" 374 679 basechar 0
LayerCount: 2
Fore
SplineSet
212 -224 m 0
 168 -224 125 -203 125 -151 c 0
 125 -89 176 -33 220 0 c 1
 46 0 l 1
 54 37 l 1
 222 37 l 1
 339 622 l 1
 170 622 l 1
 178 659 l 1
 562 659 l 1
 554 622 l 1
 382 622 l 1
 265 37 l 1
 436 37 l 1
 428 0 l 1
 262 0 l 1
 203 -38 162 -93 162 -139 c 0
 162 -175 189 -191 224 -191 c 0
 245 -191 262 -183 277 -172 c 1
 291 -196 l 1
 272 -212 245 -224 212 -224 c 0
EndSplineSet
Ligature2: "'ccmp' Glyph Composition/Decomposition lookup 12 subtable" I uni0328
EndChar

StartChar: uni1EC8
Encoding: 7880 7880 135
Width: 600
Flags: MW
HStem: 0 37<46 222 54 222 265 428> 622 37<178 339 170 562 382 382 382 554> 831 32<331 340>
VStem: 407 41
LayerCount: 2
Fore
SplineSet
46 0 m 1
 54 37 l 1
 222 37 l 1
 339 622 l 1
 170 622 l 1
 178 659 l 1
 562 659 l 1
 554 622 l 1
 382 622 l 1
 265 37 l 1
 436 37 l 1
 428 0 l 1
 46 0 l 1
337 702 m 1
 334 729 l 1
 372 740 403 755 407 783 c 0
 412 814 384 829 331 831 c 1
 340 863 l 1
 406 861 456 839 448 789 c 0
 438 737 387 715 337 702 c 1
EndSplineSet
EndChar

StartChar: uni1ECA
Encoding: 7882 7882 136
Width: 600
Flags: MW
HStem: -227 21G<187 212.5> -227 93<197 212.5> 0 37<46 222 54 222 265 428> 622 37<178 339 170 562 382 382 382 554>
VStem: 159 91<-188 -173.5>
LayerCount: 2
Fore
SplineSet
46 0 m 1xb8
 54 37 l 1
 222 37 l 1
 339 622 l 1
 170 622 l 1
 178 659 l 1
 562 659 l 1
 554 622 l 1
 382 622 l 1
 265 37 l 1
 436 37 l 1
 428 0 l 1
 46 0 l 1xb8
199 -227 m 0
 175 -227 159 -212 159 -188 c 0
 159 -159 184 -134 210 -134 c 0x78
 235 -134 250 -150 250 -173 c 0
 250 -203 226 -227 199 -227 c 0
EndSplineSet
EndChar

StartChar: Ibreve
Encoding: 300 300 137
Width: 600
Flags: MW
HStem: 0 37<46 222 54 222 265 428> 622 37<178 339 170 562 382 382 382 554> 710 33<353 417 353 423>
VStem: 266 33<835 840>
LayerCount: 2
Fore
SplineSet
46 0 m 1
 54 37 l 1
 222 37 l 1
 339 622 l 1
 170 622 l 1
 178 659 l 1
 562 659 l 1
 554 622 l 1
 382 622 l 1
 265 37 l 1
 436 37 l 1
 428 0 l 1
 46 0 l 1
378 710 m 0
 291 710 262 775 266 835 c 1
 299 840 l 1
 296 789 321 743 385 743 c 0
 449 743 488 789 506 840 c 1
 538 835 l 1
 521 775 468 710 378 710 c 0
EndSplineSet
EndChar

StartChar: Jcircumflex
Encoding: 308 308 138
Width: 600
Flags: MW
HStem: -12 37<172 257 172 267.5> 622 37<194 472 186 523> 706 20G<234 234 507 507> 808 34<386 390 386 386>
VStem: 33 490
LayerCount: 2
Fore
SplineSet
201 -12 m 0
 121 -12 62 33 33 84 c 1
 63 108 l 1
 94 56 139 25 205 25 c 0
 309 25 366 90 391 217 c 2
 472 622 l 1
 186 622 l 1
 194 659 l 1
 523 659 l 1
 433 211 l 2
 403 64 334 -12 201 -12 c 0
254 707 m 1
 234 726 l 1
 369 842 l 1
 413 842 l 1
 507 726 l 1
 485 709 l 1
 390 808 l 1
 386 808 l 1
 254 707 l 1
EndSplineSet
EndChar

StartChar: uni0136
Encoding: 310 310 139
Width: 600
Flags: MW
HStem: -219 28<176 177> -88 27<231 245> 0 21G<58 101 58 58 464 511 464 464>
VStem: 298 39<-149 -118.5>
LayerCount: 2
Fore
SplineSet
605 659 m 1
 323 395 l 1
 511 0 l 1
 464 0 l 1
 292 366 l 1
 147 229 l 1
 101 0 l 1
 58 0 l 1
 190 659 l 1
 233 659 l 1
 159 292 l 1
 163 292 l 1
 553 659 l 1
 605 659 l 1
177 -219 m 1
 176 -191 l 1
 257 -188 298 -165 298 -133 c 0
 298 -104 276 -92 231 -88 c 1
 245 -61 l 1
 320 -70 337 -89 337 -124 c 0
 337 -184 271 -217 177 -219 c 1
EndSplineSet
EndChar

StartChar: uni1E32
Encoding: 7730 7730 140
Width: 600
Flags: MW
HStem: -227 21G<249 274.5> -227 93<259 274.5> 0 21G<58 101 58 58 464 511 464 464>
VStem: 221 91<-188 -173.5>
LayerCount: 2
Fore
SplineSet
605 659 m 1xb0
 323 395 l 1
 511 0 l 1
 464 0 l 1
 292 366 l 1
 147 229 l 1
 101 0 l 1
 58 0 l 1
 190 659 l 1
 233 659 l 1
 159 292 l 1
 163 292 l 1
 553 659 l 1
 605 659 l 1xb0
261 -227 m 0
 237 -227 221 -212 221 -188 c 0
 221 -159 246 -134 272 -134 c 0x70
 297 -134 312 -150 312 -173 c 0
 312 -203 288 -227 261 -227 c 0
EndSplineSet
EndChar

StartChar: uni1E34
Encoding: 7732 7732 141
Width: 600
Flags: MW
HStem: -183 34<147 390 152 385> 0 21G<58 101 58 58 464 511 464 464>
VStem: 58 547
LayerCount: 2
Fore
SplineSet
605 659 m 1
 323 395 l 1
 511 0 l 1
 464 0 l 1
 292 366 l 1
 147 229 l 1
 101 0 l 1
 58 0 l 1
 190 659 l 1
 233 659 l 1
 159 292 l 1
 163 292 l 1
 553 659 l 1
 605 659 l 1
147 -183 m 1
 152 -149 l 1
 390 -149 l 1
 385 -183 l 1
 147 -183 l 1
EndSplineSet
EndChar

StartChar: Lacute
Encoding: 313 313 142
Width: 600
Flags: MW
HStem: 0 37<170 506>
VStem: 119 395<0 37>
LayerCount: 2
Fore
SplineSet
119 0 m 1
 250 659 l 1
 293 659 l 1
 170 37 l 1
 514 37 l 1
 506 0 l 1
 119 0 l 1
273 712 m 1
 256 736 l 1
 403 848 l 1
 426 813 l 1
 273 712 l 1
EndSplineSet
EndChar

StartChar: Lcaron
Encoding: 317 317 143
Width: 600
Flags: MW
HStem: 0 37<170 506>
VStem: 119 397
LayerCount: 2
Fore
SplineSet
119 0 m 1
 250 659 l 1
 293 659 l 1
 170 37 l 1
 514 37 l 1
 506 0 l 1
 119 0 l 1
427 544 m 1
 476 809 l 1
 516 809 l 1
 501 738 l 1
 455 544 l 1
 427 544 l 1
EndSplineSet
EndChar

StartChar: uni013B
Encoding: 315 315 144
Width: 600
Flags: MW
HStem: -219 28<196 197> -88 27<251 265> 0 37<170 506>
VStem: 318 39<-149 -118.5>
LayerCount: 2
Fore
SplineSet
119 0 m 1
 250 659 l 1
 293 659 l 1
 170 37 l 1
 514 37 l 1
 506 0 l 1
 119 0 l 1
197 -219 m 1
 196 -191 l 1
 277 -188 318 -165 318 -133 c 0
 318 -104 296 -92 251 -88 c 1
 265 -61 l 1
 340 -70 357 -89 357 -124 c 0
 357 -184 291 -217 197 -219 c 1
EndSplineSet
EndChar

StartChar: uni1E36
Encoding: 7734 7734 145
Width: 600
Flags: MW
HStem: -227 21G<269 294.5> -227 93<279 294.5> 0 37<170 506>
VStem: 241 91<-188 -173.5>
LayerCount: 2
Fore
SplineSet
119 0 m 1xb0
 250 659 l 1
 293 659 l 1
 170 37 l 1
 514 37 l 1
 506 0 l 1
 119 0 l 1xb0
281 -227 m 0
 257 -227 241 -212 241 -188 c 0
 241 -159 266 -134 292 -134 c 0x70
 317 -134 332 -150 332 -173 c 0
 332 -203 308 -227 281 -227 c 0
EndSplineSet
EndChar

StartChar: uni1E38
Encoding: 7736 7736 146
Width: 600
Flags: MW
HStem: -227 21G<269 294.5> -227 93<279 294.5> 0 37<170 506> 734 34<171 416 179 408>
VStem: 241 91<-188 -173.5>
LayerCount: 2
Fore
SplineSet
119 0 m 1xb8
 250 659 l 1
 293 659 l 1
 170 37 l 1
 514 37 l 1
 506 0 l 1
 119 0 l 1xb8
171 734 m 1
 179 768 l 1
 416 768 l 1
 408 734 l 1
 171 734 l 1
281 -227 m 0
 257 -227 241 -212 241 -188 c 0
 241 -159 266 -134 292 -134 c 0x78
 317 -134 332 -150 332 -173 c 0
 332 -203 308 -227 281 -227 c 0
EndSplineSet
EndChar

StartChar: uni1E3A
Encoding: 7738 7738 147
Width: 600
Flags: MW
HStem: -183 34<167 410 172 405> 0 37<170 506>
VStem: 119 395<0 37>
LayerCount: 2
Fore
SplineSet
119 0 m 1
 250 659 l 1
 293 659 l 1
 170 37 l 1
 514 37 l 1
 506 0 l 1
 119 0 l 1
167 -183 m 1
 172 -149 l 1
 410 -149 l 1
 405 -183 l 1
 167 -183 l 1
EndSplineSet
EndChar

StartChar: Lslash
Encoding: 321 321 148
Width: 600
GlyphClass: 2
Flags: MW
HStem: 0 37<170 506>
VStem: 63 451<37 244>
AnchorPoint: "Anchor-3" 316 -20 basechar 0
AnchorPoint: "Anchor-0" 279 679 basechar 0
LayerCount: 2
Fore
SplineSet
75 213 m 1
 63 244 l 1
 178 297 l 1
 250 659 l 1
 293 659 l 1
 225 317 l 1
 462 430 l 1
 475 398 l 1
 218 277 l 1
 170 37 l 1
 514 37 l 1
 506 0 l 1
 119 0 l 1
 170 257 l 1
 75 213 l 1
EndSplineSet
EndChar

StartChar: Ldot
Encoding: 319 319 149
Width: 600
Flags: MW
HStem: 0 37<170 506> 296 93<487 502.5>
VStem: 449 91<335 349.5>
LayerCount: 2
Fore
SplineSet
119 0 m 1
 250 659 l 1
 293 659 l 1
 170 37 l 1
 514 37 l 1
 506 0 l 1
 119 0 l 1
489 296 m 0
 465 296 449 311 449 335 c 0
 449 364 474 389 500 389 c 0
 525 389 540 373 540 350 c 0
 540 320 516 296 489 296 c 0
EndSplineSet
EndChar

StartChar: uni1E3E
Encoding: 7742 7742 150
Width: 600
Flags: MW
HStem: 0 21G<26 26 26 67 408 408 408 450> 180 51<280 284 280 293 254 284> 610 49<184 188 184 184 533 537 533 533>
VStem: 26 555
LayerCount: 2
Fore
SplineSet
26 0 m 1
 158 659 l 1
 215 659 l 1
 269 326 l 1
 280 231 l 1
 284 231 l 1
 333 326 l 1
 524 659 l 1
 581 659 l 1
 450 0 l 1
 408 0 l 1
 503 470 l 2
 511 513 525 566 537 610 c 1
 533 610 l 1
 518 579 496 536 473 496 c 2
 293 180 l 1
 254 180 l 1
 205 495 l 2
 200 525 192 578 188 610 c 1
 184 610 l 1
 177 565 170 512 162 473 c 2
 67 0 l 1
 26 0 l 1
368 712 m 1
 351 736 l 1
 498 848 l 1
 521 813 l 1
 368 712 l 1
EndSplineSet
EndChar

StartChar: uni1E40
Encoding: 7744 7744 151
Width: 600
Flags: MW
HStem: 0 21G<26 26 26 67 408 408 408 450> 180 51<280 284 280 293 254 284> 610 49<184 188 184 184 533 537 533 533>
VStem: 353 75<753.5 769>
LayerCount: 2
Fore
SplineSet
26 0 m 1
 158 659 l 1
 215 659 l 1
 269 326 l 1
 280 231 l 1
 284 231 l 1
 333 326 l 1
 524 659 l 1
 581 659 l 1
 450 0 l 1
 408 0 l 1
 503 470 l 2
 511 513 525 566 537 610 c 1
 533 610 l 1
 518 579 496 536 473 496 c 2
 293 180 l 1
 254 180 l 1
 205 495 l 2
 200 525 192 578 188 610 c 1
 184 610 l 1
 177 565 170 512 162 473 c 2
 67 0 l 1
 26 0 l 1
386 723 m 0
 368 723 353 736 353 756 c 0
 353 782 373 801 395 801 c 0
 413 801 428 787 428 766 c 0
 428 741 408 723 386 723 c 0
EndSplineSet
EndChar

StartChar: uni1E42
Encoding: 7746 7746 152
Width: 600
Flags: MW
HStem: -227 21G<187 212.5> -227 93<197 212.5> 0 21G<26 26 26 67 408 408 408 450> 180 51<280 284 280 293 254 284> 610 49<184 188 184 184 533 537 533 533>
VStem: 159 91<-188 -173.5>
LayerCount: 2
Fore
SplineSet
26 0 m 1xbc
 158 659 l 1
 215 659 l 1
 269 326 l 1
 280 231 l 1
 284 231 l 1
 333 326 l 1
 524 659 l 1
 581 659 l 1
 450 0 l 1
 408 0 l 1
 503 470 l 2
 511 513 525 566 537 610 c 1
 533 610 l 1
 518 579 496 536 473 496 c 2
 293 180 l 1
 254 180 l 1
 205 495 l 2
 200 525 192 578 188 610 c 1
 184 610 l 1
 177 565 170 512 162 473 c 2
 67 0 l 1
 26 0 l 1xbc
199 -227 m 0
 175 -227 159 -212 159 -188 c 0
 159 -159 184 -134 210 -134 c 0x7c
 235 -134 250 -150 250 -173 c 0
 250 -203 226 -227 199 -227 c 0
EndSplineSet
EndChar

StartChar: Nacute
Encoding: 323 323 153
Width: 600
Flags: MW
HStem: 0 57<402 423 419 423 419 446> 602 57<188 192 188 188>
VStem: 33 545
LayerCount: 2
Fore
SplineSet
33 0 m 1
 165 659 l 1
 210 659 l 1
 376 189 l 1
 419 57 l 1
 423 57 l 1
 433 120 443 185 455 243 c 2
 536 659 l 1
 578 659 l 1
 446 0 l 1
 402 0 l 1
 236 470 l 1
 192 602 l 1
 188 602 l 1
 178 539 168 477 156 414 c 2
 75 0 l 1
 33 0 l 1
372 712 m 1
 355 736 l 1
 502 848 l 1
 525 813 l 1
 372 712 l 1
EndSplineSet
EndChar

StartChar: uni01F8
Encoding: 504 504 154
Width: 600
Flags: MW
HStem: 0 57<402 423 419 423 419 446> 602 57<188 192 188 188> 703 20G<429 429>
VStem: 33 545
LayerCount: 2
Fore
SplineSet
33 0 m 1
 165 659 l 1
 210 659 l 1
 376 189 l 1
 419 57 l 1
 423 57 l 1
 433 120 443 185 455 243 c 2
 536 659 l 1
 578 659 l 1
 446 0 l 1
 402 0 l 1
 236 470 l 1
 192 602 l 1
 188 602 l 1
 178 539 168 477 156 414 c 2
 75 0 l 1
 33 0 l 1
406 702 m 1
 289 826 l 1
 322 854 l 1
 429 723 l 1
 406 702 l 1
EndSplineSet
EndChar

StartChar: Ncaron
Encoding: 327 327 155
Width: 600
Flags: MW
HStem: 0 57<402 423 419 423 419 446> 602 57<188 192 188 188> 709 34<366 393 389 393 389 410>
VStem: 33 545
LayerCount: 2
Fore
SplineSet
33 0 m 1
 165 659 l 1
 210 659 l 1
 376 189 l 1
 419 57 l 1
 423 57 l 1
 433 120 443 185 455 243 c 2
 536 659 l 1
 578 659 l 1
 446 0 l 1
 402 0 l 1
 236 470 l 1
 192 602 l 1
 188 602 l 1
 178 539 168 477 156 414 c 2
 75 0 l 1
 33 0 l 1
366 709 m 1
 272 825 l 1
 294 842 l 1
 389 743 l 1
 393 743 l 1
 525 844 l 1
 545 824 l 1
 410 709 l 1
 366 709 l 1
EndSplineSet
EndChar

StartChar: Ntilde
Encoding: 209 209 156
Width: 600
Flags: MW
HStem: 0 57<402 423 419 423 419 446> 602 57<188 192 188 188> 704 20G<228 228> 718 36<442 482.5 442 488> 799 35<313 353.5>
VStem: 33 545
LayerCount: 2
Fore
SplineSet
33 0 m 1xec
 165 659 l 1
 210 659 l 1
 376 189 l 1
 419 57 l 1
 423 57 l 1
 433 120 443 185 455 243 c 2
 536 659 l 1
 578 659 l 1
 446 0 l 1
 402 0 l 1
 236 470 l 1
 192 602 l 1
 188 602 l 1
 178 539 168 477 156 414 c 2
 75 0 l 1
 33 0 l 1xec
461 718 m 0xdc
 393 718 379 799 328 799 c 0
 298 799 273 769 259 721 c 1
 228 724 l 1xec
 240 789 281 834 335 834 c 0
 403 834 416 754 468 754 c 0
 497 754 521 784 537 832 c 1
 567 829 l 1
 556 764 515 718 461 718 c 0xdc
EndSplineSet
EndChar

StartChar: uni0145
Encoding: 325 325 157
Width: 600
Flags: MW
HStem: -219 28<130 131> -88 27<185 199> 0 57<402 423 419 423 419 446> 602 57<188 192 188 188>
VStem: 252 39<-149 -118.5>
LayerCount: 2
Fore
SplineSet
33 0 m 1
 165 659 l 1
 210 659 l 1
 376 189 l 1
 419 57 l 1
 423 57 l 1
 433 120 443 185 455 243 c 2
 536 659 l 1
 578 659 l 1
 446 0 l 1
 402 0 l 1
 236 470 l 1
 192 602 l 1
 188 602 l 1
 178 539 168 477 156 414 c 2
 75 0 l 1
 33 0 l 1
131 -219 m 1
 130 -191 l 1
 211 -188 252 -165 252 -133 c 0
 252 -104 230 -92 185 -88 c 1
 199 -61 l 1
 274 -70 291 -89 291 -124 c 0
 291 -184 225 -217 131 -219 c 1
EndSplineSet
EndChar

StartChar: uni1E44
Encoding: 7748 7748 158
Width: 600
Flags: MW
HStem: 0 57<402 423 419 423 419 446> 602 57<188 192 188 188>
VStem: 357 75<753.5 769>
LayerCount: 2
Fore
SplineSet
33 0 m 1
 165 659 l 1
 210 659 l 1
 376 189 l 1
 419 57 l 1
 423 57 l 1
 433 120 443 185 455 243 c 2
 536 659 l 1
 578 659 l 1
 446 0 l 1
 402 0 l 1
 236 470 l 1
 192 602 l 1
 188 602 l 1
 178 539 168 477 156 414 c 2
 75 0 l 1
 33 0 l 1
390 723 m 0
 372 723 357 736 357 756 c 0
 357 782 377 801 399 801 c 0
 417 801 432 787 432 766 c 0
 432 741 412 723 390 723 c 0
EndSplineSet
EndChar

StartChar: uni1E46
Encoding: 7750 7750 159
Width: 600
Flags: MW
HStem: -227 21G<203 228.5> -227 93<213 228.5> 0 57<402 423 419 423 419 446> 602 57<188 192 188 188>
VStem: 175 91<-188 -173.5>
LayerCount: 2
Fore
SplineSet
33 0 m 1xb8
 165 659 l 1
 210 659 l 1
 376 189 l 1
 419 57 l 1
 423 57 l 1
 433 120 443 185 455 243 c 2
 536 659 l 1
 578 659 l 1
 446 0 l 1
 402 0 l 1
 236 470 l 1
 192 602 l 1
 188 602 l 1
 178 539 168 477 156 414 c 2
 75 0 l 1
 33 0 l 1xb8
215 -227 m 0
 191 -227 175 -212 175 -188 c 0
 175 -159 200 -134 226 -134 c 0x78
 251 -134 266 -150 266 -173 c 0
 266 -203 242 -227 215 -227 c 0
EndSplineSet
EndChar

StartChar: uni1E48
Encoding: 7752 7752 160
Width: 600
Flags: MW
HStem: -183 34<101 344 106 339> 0 57<402 423 419 423 419 446> 602 57<188 192 188 188>
VStem: 33 545
LayerCount: 2
Fore
SplineSet
33 0 m 1
 165 659 l 1
 210 659 l 1
 376 189 l 1
 419 57 l 1
 423 57 l 1
 433 120 443 185 455 243 c 2
 536 659 l 1
 578 659 l 1
 446 0 l 1
 402 0 l 1
 236 470 l 1
 192 602 l 1
 188 602 l 1
 178 539 168 477 156 414 c 2
 75 0 l 1
 33 0 l 1
101 -183 m 1
 106 -149 l 1
 344 -149 l 1
 339 -183 l 1
 101 -183 l 1
EndSplineSet
EndChar

StartChar: Ograve
Encoding: 210 210 161
Width: 600
Flags: MW
HStem: -12 37<202.5 342.5 202.5 353> 634 37<267.5 407.5> 703 20G<425 425>
VStem: 48 43<180 331.5 180 343> 519 43<327.5 479>
LayerCount: 2
Fore
SplineSet
255 -12 m 0
 123 -12 48 93 48 243 c 0
 48 443 159 671 354 671 c 0
 487 671 562 566 562 416 c 0
 562 216 451 -12 255 -12 c 0
259 25 m 0
 426 25 519 241 519 414 c 0
 519 544 464 634 351 634 c 0
 184 634 91 418 91 245 c 0
 91 115 146 25 259 25 c 0
402 702 m 1
 285 826 l 1
 318 854 l 1
 425 723 l 1
 402 702 l 1
EndSplineSet
EndChar

StartChar: Oacute
Encoding: 211 211 162
Width: 600
Flags: MW
HStem: -12 37<202.5 342.5 202.5 353> 634 37<267.5 407.5>
VStem: 48 43<180 331.5 180 343> 519 43<327.5 479>
LayerCount: 2
Fore
SplineSet
255 -12 m 0
 123 -12 48 93 48 243 c 0
 48 443 159 671 354 671 c 0
 487 671 562 566 562 416 c 0
 562 216 451 -12 255 -12 c 0
259 25 m 0
 426 25 519 241 519 414 c 0
 519 544 464 634 351 634 c 0
 184 634 91 418 91 245 c 0
 91 115 146 25 259 25 c 0
368 712 m 1
 351 736 l 1
 498 848 l 1
 521 813 l 1
 368 712 l 1
EndSplineSet
EndChar

StartChar: Ocircumflex
Encoding: 212 212 163
Width: 600
Flags: MW
HStem: -12 37<202.5 342.5 202.5 353> 634 37<267.5 407.5> 706 20G<245 245 518 518> 808 34<397 401 397 397>
VStem: 48 43<180 331.5 180 343> 519 43<327.5 479>
LayerCount: 2
Fore
SplineSet
255 -12 m 0
 123 -12 48 93 48 243 c 0
 48 443 159 671 354 671 c 0
 487 671 562 566 562 416 c 0
 562 216 451 -12 255 -12 c 0
259 25 m 0
 426 25 519 241 519 414 c 0
 519 544 464 634 351 634 c 0
 184 634 91 418 91 245 c 0
 91 115 146 25 259 25 c 0
265 707 m 1
 245 726 l 1
 380 842 l 1
 424 842 l 1
 518 726 l 1
 496 709 l 1
 401 808 l 1
 397 808 l 1
 265 707 l 1
EndSplineSet
MultipleSubs2: "Multiple Substitution lookup 8 subtable" O uni0302
EndChar

StartChar: Otilde
Encoding: 213 213 164
Width: 600
Flags: MW
HStem: -12 37<202.5 342.5 202.5 353> 634 37<267.5 407.5> 704 20G<224 224> 718 36<438 478.5 438 484> 799 35<309 349.5>
VStem: 48 43<180 331.5 180 343> 519 43<327.5 479>
LayerCount: 2
Fore
SplineSet
255 -12 m 0xee
 123 -12 48 93 48 243 c 0
 48 443 159 671 354 671 c 0
 487 671 562 566 562 416 c 0
 562 216 451 -12 255 -12 c 0xee
259 25 m 0
 426 25 519 241 519 414 c 0
 519 544 464 634 351 634 c 0
 184 634 91 418 91 245 c 0
 91 115 146 25 259 25 c 0
457 718 m 0xde
 389 718 375 799 324 799 c 0
 294 799 269 769 255 721 c 1
 224 724 l 1xee
 236 789 277 834 331 834 c 0
 399 834 412 754 464 754 c 0
 493 754 517 784 533 832 c 1
 563 829 l 1
 552 764 511 718 457 718 c 0xde
EndSplineSet
EndChar

StartChar: Odieresis
Encoding: 214 214 165
Width: 600
GlyphClass: 2
Flags: MW
HStem: -12 37<202.5 342.5 202.5 353> 634 37<267.5 407.5>
VStem: 48 43<180 331.5 180 343> 271 67<753 765> 443 66<753 765> 519 43<327.5 479>
AnchorPoint: "Anchor-6" 238 0 basechar 0
LayerCount: 2
Fore
SplineSet
255 -12 m 0
 123 -12 48 93 48 243 c 0
 48 443 159 671 354 671 c 0
 487 671 562 566 562 416 c 0
 562 216 451 -12 255 -12 c 0
259 25 m 0
 426 25 519 241 519 414 c 0
 519 544 464 634 351 634 c 0
 184 634 91 418 91 245 c 0
 91 115 146 25 259 25 c 0
301 723 m 0
 283 723 271 734 271 753 c 0
 271 777 289 795 308 795 c 0
 326 795 338 784 338 764 c 0
 338 742 320 723 301 723 c 0
472 723 m 0xfc
 454 723 443 734 443 753 c 0
 443 777 460 795 480 795 c 0
 497 795 509 784 509 764 c 0
 509 742 492 723 472 723 c 0xfc
EndSplineSet
EndChar

StartChar: Omacron
Encoding: 332 332 166
Width: 600
Flags: MW
HStem: -12 37<202.5 342.5 202.5 353> 634 37<267.5 407.5> 734 34<266 511 274 503>
VStem: 48 43<180 331.5 180 343> 519 43<327.5 479>
LayerCount: 2
Fore
SplineSet
255 -12 m 0
 123 -12 48 93 48 243 c 0
 48 443 159 671 354 671 c 0
 487 671 562 566 562 416 c 0
 562 216 451 -12 255 -12 c 0
259 25 m 0
 426 25 519 241 519 414 c 0
 519 544 464 634 351 634 c 0
 184 634 91 418 91 245 c 0
 91 115 146 25 259 25 c 0
266 734 m 1
 274 768 l 1
 511 768 l 1
 503 734 l 1
 266 734 l 1
EndSplineSet
MultipleSubs2: "Multiple Substitution lookup 8 subtable" O uni0304
EndChar

StartChar: Ohungarumlaut
Encoding: 336 336 167
Width: 600
Flags: MW
HStem: -12 37<202.5 342.5 202.5 353> 634 37<267.5 407.5> 707 20G<300 300 444 444>
VStem: 48 43<180 331.5 180 343> 519 43<327.5 479>
LayerCount: 2
Fore
SplineSet
255 -12 m 0
 123 -12 48 93 48 243 c 0
 48 443 159 671 354 671 c 0
 487 671 562 566 562 416 c 0
 562 216 451 -12 255 -12 c 0
259 25 m 0
 426 25 519 241 519 414 c 0
 519 544 464 634 351 634 c 0
 184 634 91 418 91 245 c 0
 91 115 146 25 259 25 c 0
324 712 m 1
 300 727 l 1
 414 865 l 1
 444 842 l 1
 324 712 l 1
468 712 m 1
 444 727 l 1
 558 865 l 1
 588 842 l 1
 468 712 l 1
EndSplineSet
EndChar

StartChar: Obreve
Encoding: 334 334 168
Width: 600
Flags: MW
HStem: -12 37<202.5 342.5 202.5 353> 634 37<267.5 407.5> 710 33<353 417 353 423>
VStem: 48 43<180 331.5 180 343> 266 33<835 840> 519 43<327.5 479>
LayerCount: 2
Fore
SplineSet
255 -12 m 0
 123 -12 48 93 48 243 c 0
 48 443 159 671 354 671 c 0
 487 671 562 566 562 416 c 0
 562 216 451 -12 255 -12 c 0
259 25 m 0
 426 25 519 241 519 414 c 0
 519 544 464 634 351 634 c 0
 184 634 91 418 91 245 c 0
 91 115 146 25 259 25 c 0
378 710 m 0
 291 710 262 775 266 835 c 1
 299 840 l 1
 296 789 321 743 385 743 c 0
 449 743 488 789 506 840 c 1
 538 835 l 1
 521 775 468 710 378 710 c 0
EndSplineSet
EndChar

StartChar: uni01D1
Encoding: 465 465 169
Width: 600
Flags: MW
HStem: -12 37<202.5 342.5 202.5 353> 634 37<267.5 407.5> 709 34<362 389 385 389 385 406>
VStem: 48 43<180 331.5 180 343> 519 43<327.5 479>
LayerCount: 2
Fore
SplineSet
255 -12 m 0
 123 -12 48 93 48 243 c 0
 48 443 159 671 354 671 c 0
 487 671 562 566 562 416 c 0
 562 216 451 -12 255 -12 c 0
259 25 m 0
 426 25 519 241 519 414 c 0
 519 544 464 634 351 634 c 0
 184 634 91 418 91 245 c 0
 91 115 146 25 259 25 c 0
362 709 m 1
 268 825 l 1
 290 842 l 1
 385 743 l 1
 389 743 l 1
 521 844 l 1
 541 824 l 1
 406 709 l 1
 362 709 l 1
EndSplineSet
EndChar

StartChar: uni01EA
Encoding: 490 490 170
Width: 600
GlyphClass: 2
Flags: MW
HStem: -224 33<204.5 227> -10 35 634 37<267.5 407.5>
VStem: 48 43<180 331.5 180 343> 123 37<-157 -123> 519 43<327 479>
AnchorPoint: "Anchor-0" 374 679 basechar 0
LayerCount: 2
Fore
SplineSet
211 -224 m 0
 166 -224 123 -203 123 -151 c 0
 123 -95 171 -40 225 -10 c 1
 128 0 48 86 48 243 c 0
 48 443 159 671 354 671 c 0
 487 671 562 566 562 416 c 0
 562 221 464 27 301 -8 c 0
 204 -28 160 -102 160 -139 c 0
 160 -175 187 -191 222 -191 c 0
 243 -191 260 -183 275 -172 c 1
 289 -196 l 1
 270 -212 243 -224 211 -224 c 0
259 25 m 0
 426 25 519 240 519 414 c 0
 519 544 464 634 351 634 c 0
 184 634 91 418 91 245 c 0
 91 115 146 25 259 25 c 0
EndSplineSet
Ligature2: "'ccmp' Glyph Composition/Decomposition lookup 12 subtable" O uni0328
EndChar

StartChar: uni1ECC
Encoding: 7884 7884 171
Width: 600
Flags: MW
HStem: -227 21G<187 212.5> -227 93<197 212.5> -12 37<202.5 342.5 202.5 353> 634 37<267.5 407.5>
VStem: 48 43<180 331.5 180 343> 159 91<-188 -173.5> 519 43<327.5 479>
LayerCount: 2
Fore
SplineSet
255 -12 m 0xbe
 123 -12 48 93 48 243 c 0
 48 443 159 671 354 671 c 0
 487 671 562 566 562 416 c 0
 562 216 451 -12 255 -12 c 0xbe
259 25 m 0
 426 25 519 241 519 414 c 0
 519 544 464 634 351 634 c 0
 184 634 91 418 91 245 c 0
 91 115 146 25 259 25 c 0
199 -227 m 0
 175 -227 159 -212 159 -188 c 0
 159 -159 184 -134 210 -134 c 0x7e
 235 -134 250 -150 250 -173 c 0
 250 -203 226 -227 199 -227 c 0
EndSplineSet
EndChar

StartChar: uni1ECE
Encoding: 7886 7886 172
Width: 600
Flags: MW
HStem: -12 37<202.5 342.5 202.5 353> 634 37<267.5 407.5> 831 32<331 340>
VStem: 48 43<180 331.5 180 343> 407 41 519 43<327.5 479>
LayerCount: 2
Fore
SplineSet
255 -12 m 0
 123 -12 48 93 48 243 c 0
 48 443 159 671 354 671 c 0
 487 671 562 566 562 416 c 0
 562 216 451 -12 255 -12 c 0
259 25 m 0
 426 25 519 241 519 414 c 0
 519 544 464 634 351 634 c 0
 184 634 91 418 91 245 c 0
 91 115 146 25 259 25 c 0
337 702 m 1
 334 729 l 1
 372 740 403 755 407 783 c 0
 412 814 384 829 331 831 c 1
 340 863 l 1
 406 861 456 839 448 789 c 0
 438 737 387 715 337 702 c 1
EndSplineSet
EndChar

StartChar: uni1ED0
Encoding: 7888 7888 173
Width: 600
Flags: MW
HStem: -12 37<202.5 342.5 202.5 353> 634 37<267.5 407.5> 704 20G<497 497> 706 20G<267 267> 775 35<393 397 393 393>
VStem: 48 43<180 331.5 180 343> 519 43<327.5 479>
LayerCount: 2
Fore
SplineSet
255 -12 m 0xde
 123 -12 48 93 48 243 c 0
 48 443 159 671 354 671 c 0
 487 671 562 566 562 416 c 0
 562 216 451 -12 255 -12 c 0xde
259 25 m 0
 426 25 519 241 519 414 c 0
 519 544 464 634 351 634 c 0
 184 634 91 418 91 245 c 0
 91 115 146 25 259 25 c 0
284 707 m 1
 267 726 l 1xde
 378 810 l 1
 418 810 l 1
 497 724 l 1xee
 476 707 l 1
 397 775 l 1
 393 775 l 1
 284 707 l 1
492 771 m 1
 475 793 l 1
 587 880 l 1
 608 851 l 1
 492 771 l 1
EndSplineSet
EndChar

StartChar: uni1ED2
Encoding: 7890 7890 174
Width: 600
Flags: MW
HStem: -12 37<202.5 342.5 202.5 353> 634 37<267.5 407.5> 704 20G<497 497> 706 20G<267 267> 775 35<393 397 393 393>
VStem: 48 43<180 331.5 180 343> 519 43<327.5 479>
LayerCount: 2
Fore
SplineSet
255 -12 m 0xde
 123 -12 48 93 48 243 c 0
 48 443 159 671 354 671 c 0
 487 671 562 566 562 416 c 0
 562 216 451 -12 255 -12 c 0xde
259 25 m 0
 426 25 519 241 519 414 c 0
 519 544 464 634 351 634 c 0
 184 634 91 418 91 245 c 0
 91 115 146 25 259 25 c 0
284 707 m 1
 267 726 l 1xde
 378 810 l 1
 418 810 l 1
 497 724 l 1xee
 476 707 l 1
 397 775 l 1
 393 775 l 1
 284 707 l 1
306 781 m 1
 220 863 l 1
 247 886 l 1
 328 799 l 1
 306 781 l 1
EndSplineSet
EndChar

StartChar: uni1ED4
Encoding: 7892 7892 175
Width: 600
Flags: MW
HStem: -12 37<202.5 342.5 202.5 353> 634 37<267.5 407.5> 704 20G<497 497> 706 20G<267 267> 775 35<393 397 393 393> 870 29<478 485>
VStem: 48 43<180 331.5 180 343> 519 43<327.5 479> 543 36
LayerCount: 2
Fore
SplineSet
255 -12 m 0xdf
 123 -12 48 93 48 243 c 0
 48 443 159 671 354 671 c 0
 487 671 562 566 562 416 c 0
 562 216 451 -12 255 -12 c 0xdf
259 25 m 0
 426 25 519 241 519 414 c 0
 519 544 464 634 351 634 c 0
 184 634 91 418 91 245 c 0
 91 115 146 25 259 25 c 0
284 707 m 1
 267 726 l 1xde80
 378 810 l 1
 418 810 l 1
 497 724 l 1xef
 476 707 l 1
 397 775 l 1
 393 775 l 1
 284 707 l 1
490 759 m 1
 484 784 l 1
 515 791 539 803 543 826 c 0
 549 857 526 868 478 870 c 1
 485 899 l 1
 544 896 589 878 579 831 c 0
 573 786 528 768 490 759 c 1
EndSplineSet
EndChar

StartChar: uni1ED6
Encoding: 7894 7894 176
Width: 600
Flags: MW
HStem: -12 37<202.5 342.5 202.5 353> 634 37<267.5 407.5> 704 20G<497 497> 706 20G<267 267> 774 35<393 397 393 393> 840 32<452.5 490.5 452.5 498> 893 32<329.5 367.5>
VStem: 48 43<180 331.5 180 343> 519 43<327.5 479>
LayerCount: 2
Fore
SplineSet
255 -12 m 0xdb80
 123 -12 48 93 48 243 c 0
 48 443 159 671 354 671 c 0
 487 671 562 566 562 416 c 0
 562 216 451 -12 255 -12 c 0xdb80
259 25 m 0
 426 25 519 241 519 414 c 0
 519 544 464 634 351 634 c 0
 184 634 91 418 91 245 c 0
 91 115 146 25 259 25 c 0
284 707 m 1
 267 726 l 1xdf80
 378 809 l 1
 418 809 l 1
 497 724 l 1xeb80
 475 707 l 1
 397 774 l 1
 393 774 l 1
 284 707 l 1
471 840 m 0
 403 840 392 893 343 893 c 0
 316 893 302 873 292 842 c 1
 264 845 l 1
 272 882 294 925 348 925 c 0xdb80
 417 925 428 872 477 872 c 0
 504 872 517 892 527 923 c 1
 557 920 l 1
 548 883 525 840 471 840 c 0
EndSplineSet
EndChar

StartChar: uni1ED8
Encoding: 7896 7896 177
Width: 600
Flags: MW
HStem: -227 21G<187 212.5> -227 93<197 212.5> -12 37<202.5 342.5 202.5 353> 634 37<267.5 407.5> 706 20G<245 245 518 518> 808 34<397 401 397 397>
VStem: 48 43<180 331.5 180 343> 159 91<-188 -173.5> 519 43<327.5 479>
LayerCount: 2
Fore
SplineSet
255 -12 m 0xbf80
 123 -12 48 93 48 243 c 0
 48 443 159 671 354 671 c 0
 487 671 562 566 562 416 c 0
 562 216 451 -12 255 -12 c 0xbf80
259 25 m 0
 426 25 519 241 519 414 c 0
 519 544 464 634 351 634 c 0
 184 634 91 418 91 245 c 0
 91 115 146 25 259 25 c 0
265 707 m 1
 245 726 l 1
 380 842 l 1
 424 842 l 1
 518 726 l 1
 496 709 l 1
 401 808 l 1
 397 808 l 1
 265 707 l 1
199 -227 m 0
 175 -227 159 -212 159 -188 c 0
 159 -159 184 -134 210 -134 c 0x7f80
 235 -134 250 -150 250 -173 c 0
 250 -203 226 -227 199 -227 c 0
EndSplineSet
EndChar

StartChar: Ohorn
Encoding: 416 416 178
Width: 600
GlyphClass: 2
Flags: MW
HStem: -12 37<202.5 342.5 202.5 353> 634 37<267.5 374.5 256.5 407.5>
VStem: 48 43<180 331.5 180 343> 519 43<327.5 458.5 316 479> 573 41<712 748>
AnchorPoint: "Anchor-3" 234 -20 basechar 0
AnchorPoint: "Anchor-0" 374 679 basechar 0
LayerCount: 2
Fore
SplineSet
255 -12 m 0
 123 -12 48 93 48 243 c 0
 48 443 159 671 354 671 c 0
 395 671 430 661 459 643 c 1
 529 647 573 683 573 741 c 0
 573 755 571 771 564 789 c 1
 603 805 l 1
 611 783 614 766 614 748 c 0xf8
 614 671 558 630 492 617 c 1
 538 572 562 501 562 416 c 0
 562 216 451 -12 255 -12 c 0
259 25 m 0
 426 25 519 241 519 414 c 0
 519 544 464 634 351 634 c 0
 184 634 91 418 91 245 c 0
 91 115 146 25 259 25 c 0
EndSplineSet
EndChar

StartChar: uni1EDA
Encoding: 7898 7898 179
Width: 600
Flags: MW
HStem: -12 37<202.5 342.5 202.5 353> 634 37<267.5 374.5 256.5 407.5>
VStem: 48 43<180 331.5 180 343> 519 43<327.5 458.5 316 479> 573 41<712 748>
LayerCount: 2
Fore
SplineSet
255 -12 m 0
 123 -12 48 93 48 243 c 0
 48 443 159 671 354 671 c 0
 395 671 430 661 459 643 c 1
 529 647 573 683 573 741 c 0
 573 755 571 771 564 789 c 1
 603 805 l 1
 611 783 614 766 614 748 c 0xf8
 614 671 558 630 492 617 c 1
 538 572 562 501 562 416 c 0
 562 216 451 -12 255 -12 c 0
259 25 m 0
 426 25 519 241 519 414 c 0
 519 544 464 634 351 634 c 0
 184 634 91 418 91 245 c 0
 91 115 146 25 259 25 c 0
368 712 m 1
 351 736 l 1
 498 848 l 1
 521 813 l 1
 368 712 l 1
EndSplineSet
EndChar

StartChar: uni1EDC
Encoding: 7900 7900 180
Width: 600
Flags: MW
HStem: -12 37<202.5 342.5 202.5 353> 634 37<267.5 374.5 256.5 407.5> 703 20G<425 425>
VStem: 48 43<180 331.5 180 343> 519 43<327.5 458.5 316 479> 573 41<712 748>
LayerCount: 2
Fore
SplineSet
255 -12 m 0
 123 -12 48 93 48 243 c 0
 48 443 159 671 354 671 c 0
 395 671 430 661 459 643 c 1
 529 647 573 683 573 741 c 0
 573 755 571 771 564 789 c 1
 603 805 l 1
 611 783 614 766 614 748 c 0xfc
 614 671 558 630 492 617 c 1
 538 572 562 501 562 416 c 0
 562 216 451 -12 255 -12 c 0
259 25 m 0
 426 25 519 241 519 414 c 0
 519 544 464 634 351 634 c 0
 184 634 91 418 91 245 c 0
 91 115 146 25 259 25 c 0
402 702 m 1
 285 826 l 1
 318 854 l 1
 425 723 l 1
 402 702 l 1
EndSplineSet
EndChar

StartChar: uni1EDE
Encoding: 7902 7902 181
Width: 600
Flags: MW
HStem: -12 37<202.5 342.5 202.5 353> 634 37<267.5 374.5 256.5 407.5> 831 32<331 340>
VStem: 48 43<180 331.5 180 343> 407 41 519 43<327.5 458.5 316 479> 573 41<712 748>
LayerCount: 2
Fore
SplineSet
255 -12 m 0
 123 -12 48 93 48 243 c 0
 48 443 159 671 354 671 c 0
 395 671 430 661 459 643 c 1
 529 647 573 683 573 741 c 0
 573 755 571 771 564 789 c 1
 603 805 l 1
 611 783 614 766 614 748 c 0xf6
 614 671 558 630 492 617 c 1
 538 572 562 501 562 416 c 0
 562 216 451 -12 255 -12 c 0
259 25 m 0
 426 25 519 241 519 414 c 0
 519 544 464 634 351 634 c 0
 184 634 91 418 91 245 c 0
 91 115 146 25 259 25 c 0
337 702 m 1
 334 729 l 1
 372 740 403 755 407 783 c 0
 412 814 384 829 331 831 c 1
 340 863 l 1
 406 861 456 839 448 789 c 0xfc
 438 737 387 715 337 702 c 1
EndSplineSet
EndChar

StartChar: uni1EE0
Encoding: 7904 7904 182
Width: 600
Flags: MW
HStem: -12 37<202.5 342.5 202.5 353> 634 37<267.5 374.5 256.5 407.5> 704 20G<200 200> 718 36<414 454.5 414 460> 799 35<285 325.5>
VStem: 48 43<180 331.5 180 343> 519 43<327.5 458.5 316 479> 573 41<712 748>
LayerCount: 2
Fore
SplineSet
255 -12 m 0xee
 123 -12 48 93 48 243 c 0
 48 443 159 671 354 671 c 0
 395 671 430 661 459 643 c 1
 529 647 573 683 573 741 c 0
 573 755 571 771 564 789 c 1
 603 805 l 1
 611 783 614 766 614 748 c 0xef
 614 671 558 630 492 617 c 1
 538 572 562 501 562 416 c 0
 562 216 451 -12 255 -12 c 0xee
259 25 m 0
 426 25 519 241 519 414 c 0
 519 544 464 634 351 634 c 0
 184 634 91 418 91 245 c 0
 91 115 146 25 259 25 c 0
433 718 m 0xde
 365 718 351 799 300 799 c 0
 270 799 245 769 231 721 c 1
 200 724 l 1xee
 212 789 253 834 307 834 c 0
 375 834 388 754 440 754 c 0
 469 754 493 784 509 832 c 1
 539 829 l 1
 528 764 487 718 433 718 c 0xde
EndSplineSet
EndChar

StartChar: uni1EE2
Encoding: 7906 7906 183
Width: 600
Flags: MW
HStem: -227 21G<187 212.5> -227 93<197 212.5> -12 37<202.5 342.5 202.5 353> 634 37<267.5 374.5 256.5 407.5>
VStem: 48 43<180 331.5 180 343> 159 91<-188 -173.5> 519 43<327.5 458.5 316 479> 573 41<712 748>
LayerCount: 2
Fore
SplineSet
255 -12 m 0xba
 123 -12 48 93 48 243 c 0
 48 443 159 671 354 671 c 0
 395 671 430 661 459 643 c 1
 529 647 573 683 573 741 c 0
 573 755 571 771 564 789 c 1
 603 805 l 1
 611 783 614 766 614 748 c 0xbb
 614 671 558 630 492 617 c 1
 538 572 562 501 562 416 c 0
 562 216 451 -12 255 -12 c 0xba
259 25 m 0
 426 25 519 241 519 414 c 0
 519 544 464 634 351 634 c 0
 184 634 91 418 91 245 c 0
 91 115 146 25 259 25 c 0
199 -227 m 0xbe
 175 -227 159 -212 159 -188 c 0
 159 -159 184 -134 210 -134 c 0x7e
 235 -134 250 -150 250 -173 c 0
 250 -203 226 -227 199 -227 c 0xbe
EndSplineSet
EndChar

StartChar: uni1E52
Encoding: 7762 7762 184
Width: 600
Flags: MW
HStem: -12 37<202.5 342.5 202.5 353> 634 37<267.5 407.5> 734 34<266 511 274 503>
VStem: 48 43<180 331.5 180 343> 519 43<327.5 479>
LayerCount: 2
Fore
SplineSet
255 -12 m 0
 123 -12 48 93 48 243 c 0
 48 443 159 671 354 671 c 0
 487 671 562 566 562 416 c 0
 562 216 451 -12 255 -12 c 0
259 25 m 0
 426 25 519 241 519 414 c 0
 519 544 464 634 351 634 c 0
 184 634 91 418 91 245 c 0
 91 115 146 25 259 25 c 0
266 734 m 1
 274 768 l 1
 511 768 l 1
 503 734 l 1
 266 734 l 1
395 826 m 1
 376 846 l 1
 489 941 l 1
 515 914 l 1
 395 826 l 1
EndSplineSet
EndChar

StartChar: Oslash
Encoding: 216 216 185
Width: 600
GlyphClass: 2
Flags: MW
HStem: -12 37<228.5 342.5 228.5 353> -1 21G<-4 -4> 634 37<267.5 381.5>
VStem: 48 42<223 331.5 223 343> 519 43<327.5 435.5>
AnchorPoint: "Anchor-2" 238 0 basechar 0
AnchorPoint: "Anchor-0" 370 679 basechar 0
LayerCount: 2
Fore
SplineSet
255 -12 m 0xb8
 187 -12 134 16 98 64 c 1
 22 -24 l 1xb8
 -4 -1 l 1
 79 95 l 1x78
 59 136 48 186 48 243 c 0
 48 443 159 671 354 671 c 0
 423 671 476 643 512 595 c 1
 588 683 l 1
 614 660 l 1
 531 564 l 1
 551 523 562 473 562 416 c 0
 562 216 451 -12 255 -12 c 0xb8
90 245 m 0
 90 201 96 162 109 130 c 1
 484 563 l 1
 456 608 412 634 351 634 c 0
 184 634 90 418 90 245 c 0
259 25 m 0
 426 25 519 241 519 414 c 0
 519 457 513 496 501 529 c 1
 126 96 l 1
 154 51 198 25 259 25 c 0
EndSplineSet
EndChar

StartChar: Oslashacute
Encoding: 510 510 186
Width: 600
Flags: MW
HStem: -12 37<228.5 342.5 228.5 353> -1 21G<-4 -4> 634 37<267.5 381.5>
VStem: 48 42<223 331.5 223 343> 519 43<327.5 435.5>
LayerCount: 2
Fore
SplineSet
255 -12 m 0xb8
 187 -12 134 16 98 64 c 1
 22 -24 l 1xb8
 -4 -1 l 1
 79 95 l 1x78
 59 136 48 186 48 243 c 0
 48 443 159 671 354 671 c 0
 423 671 476 643 512 595 c 1
 588 683 l 1
 614 660 l 1
 531 564 l 1
 551 523 562 473 562 416 c 0
 562 216 451 -12 255 -12 c 0xb8
90 245 m 0
 90 201 96 162 109 130 c 1
 484 563 l 1
 456 608 412 634 351 634 c 0
 184 634 90 418 90 245 c 0
259 25 m 0
 426 25 519 241 519 414 c 0
 519 457 513 496 501 529 c 1
 126 96 l 1
 154 51 198 25 259 25 c 0
368 712 m 1
 351 736 l 1
 498 848 l 1
 521 813 l 1
 368 712 l 1
EndSplineSet
EndChar

StartChar: OE
Encoding: 338 338 187
Width: 600
GlyphClass: 2
Flags: MW
HStem: 0 37<308 526> 331 37<375 532 369 540> 622 37<426 642 426 426>
VStem: 35 44<185.5 349.5 185.5 362.5>
AnchorPoint: "Anchor-2" 360 0 basechar 0
AnchorPoint: "Anchor-0" 429 679 basechar 0
LayerCount: 2
Fore
SplineSet
263 0 m 2
 93 0 35 98 35 246 c 0
 35 479 169 659 386 659 c 2
 650 659 l 1
 642 622 l 1
 426 622 l 1
 375 368 l 1
 540 368 l 1
 532 331 l 1
 369 331 l 1
 308 37 l 1
 534 37 l 1
 526 0 l 1
 263 0 l 2
265 36 m 2
 269 36 l 1
 387 623 l 1
 382 623 l 2
 189 623 79 450 79 249 c 0
 79 122 122 36 265 36 c 2
EndSplineSet
EndChar

StartChar: Racute
Encoding: 340 340 188
Width: 600
Flags: MW
HStem: 0 21G<46 46 46 89 404 404 404 452> 301 36<157 272 272 282 149 272> 623 36<213 324 213 213>
VStem: 494 43<456.5 551>
LayerCount: 2
Fore
SplineSet
46 0 m 1
 178 659 l 1
 342 659 l 2
 462 659 537 617 537 513 c 0
 537 394 448 318 326 303 c 1
 452 0 l 1
 404 0 l 1
 282 301 l 1
 149 301 l 1
 89 0 l 1
 46 0 l 1
157 337 m 1
 272 337 l 2
 413 337 494 403 494 510 c 0
 494 592 437 623 324 623 c 2
 213 623 l 1
 157 337 l 1
364 712 m 1
 347 736 l 1
 494 848 l 1
 517 813 l 1
 364 712 l 1
EndSplineSet
EndChar

StartChar: Rcaron
Encoding: 344 344 189
Width: 600
Flags: MW
HStem: 0 21G<46 46 46 89 404 404 404 452> 301 36<157 272 272 282 149 272> 623 36<213 324 213 213> 709 34<358 385 381 385 381 402>
VStem: 494 43<456.5 551>
LayerCount: 2
Fore
SplineSet
46 0 m 1
 178 659 l 1
 342 659 l 2
 462 659 537 617 537 513 c 0
 537 394 448 318 326 303 c 1
 452 0 l 1
 404 0 l 1
 282 301 l 1
 149 301 l 1
 89 0 l 1
 46 0 l 1
157 337 m 1
 272 337 l 2
 413 337 494 403 494 510 c 0
 494 592 437 623 324 623 c 2
 213 623 l 1
 157 337 l 1
358 709 m 1
 264 825 l 1
 286 842 l 1
 381 743 l 1
 385 743 l 1
 517 844 l 1
 537 824 l 1
 402 709 l 1
 358 709 l 1
EndSplineSet
EndChar

StartChar: uni1E58
Encoding: 7768 7768 190
Width: 600
Flags: MW
HStem: 0 21G<46 46 46 89 404 404 404 452> 301 36<157 272 272 282 149 272> 623 36<213 324 213 213>
VStem: 349 75<753.5 769> 494 43<456.5 551>
LayerCount: 2
Fore
SplineSet
46 0 m 1
 178 659 l 1
 342 659 l 2
 462 659 537 617 537 513 c 0
 537 394 448 318 326 303 c 1
 452 0 l 1
 404 0 l 1
 282 301 l 1
 149 301 l 1
 89 0 l 1
 46 0 l 1
157 337 m 1
 272 337 l 2
 413 337 494 403 494 510 c 0
 494 592 437 623 324 623 c 2
 213 623 l 1
 157 337 l 1
382 723 m 0
 364 723 349 736 349 756 c 0
 349 782 369 801 391 801 c 0
 409 801 424 787 424 766 c 0
 424 741 404 723 382 723 c 0
EndSplineSet
EndChar

StartChar: uni0156
Encoding: 342 342 191
Width: 600
Flags: MW
HStem: -219 28<140 141> -88 27<195 209> 0 21G<46 46 46 89 404 404 404 452> 301 36<157 272 272 282 149 272> 623 36<213 324 213 213>
VStem: 262 39<-149 -118.5> 494 43<456.5 551>
LayerCount: 2
Fore
SplineSet
46 0 m 1
 178 659 l 1
 342 659 l 2
 462 659 537 617 537 513 c 0
 537 394 448 318 326 303 c 1
 452 0 l 1
 404 0 l 1
 282 301 l 1
 149 301 l 1
 89 0 l 1
 46 0 l 1
157 337 m 1
 272 337 l 2
 413 337 494 403 494 510 c 0
 494 592 437 623 324 623 c 2
 213 623 l 1
 157 337 l 1
141 -219 m 1
 140 -191 l 1
 221 -188 262 -165 262 -133 c 0
 262 -104 240 -92 195 -88 c 1
 209 -61 l 1
 284 -70 301 -89 301 -124 c 0
 301 -184 235 -217 141 -219 c 1
EndSplineSet
EndChar

StartChar: uni1E5A
Encoding: 7770 7770 192
Width: 600
Flags: MW
HStem: -227 21G<213 238.5> -227 93<223 238.5> 0 21G<46 46 46 89 404 404 404 452> 301 36<157 272 272 282 149 272> 623 36<213 324 213 213>
VStem: 185 91<-188 -173.5> 494 43<456.5 551>
LayerCount: 2
Fore
SplineSet
46 0 m 1xbe
 178 659 l 1
 342 659 l 2
 462 659 537 617 537 513 c 0
 537 394 448 318 326 303 c 1
 452 0 l 1
 404 0 l 1
 282 301 l 1
 149 301 l 1
 89 0 l 1
 46 0 l 1xbe
157 337 m 1
 272 337 l 2
 413 337 494 403 494 510 c 0
 494 592 437 623 324 623 c 2
 213 623 l 1
 157 337 l 1
225 -227 m 0
 201 -227 185 -212 185 -188 c 0
 185 -159 210 -134 236 -134 c 0x7e
 261 -134 276 -150 276 -173 c 0
 276 -203 252 -227 225 -227 c 0
EndSplineSet
EndChar

StartChar: uni1E5C
Encoding: 7772 7772 193
Width: 600
Flags: MW
HStem: -227 21G<213 238.5> -227 93<223 238.5> 0 21G<46 46 46 89 404 404 404 452> 301 36<157 272 272 282 149 272> 623 36<213 324 213 213> 734 34<262 507 270 499>
VStem: 185 91<-188 -173.5> 494 43<456.5 551>
LayerCount: 2
Fore
SplineSet
46 0 m 1xbf
 178 659 l 1
 342 659 l 2
 462 659 537 617 537 513 c 0
 537 394 448 318 326 303 c 1
 452 0 l 1
 404 0 l 1
 282 301 l 1
 149 301 l 1
 89 0 l 1
 46 0 l 1xbf
157 337 m 1
 272 337 l 2
 413 337 494 403 494 510 c 0
 494 592 437 623 324 623 c 2
 213 623 l 1
 157 337 l 1
262 734 m 1
 270 768 l 1
 507 768 l 1
 499 734 l 1
 262 734 l 1
225 -227 m 0
 201 -227 185 -212 185 -188 c 0
 185 -159 210 -134 236 -134 c 0x7f
 261 -134 276 -150 276 -173 c 0
 276 -203 252 -227 225 -227 c 0
EndSplineSet
EndChar

StartChar: uni1E5E
Encoding: 7774 7774 194
Width: 600
Flags: MW
HStem: -183 34<111 354 116 349> 0 21G<46 46 46 89 404 404 404 452> 301 36<157 272 272 282 149 272> 623 36<213 324 213 213>
VStem: 494 43<456.5 551>
LayerCount: 2
Fore
SplineSet
46 0 m 1
 178 659 l 1
 342 659 l 2
 462 659 537 617 537 513 c 0
 537 394 448 318 326 303 c 1
 452 0 l 1
 404 0 l 1
 282 301 l 1
 149 301 l 1
 89 0 l 1
 46 0 l 1
157 337 m 1
 272 337 l 2
 413 337 494 403 494 510 c 0
 494 592 437 623 324 623 c 2
 213 623 l 1
 157 337 l 1
111 -183 m 1
 116 -149 l 1
 354 -149 l 1
 349 -183 l 1
 111 -183 l 1
EndSplineSet
EndChar

StartChar: Sacute
Encoding: 346 346 195
Width: 600
Flags: MW
HStem: -12 37<218.5 308 218.5 318> 634 37<296 373>
VStem: 155 44<477 538.5 477 547.5> 429 43<130.5 205>
LayerCount: 2
Fore
SplineSet
257 -12 m 0
 161 -12 89 30 45 100 c 1
 77 124 l 1
 118 61 177 25 260 25 c 0
 356 25 429 85 429 176 c 0
 429 234 396 271 344 301 c 2
 260 351 l 2
 205 383 155 430 155 502 c 0
 155 593 232 671 344 671 c 0
 425 671 489 630 525 581 c 1
 495 556 l 1
 461 599 408 634 338 634 c 0
 254 634 199 570 199 507 c 0
 199 447 239 412 283 387 c 2
 367 337 l 2
 430 301 472 255 472 181 c 0
 472 63 379 -12 257 -12 c 0
354 712 m 1
 337 736 l 1
 484 848 l 1
 507 813 l 1
 354 712 l 1
EndSplineSet
EndChar

StartChar: Scircumflex
Encoding: 348 348 196
Width: 600
Flags: MW
HStem: -12 37<218.5 308 218.5 318> 634 37<296 373> 706 20G<231 231 504 504> 808 34<383 387 383 383>
VStem: 155 44<477 538.5 477 547.5> 429 43<130.5 205>
LayerCount: 2
Fore
SplineSet
257 -12 m 0
 161 -12 89 30 45 100 c 1
 77 124 l 1
 118 61 177 25 260 25 c 0
 356 25 429 85 429 176 c 0
 429 234 396 271 344 301 c 2
 260 351 l 2
 205 383 155 430 155 502 c 0
 155 593 232 671 344 671 c 0
 425 671 489 630 525 581 c 1
 495 556 l 1
 461 599 408 634 338 634 c 0
 254 634 199 570 199 507 c 0
 199 447 239 412 283 387 c 2
 367 337 l 2
 430 301 472 255 472 181 c 0
 472 63 379 -12 257 -12 c 0
251 707 m 1
 231 726 l 1
 366 842 l 1
 410 842 l 1
 504 726 l 1
 482 709 l 1
 387 808 l 1
 383 808 l 1
 251 707 l 1
EndSplineSet
EndChar

StartChar: Scaron
Encoding: 352 352 197
Width: 600
Flags: MW
HStem: -12 37<218.5 308 218.5 318> 634 37<296 373> 709 34<348 375 371 375 371 392>
VStem: 155 44<477 538.5 477 547.5> 429 43<130.5 205>
LayerCount: 2
Fore
SplineSet
257 -12 m 0
 161 -12 89 30 45 100 c 1
 77 124 l 1
 118 61 177 25 260 25 c 0
 356 25 429 85 429 176 c 0
 429 234 396 271 344 301 c 2
 260 351 l 2
 205 383 155 430 155 502 c 0
 155 593 232 671 344 671 c 0
 425 671 489 630 525 581 c 1
 495 556 l 1
 461 599 408 634 338 634 c 0
 254 634 199 570 199 507 c 0
 199 447 239 412 283 387 c 2
 367 337 l 2
 430 301 472 255 472 181 c 0
 472 63 379 -12 257 -12 c 0
348 709 m 1
 254 825 l 1
 276 842 l 1
 371 743 l 1
 375 743 l 1
 507 844 l 1
 527 824 l 1
 392 709 l 1
 348 709 l 1
EndSplineSet
EndChar

StartChar: Scarondot
Encoding: 1114114 -1 198
Width: 600
Flags: MW
HStem: -12 37<218.5 308 218.5 318> 634 37<296 373> 709 33<348 375 371 375 371 392> 820 90<390.5 404.5>
VStem: 155 44<477 538.5 477 547.5> 354 87<858 871> 429 43<130.5 205>
LayerCount: 2
Fore
SplineSet
257 -12 m 0xca
 161 -12 89 30 45 100 c 1
 77 124 l 1
 118 61 177 25 260 25 c 0
 356 25 429 85 429 176 c 0
 429 234 396 271 344 301 c 2
 260 351 l 2
 205 383 155 430 155 502 c 0
 155 593 232 671 344 671 c 0
 425 671 489 630 525 581 c 1
 495 556 l 1
 461 599 408 634 338 634 c 0
 254 634 199 570 199 507 c 0
 199 447 239 412 283 387 c 2
 367 337 l 2
 430 301 472 255 472 181 c 0
 472 63 379 -12 257 -12 c 0xca
392 820 m 0xfc
 368 820 354 834 354 857 c 0
 354 885 378 910 403 910 c 0
 427 910 441 895 441 872 c 0
 441 844 417 820 392 820 c 0xfc
348 709 m 1
 254 825 l 1
 275 841 l 1
 371 742 l 1
 375 742 l 1
 508 843 l 1
 527 824 l 1
 392 709 l 1
 348 709 l 1
EndSplineSet
EndChar

StartChar: uni015E
Encoding: 350 350 199
Width: 600
Flags: MW
HStem: -219 28<130 132> -11 36<233 233> 634 37<296 373>
VStem: 155 44<477 538.5 477 547.5> 252 39 429 43<130.5 205>
LayerCount: 2
Fore
SplineSet
132 -219 m 1
 130 -191 l 1
 211 -188 252 -165 252 -132 c 0
 252 -104 231 -91 184 -87 c 1
 233 -11 l 1
 149 -5 85 36 45 100 c 1
 77 124 l 1
 118 61 177 25 260 25 c 0
 356 25 429 85 429 176 c 0
 429 234 396 271 344 301 c 2
 260 351 l 2
 205 383 155 430 155 502 c 0
 155 593 232 671 344 671 c 0
 425 671 489 630 525 581 c 1
 495 556 l 1
 461 599 408 634 338 634 c 0
 254 634 199 570 199 507 c 0
 199 447 239 412 283 387 c 2
 367 337 l 2
 430 301 472 255 472 181 c 0
 472 67 385 -7 269 -12 c 1
 234 -67 l 1
 281 -79 292 -96 291 -125 c 0
 290 -184 226 -217 132 -219 c 1
EndSplineSet
EndChar

StartChar: uni0218
Encoding: 536 536 200
Width: 600
Flags: MW
HStem: -219 28<140 141> -88 27<195 209> -12 37<218.5 308 218.5 318> 634 37<296 373>
VStem: 155 44<477 538.5 477 547.5> 262 39<-149 -118.5> 429 43<130.5 205>
LayerCount: 2
Fore
SplineSet
257 -12 m 0
 161 -12 89 30 45 100 c 1
 77 124 l 1
 118 61 177 25 260 25 c 0
 356 25 429 85 429 176 c 0
 429 234 396 271 344 301 c 2
 260 351 l 2
 205 383 155 430 155 502 c 0
 155 593 232 671 344 671 c 0
 425 671 489 630 525 581 c 1
 495 556 l 1
 461 599 408 634 338 634 c 0
 254 634 199 570 199 507 c 0
 199 447 239 412 283 387 c 2
 367 337 l 2
 430 301 472 255 472 181 c 0
 472 63 379 -12 257 -12 c 0
141 -219 m 1
 140 -191 l 1
 221 -188 262 -165 262 -133 c 0
 262 -104 240 -92 195 -88 c 1
 209 -61 l 1
 284 -70 301 -89 301 -124 c 0
 301 -184 235 -217 141 -219 c 1
EndSplineSet
EndChar

StartChar: uni1E60
Encoding: 7776 7776 201
Width: 600
Flags: MW
HStem: -12 37<218.5 308 218.5 318> 634 37<296 373>
VStem: 155 44<477 538.5 477 547.5> 339 75<753.5 769> 429 43<130.5 205>
LayerCount: 2
Fore
SplineSet
257 -12 m 0
 161 -12 89 30 45 100 c 1
 77 124 l 1
 118 61 177 25 260 25 c 0
 356 25 429 85 429 176 c 0
 429 234 396 271 344 301 c 2
 260 351 l 2
 205 383 155 430 155 502 c 0
 155 593 232 671 344 671 c 0
 425 671 489 630 525 581 c 1
 495 556 l 1
 461 599 408 634 338 634 c 0
 254 634 199 570 199 507 c 0
 199 447 239 412 283 387 c 2
 367 337 l 2
 430 301 472 255 472 181 c 0
 472 63 379 -12 257 -12 c 0
372 723 m 0xf8
 354 723 339 736 339 756 c 0
 339 782 359 801 381 801 c 0
 399 801 414 787 414 766 c 0
 414 741 394 723 372 723 c 0xf8
EndSplineSet
EndChar

StartChar: uni1E62
Encoding: 7778 7778 202
Width: 600
Flags: MW
HStem: -227 21G<213 238.5> -227 93<223 238.5> -12 37<218.5 308 218.5 318> 634 37<296 373>
VStem: 155 44<477 538.5 477 547.5> 185 91<-188 -173.5> 429 43<130.5 205>
LayerCount: 2
Fore
SplineSet
257 -12 m 0xba
 161 -12 89 30 45 100 c 1
 77 124 l 1
 118 61 177 25 260 25 c 0
 356 25 429 85 429 176 c 0
 429 234 396 271 344 301 c 2
 260 351 l 2
 205 383 155 430 155 502 c 0
 155 593 232 671 344 671 c 0
 425 671 489 630 525 581 c 1
 495 556 l 1
 461 599 408 634 338 634 c 0
 254 634 199 570 199 507 c 0
 199 447 239 412 283 387 c 2
 367 337 l 2
 430 301 472 255 472 181 c 0
 472 63 379 -12 257 -12 c 0xba
225 -227 m 0xb6
 201 -227 185 -212 185 -188 c 0
 185 -159 210 -134 236 -134 c 0x76
 261 -134 276 -150 276 -173 c 0
 276 -203 252 -227 225 -227 c 0xb6
EndSplineSet
EndChar

StartChar: uni1E9E
Encoding: 7838 7838 203
Width: 600
Flags: MW
HStem: -12 37<303.5 383 303.5 400> 0 21G<28 71 28 28> 635 36<327 409.5>
VStem: 497 42<132.5 216>
LayerCount: 2
Fore
SplineSet
334 -12 m 0xb0
 261 -12 206 22 176 66 c 1
 204 92 l 1
 234 49 273 25 334 25 c 0xb0
 432 25 497 92 497 173 c 0
 497 259 434 303 318 331 c 1
 322 365 l 1
 508 546 l 1
 485 600 441 635 378 635 c 0
 276 635 185 573 155 422 c 2
 71 0 l 1
 28 0 l 1x70
 115 435 l 2
 142 577 236 671 379 671 c 0
 471 671 530 617 552 536 c 1
 362 355 l 1
 481 321 539 264 539 174 c 0
 539 73 466 -12 334 -12 c 0xb0
EndSplineSet
EndChar

StartChar: Tcaron
Encoding: 356 356 204
Width: 600
Flags: MW
HStem: 0 21G<216 216 216 259> 620 39<118 339 110 620 382 382 382 612> 709 34<362 389 385 389 385 406>
VStem: 110 510<620 659>
LayerCount: 2
Fore
SplineSet
216 0 m 1
 339 620 l 1
 110 620 l 1
 118 659 l 1
 620 659 l 1
 612 620 l 1
 382 620 l 1
 259 0 l 1
 216 0 l 1
362 709 m 1
 268 825 l 1
 290 842 l 1
 385 743 l 1
 389 743 l 1
 521 844 l 1
 541 824 l 1
 406 709 l 1
 362 709 l 1
EndSplineSet
EndChar

StartChar: uni0162
Encoding: 354 354 205
Width: 600
Flags: MW
HStem: -219 28<108 110> 0 21G<216 216 216 219 254 254 254 259> 620 39<118 339 110 620 382 382 382 612>
VStem: 230 39
LayerCount: 2
Fore
SplineSet
216 0 m 1
 339 620 l 1
 110 620 l 1
 118 659 l 1
 620 659 l 1
 612 620 l 1
 382 620 l 1
 259 0 l 1
 254 0 l 1
 212 -67 l 1
 259 -79 270 -96 269 -125 c 0
 268 -184 204 -217 110 -219 c 1
 108 -191 l 1
 189 -188 230 -165 230 -132 c 0
 230 -104 209 -91 162 -87 c 1
 219 0 l 1
 216 0 l 1
EndSplineSet
EndChar

StartChar: uni021A
Encoding: 538 538 206
Width: 600
Flags: MW
HStem: -219 28<114 115> -88 27<169 183> 0 21G<216 216 216 259> 620 39<118 339 110 620 382 382 382 612>
VStem: 236 39<-149 -118.5>
LayerCount: 2
Fore
SplineSet
216 0 m 1
 339 620 l 1
 110 620 l 1
 118 659 l 1
 620 659 l 1
 612 620 l 1
 382 620 l 1
 259 0 l 1
 216 0 l 1
115 -219 m 1
 114 -191 l 1
 195 -188 236 -165 236 -133 c 0
 236 -104 214 -92 169 -88 c 1
 183 -61 l 1
 258 -70 275 -89 275 -124 c 0
 275 -184 209 -217 115 -219 c 1
EndSplineSet
EndChar

StartChar: uni1E6C
Encoding: 7788 7788 207
Width: 600
Flags: MW
HStem: -227 21G<187 212.5> -227 93<197 212.5> 0 21G<216 216 216 259> 620 39<118 339 110 620 382 382 382 612>
VStem: 159 91<-188 -173.5>
LayerCount: 2
Fore
SplineSet
216 0 m 1xb8
 339 620 l 1
 110 620 l 1
 118 659 l 1
 620 659 l 1
 612 620 l 1
 382 620 l 1
 259 0 l 1
 216 0 l 1xb8
199 -227 m 0
 175 -227 159 -212 159 -188 c 0
 159 -159 184 -134 210 -134 c 0x78
 235 -134 250 -150 250 -173 c 0
 250 -203 226 -227 199 -227 c 0
EndSplineSet
EndChar

StartChar: uni1E6E
Encoding: 7790 7790 208
Width: 600
Flags: MW
HStem: -183 34<85 328 90 323> 0 21G<216 216 216 259> 620 39<118 339 110 620 382 382 382 612>
VStem: 85 535
LayerCount: 2
Fore
SplineSet
216 0 m 1
 339 620 l 1
 110 620 l 1
 118 659 l 1
 620 659 l 1
 612 620 l 1
 382 620 l 1
 259 0 l 1
 216 0 l 1
85 -183 m 1
 90 -149 l 1
 328 -149 l 1
 323 -183 l 1
 85 -183 l 1
EndSplineSet
EndChar

StartChar: Tbar
Encoding: 358 358 209
Width: 600
GlyphClass: 2
Flags: MW
HStem: 0 21G<216 259 216 216> 352 33<233 286 335 462> 620 39<118 339 110 620 382 382 382 612>
VStem: 110 510<620 659>
AnchorPoint: "Anchor-3" 234 -20 basechar 0
AnchorPoint: "Anchor-0" 374 679 basechar 0
LayerCount: 2
Fore
SplineSet
150 352 m 1
 155 380 l 1
 233 385 l 1
 292 385 l 1
 339 620 l 1
 110 620 l 1
 118 659 l 1
 620 659 l 1
 612 620 l 1
 382 620 l 1
 335 385 l 1
 469 385 l 1
 462 352 l 1
 329 352 l 1
 259 0 l 1
 216 0 l 1
 286 352 l 1
 150 352 l 1
EndSplineSet
EndChar

StartChar: Ugrave
Encoding: 217 217 210
Width: 600
Flags: MW
HStem: -12 37<214.5 305.5 214.5 311.5> 703 20G<425 425>
VStem: 71 43<138 195.5>
LayerCount: 2
Fore
SplineSet
259 -12 m 0
 141 -12 71 60 71 182 c 0
 71 209 74 234 80 267 c 2
 159 659 l 1
 202 659 l 1
 124 272 l 2
 117 240 114 214 114 190 c 0
 114 86 165 25 264 25 c 0
 347 25 424 84 455 242 c 2
 538 659 l 1
 581 659 l 1
 496 234 l 2
 459 51 364 -12 259 -12 c 0
402 702 m 1
 285 826 l 1
 318 854 l 1
 425 723 l 1
 402 702 l 1
EndSplineSet
EndChar

StartChar: Uacute
Encoding: 218 218 211
Width: 600
Flags: MW
HStem: -12 37<214.5 305.5 214.5 311.5>
VStem: 71 43<138 195.5>
LayerCount: 2
Fore
SplineSet
259 -12 m 0
 141 -12 71 60 71 182 c 0
 71 209 74 234 80 267 c 2
 159 659 l 1
 202 659 l 1
 124 272 l 2
 117 240 114 214 114 190 c 0
 114 86 165 25 264 25 c 0
 347 25 424 84 455 242 c 2
 538 659 l 1
 581 659 l 1
 496 234 l 2
 459 51 364 -12 259 -12 c 0
368 712 m 1
 351 736 l 1
 498 848 l 1
 521 813 l 1
 368 712 l 1
EndSplineSet
EndChar

StartChar: Ucircumflex
Encoding: 219 219 212
Width: 600
Flags: MW
HStem: -12 37<214.5 305.5 214.5 311.5> 706 20G<245 245 518 518> 808 34<397 401 397 397>
VStem: 71 43<138 195.5>
LayerCount: 2
Fore
SplineSet
259 -12 m 0
 141 -12 71 60 71 182 c 0
 71 209 74 234 80 267 c 2
 159 659 l 1
 202 659 l 1
 124 272 l 2
 117 240 114 214 114 190 c 0
 114 86 165 25 264 25 c 0
 347 25 424 84 455 242 c 2
 538 659 l 1
 581 659 l 1
 496 234 l 2
 459 51 364 -12 259 -12 c 0
265 707 m 1
 245 726 l 1
 380 842 l 1
 424 842 l 1
 518 726 l 1
 496 709 l 1
 401 808 l 1
 397 808 l 1
 265 707 l 1
EndSplineSet
EndChar

StartChar: Utilde
Encoding: 360 360 213
Width: 600
Flags: MW
HStem: -12 37<214.5 305.5 214.5 311.5> 704 20G<224 224> 718 36<438 478.5 438 484> 799 35<309 349.5>
VStem: 71 43<138 195.5>
LayerCount: 2
Fore
SplineSet
259 -12 m 0xd8
 141 -12 71 60 71 182 c 0
 71 209 74 234 80 267 c 2
 159 659 l 1
 202 659 l 1
 124 272 l 2
 117 240 114 214 114 190 c 0
 114 86 165 25 264 25 c 0
 347 25 424 84 455 242 c 2
 538 659 l 1
 581 659 l 1
 496 234 l 2
 459 51 364 -12 259 -12 c 0xd8
457 718 m 0xb8
 389 718 375 799 324 799 c 0
 294 799 269 769 255 721 c 1
 224 724 l 1xd8
 236 789 277 834 331 834 c 0
 399 834 412 754 464 754 c 0
 493 754 517 784 533 832 c 1
 563 829 l 1
 552 764 511 718 457 718 c 0xb8
EndSplineSet
EndChar

StartChar: Udieresis
Encoding: 220 220 214
Width: 600
Flags: MW
HStem: -12 37<214.5 305.5 214.5 311.5>
VStem: 71 43<138 195.5> 271 67<753 765> 443 66<753 765>
LayerCount: 2
Fore
SplineSet
259 -12 m 0
 141 -12 71 60 71 182 c 0
 71 209 74 234 80 267 c 2
 159 659 l 1
 202 659 l 1
 124 272 l 2
 117 240 114 214 114 190 c 0
 114 86 165 25 264 25 c 0
 347 25 424 84 455 242 c 2
 538 659 l 1
 581 659 l 1
 496 234 l 2
 459 51 364 -12 259 -12 c 0
301 723 m 0
 283 723 271 734 271 753 c 0
 271 777 289 795 308 795 c 0
 326 795 338 784 338 764 c 0
 338 742 320 723 301 723 c 0
472 723 m 0
 454 723 443 734 443 753 c 0
 443 777 460 795 480 795 c 0
 497 795 509 784 509 764 c 0
 509 742 492 723 472 723 c 0
EndSplineSet
EndChar

StartChar: Umacron
Encoding: 362 362 215
Width: 600
Flags: MW
HStem: -12 37<214.5 305.5 214.5 311.5> 734 34<266 511 274 503>
VStem: 71 43<138 195.5>
LayerCount: 2
Fore
SplineSet
259 -12 m 0
 141 -12 71 60 71 182 c 0
 71 209 74 234 80 267 c 2
 159 659 l 1
 202 659 l 1
 124 272 l 2
 117 240 114 214 114 190 c 0
 114 86 165 25 264 25 c 0
 347 25 424 84 455 242 c 2
 538 659 l 1
 581 659 l 1
 496 234 l 2
 459 51 364 -12 259 -12 c 0
266 734 m 1
 274 768 l 1
 511 768 l 1
 503 734 l 1
 266 734 l 1
EndSplineSet
EndChar

StartChar: Ubreve
Encoding: 364 364 216
Width: 600
Flags: MW
HStem: -12 37<214.5 305.5 214.5 311.5> 710 33<353 417 353 423>
VStem: 71 43<138 195.5> 266 33<835 840>
LayerCount: 2
Fore
SplineSet
259 -12 m 0
 141 -12 71 60 71 182 c 0
 71 209 74 234 80 267 c 2
 159 659 l 1
 202 659 l 1
 124 272 l 2
 117 240 114 214 114 190 c 0
 114 86 165 25 264 25 c 0
 347 25 424 84 455 242 c 2
 538 659 l 1
 581 659 l 1
 496 234 l 2
 459 51 364 -12 259 -12 c 0
378 710 m 0
 291 710 262 775 266 835 c 1
 299 840 l 1
 296 789 321 743 385 743 c 0
 449 743 488 789 506 840 c 1
 538 835 l 1
 521 775 468 710 378 710 c 0
EndSplineSet
EndChar

StartChar: Uring
Encoding: 366 366 217
Width: 600
Flags: MW
HStem: -12 37<214.5 305.5 214.5 311.5> 701 26<373 405 373 413> 843 26<387 419.5>
VStem: 71 43<138 195.5> 310 30<763 797.5 763 802.5> 452 30<773 807.5>
LayerCount: 2
Fore
SplineSet
259 -12 m 0
 141 -12 71 60 71 182 c 0
 71 209 74 234 80 267 c 2
 159 659 l 1
 202 659 l 1
 124 272 l 2
 117 240 114 214 114 190 c 0
 114 86 165 25 264 25 c 0
 347 25 424 84 455 242 c 2
 538 659 l 1
 581 659 l 1
 496 234 l 2
 459 51 364 -12 259 -12 c 0
386 701 m 0
 346 701 310 726 310 777 c 0
 310 828 352 869 406 869 c 0
 446 869 482 845 482 794 c 0
 482 742 440 701 386 701 c 0
388 727 m 0
 422 727 452 755 452 791 c 0
 452 824 435 843 404 843 c 0
 370 843 340 816 340 779 c 0
 340 747 358 727 388 727 c 0
EndSplineSet
EndChar

StartChar: Uhungarumlaut
Encoding: 368 368 218
Width: 600
Flags: MW
HStem: -12 37<214.5 305.5 214.5 311.5> 707 20G<300 300 444 444>
VStem: 71 43<138 195.5>
LayerCount: 2
Fore
SplineSet
259 -12 m 0
 141 -12 71 60 71 182 c 0
 71 209 74 234 80 267 c 2
 159 659 l 1
 202 659 l 1
 124 272 l 2
 117 240 114 214 114 190 c 0
 114 86 165 25 264 25 c 0
 347 25 424 84 455 242 c 2
 538 659 l 1
 581 659 l 1
 496 234 l 2
 459 51 364 -12 259 -12 c 0
324 712 m 1
 300 727 l 1
 414 865 l 1
 444 842 l 1
 324 712 l 1
468 712 m 1
 444 727 l 1
 558 865 l 1
 588 842 l 1
 468 712 l 1
EndSplineSet
EndChar

StartChar: uni01D3
Encoding: 467 467 219
Width: 600
Flags: MW
HStem: -12 37<214.5 305.5 214.5 311.5> 709 34<362 389 385 389 385 406>
VStem: 71 43<138 195.5>
LayerCount: 2
Fore
SplineSet
259 -12 m 0
 141 -12 71 60 71 182 c 0
 71 209 74 234 80 267 c 2
 159 659 l 1
 202 659 l 1
 124 272 l 2
 117 240 114 214 114 190 c 0
 114 86 165 25 264 25 c 0
 347 25 424 84 455 242 c 2
 538 659 l 1
 581 659 l 1
 496 234 l 2
 459 51 364 -12 259 -12 c 0
362 709 m 1
 268 825 l 1
 290 842 l 1
 385 743 l 1
 389 743 l 1
 521 844 l 1
 541 824 l 1
 406 709 l 1
 362 709 l 1
EndSplineSet
EndChar

StartChar: Uogonek
Encoding: 370 370 220
Width: 600
GlyphClass: 2
Flags: MW
HStem: -224 33<204.5 227> -10 35
VStem: 71 43<138 195.5> 123 37<-157 -123>
AnchorPoint: "Anchor-0" 374 682 basechar 0
LayerCount: 2
Fore
SplineSet
211 -224 m 0
 166 -224 123 -203 123 -151 c 0xf0
 123 -95 171 -41 220 -10 c 1
 136 4 71 62 71 182 c 0
 71 209 74 234 80 267 c 2
 159 659 l 1
 202 659 l 1
 124 272 l 2
 117 240 114 214 114 190 c 0xe0
 114 86 165 25 264 25 c 0
 347 25 424 84 455 242 c 2
 538 659 l 1
 581 659 l 1
 496 234 l 2
 466 84 400 15 310 -6 c 0
 209 -29 160 -95 160 -139 c 0
 160 -175 187 -191 222 -191 c 0
 243 -191 260 -183 275 -172 c 1
 289 -196 l 1
 270 -212 243 -224 211 -224 c 0
EndSplineSet
Ligature2: "'ccmp' Glyph Composition/Decomposition lookup 12 subtable" U uni0328
EndChar

StartChar: uni01D5
Encoding: 469 469 221
Width: 600
Flags: MW
HStem: -12 37<214.5 305.5 214.5 311.5> 723 71<297.5 309.5 468.5 480> 854 31<288 532 295 525>
VStem: 71 43<138 195.5> 271 65<752 763.5> 442 65<752 763.5>
LayerCount: 2
Fore
SplineSet
259 -12 m 0
 141 -12 71 60 71 182 c 0
 71 209 74 234 80 267 c 2
 159 659 l 1
 202 659 l 1
 124 272 l 2
 117 240 114 214 114 190 c 0
 114 86 165 25 264 25 c 0
 347 25 424 84 455 242 c 2
 538 659 l 1
 581 659 l 1
 496 234 l 2
 459 51 364 -12 259 -12 c 0
300 723 m 0
 282 723 271 734 271 752 c 0
 271 775 288 794 307 794 c 0
 325 794 336 782 336 763 c 0
 336 741 319 723 300 723 c 0
471 723 m 0
 453 723 442 734 442 752 c 0
 442 775 459 794 478 794 c 0
 495 794 507 782 507 763 c 0
 507 741 489 723 471 723 c 0
288 854 m 1
 295 885 l 1
 532 885 l 1
 525 854 l 1
 288 854 l 1
EndSplineSet
EndChar

StartChar: uni01D7
Encoding: 471 471 222
Width: 600
Flags: MW
HStem: -12 37<214.5 305.5 214.5 311.5> 723 71<297.5 309.5 468.5 480>
VStem: 71 43<138 195.5> 271 65<752 763.5> 442 65<752 763.5>
LayerCount: 2
Fore
SplineSet
259 -12 m 0
 141 -12 71 60 71 182 c 0
 71 209 74 234 80 267 c 2
 159 659 l 1
 202 659 l 1
 124 272 l 2
 117 240 114 214 114 190 c 0
 114 86 165 25 264 25 c 0
 347 25 424 84 455 242 c 2
 538 659 l 1
 581 659 l 1
 496 234 l 2
 459 51 364 -12 259 -12 c 0
300 723 m 0
 282 723 271 734 271 752 c 0
 271 775 288 794 307 794 c 0
 325 794 336 782 336 763 c 0
 336 741 319 723 300 723 c 0
471 723 m 0
 453 723 442 734 442 752 c 0
 442 775 459 794 478 794 c 0
 495 794 507 782 507 763 c 0
 507 741 489 723 471 723 c 0
393 826 m 1
 374 846 l 1
 487 941 l 1
 513 914 l 1
 393 826 l 1
EndSplineSet
EndChar

StartChar: uni01D9
Encoding: 473 473 223
Width: 600
Flags: MW
HStem: -12 37<214.5 305.5 214.5 311.5> 723 71<297.5 309.5 468.5 480> 829 35<383 408 404 408 404 423>
VStem: 71 43<138 195.5> 271 65<752 763.5> 442 65<752 763.5>
LayerCount: 2
Fore
SplineSet
259 -12 m 0
 141 -12 71 60 71 182 c 0
 71 209 74 234 80 267 c 2
 159 659 l 1
 202 659 l 1
 124 272 l 2
 117 240 114 214 114 190 c 0
 114 86 165 25 264 25 c 0
 347 25 424 84 455 242 c 2
 538 659 l 1
 581 659 l 1
 496 234 l 2
 459 51 364 -12 259 -12 c 0
300 723 m 0
 282 723 271 734 271 752 c 0
 271 775 288 794 307 794 c 0
 325 794 336 782 336 763 c 0
 336 741 319 723 300 723 c 0
471 723 m 0
 453 723 442 734 442 752 c 0
 442 775 459 794 478 794 c 0
 495 794 507 782 507 763 c 0
 507 741 489 723 471 723 c 0
383 829 m 1
 304 915 l 1
 326 932 l 1
 404 864 l 1
 408 864 l 1
 518 932 l 1
 535 914 l 1
 423 829 l 1
 383 829 l 1
EndSplineSet
EndChar

StartChar: uni01DB
Encoding: 475 475 224
Width: 600
Flags: MW
HStem: -12 37<214.5 305.5 214.5 311.5> 723 71<297.5 309.5 468.5 480>
VStem: 71 43<138 195.5> 271 65<752 763.5> 442 65<752 763.5>
LayerCount: 2
Fore
SplineSet
259 -12 m 0
 141 -12 71 60 71 182 c 0
 71 209 74 234 80 267 c 2
 159 659 l 1
 202 659 l 1
 124 272 l 2
 117 240 114 214 114 190 c 0
 114 86 165 25 264 25 c 0
 347 25 424 84 455 242 c 2
 538 659 l 1
 581 659 l 1
 496 234 l 2
 459 51 364 -12 259 -12 c 0
300 723 m 0
 282 723 271 734 271 752 c 0
 271 775 288 794 307 794 c 0
 325 794 336 782 336 763 c 0
 336 741 319 723 300 723 c 0
471 723 m 0
 453 723 442 734 442 752 c 0
 442 775 459 794 478 794 c 0
 495 794 507 782 507 763 c 0
 507 741 489 723 471 723 c 0
411 820 m 1
 325 926 l 1
 357 946 l 1
 432 834 l 1
 411 820 l 1
EndSplineSet
EndChar

StartChar: uni1EE4
Encoding: 7908 7908 225
Width: 600
Flags: MW
HStem: -227 21G<187 212.5> -227 93<197 212.5> -12 37<214.5 305.5 214.5 311.5>
VStem: 71 43<138 195.5> 159 91<-188 -173.5>
LayerCount: 2
Fore
SplineSet
259 -12 m 0xb8
 141 -12 71 60 71 182 c 0
 71 209 74 234 80 267 c 2
 159 659 l 1
 202 659 l 1
 124 272 l 2
 117 240 114 214 114 190 c 0
 114 86 165 25 264 25 c 0
 347 25 424 84 455 242 c 2
 538 659 l 1
 581 659 l 1
 496 234 l 2
 459 51 364 -12 259 -12 c 0xb8
199 -227 m 0
 175 -227 159 -212 159 -188 c 0
 159 -159 184 -134 210 -134 c 0x78
 235 -134 250 -150 250 -173 c 0
 250 -203 226 -227 199 -227 c 0
EndSplineSet
EndChar

StartChar: uni1EE6
Encoding: 7910 7910 226
Width: 600
Flags: MW
HStem: -12 37<214.5 305.5 214.5 311.5> 831 32<331 340>
VStem: 71 43<138 195.5> 407 41
LayerCount: 2
Fore
SplineSet
259 -12 m 0
 141 -12 71 60 71 182 c 0
 71 209 74 234 80 267 c 2
 159 659 l 1
 202 659 l 1
 124 272 l 2
 117 240 114 214 114 190 c 0
 114 86 165 25 264 25 c 0
 347 25 424 84 455 242 c 2
 538 659 l 1
 581 659 l 1
 496 234 l 2
 459 51 364 -12 259 -12 c 0
337 702 m 1
 334 729 l 1
 372 740 403 755 407 783 c 0
 412 814 384 829 331 831 c 1
 340 863 l 1
 406 861 456 839 448 789 c 0
 438 737 387 715 337 702 c 1
EndSplineSet
EndChar

StartChar: Uhorn
Encoding: 431 431 227
Width: 600
GlyphClass: 2
Flags: MW
HStem: -12 37<214.5 305.5 214.5 311.5>
VStem: 71 43<138 195.5> 659 42<726.5 762.5>
AnchorPoint: "Anchor-3" 234 -20 basechar 0
AnchorPoint: "Anchor-0" 374 679 basechar 0
LayerCount: 2
Fore
SplineSet
259 -12 m 0
 141 -12 71 60 71 182 c 0
 71 209 74 234 80 267 c 2
 159 659 l 1
 202 659 l 1
 124 272 l 2
 117 240 114 214 114 190 c 0
 114 86 165 25 264 25 c 0
 347 25 424 84 455 242 c 2
 538 659 l 1
 549 659 l 2
 619 661 659 698 659 755 c 0
 659 770 658 786 651 804 c 1
 690 819 l 1
 697 797 701 780 701 762 c 0
 701 683 642 642 576 632 c 1
 496 234 l 2
 459 51 364 -12 259 -12 c 0
EndSplineSet
EndChar

StartChar: uni1EE8
Encoding: 7912 7912 228
Width: 600
Flags: MW
HStem: -12 37<214.5 305.5 214.5 311.5>
VStem: 71 43<138 195.5> 659 42<726.5 762.5>
LayerCount: 2
Fore
SplineSet
259 -12 m 0
 141 -12 71 60 71 182 c 0
 71 209 74 234 80 267 c 2
 159 659 l 1
 202 659 l 1
 124 272 l 2
 117 240 114 214 114 190 c 0
 114 86 165 25 264 25 c 0
 347 25 424 84 455 242 c 2
 538 659 l 1
 549 659 l 2
 619 661 659 698 659 755 c 0
 659 770 658 786 651 804 c 1
 690 819 l 1
 697 797 701 780 701 762 c 0
 701 683 642 642 576 632 c 1
 496 234 l 2
 459 51 364 -12 259 -12 c 0
368 712 m 1
 351 736 l 1
 498 848 l 1
 521 813 l 1
 368 712 l 1
EndSplineSet
EndChar

StartChar: uni1EEA
Encoding: 7914 7914 229
Width: 600
Flags: MW
HStem: -12 37<214.5 305.5 214.5 311.5> 703 20G<425 425>
VStem: 71 43<138 195.5> 659 42<726.5 762.5>
LayerCount: 2
Fore
SplineSet
259 -12 m 0
 141 -12 71 60 71 182 c 0
 71 209 74 234 80 267 c 2
 159 659 l 1
 202 659 l 1
 124 272 l 2
 117 240 114 214 114 190 c 0
 114 86 165 25 264 25 c 0
 347 25 424 84 455 242 c 2
 538 659 l 1
 549 659 l 2
 619 661 659 698 659 755 c 0
 659 770 658 786 651 804 c 1
 690 819 l 1
 697 797 701 780 701 762 c 0
 701 683 642 642 576 632 c 1
 496 234 l 2
 459 51 364 -12 259 -12 c 0
402 702 m 1
 285 826 l 1
 318 854 l 1
 425 723 l 1
 402 702 l 1
EndSplineSet
EndChar

StartChar: uni1EEC
Encoding: 7916 7916 230
Width: 600
Flags: MW
HStem: -12 37<214.5 305.5 214.5 311.5> 831 32<331 340>
VStem: 71 43<138 195.5> 407 41 659 42<726.5 762.5>
LayerCount: 2
Fore
SplineSet
259 -12 m 0
 141 -12 71 60 71 182 c 0
 71 209 74 234 80 267 c 2
 159 659 l 1
 202 659 l 1
 124 272 l 2
 117 240 114 214 114 190 c 0
 114 86 165 25 264 25 c 0
 347 25 424 84 455 242 c 2
 538 659 l 1
 549 659 l 2
 619 661 659 698 659 755 c 0
 659 770 658 786 651 804 c 1
 690 819 l 1
 697 797 701 780 701 762 c 0
 701 683 642 642 576 632 c 1
 496 234 l 2
 459 51 364 -12 259 -12 c 0
337 702 m 1
 334 729 l 1
 372 740 403 755 407 783 c 0
 412 814 384 829 331 831 c 1
 340 863 l 1
 406 861 456 839 448 789 c 0
 438 737 387 715 337 702 c 1
EndSplineSet
EndChar

StartChar: uni1EEE
Encoding: 7918 7918 231
Width: 600
Flags: MW
HStem: -12 37<214.5 305.5 214.5 311.5> 704 20G<224 224> 718 36<438 478.5 438 484> 799 35<309 349.5>
VStem: 71 43<138 195.5> 659 42<726.5 762.5>
LayerCount: 2
Fore
SplineSet
259 -12 m 0xdc
 141 -12 71 60 71 182 c 0
 71 209 74 234 80 267 c 2
 159 659 l 1
 202 659 l 1
 124 272 l 2
 117 240 114 214 114 190 c 0
 114 86 165 25 264 25 c 0
 347 25 424 84 455 242 c 2
 538 659 l 1
 549 659 l 2
 619 661 659 698 659 755 c 0
 659 770 658 786 651 804 c 1
 690 819 l 1
 697 797 701 780 701 762 c 0
 701 683 642 642 576 632 c 1
 496 234 l 2
 459 51 364 -12 259 -12 c 0xdc
457 718 m 0xbc
 389 718 375 799 324 799 c 0
 294 799 269 769 255 721 c 1
 224 724 l 1xdc
 236 789 277 834 331 834 c 0
 399 834 412 754 464 754 c 0
 493 754 517 784 533 832 c 1
 563 829 l 1
 552 764 511 718 457 718 c 0xbc
EndSplineSet
EndChar

StartChar: uni1EF0
Encoding: 7920 7920 232
Width: 600
Flags: MW
HStem: -227 21G<187 212.5> -227 93<197 212.5> -12 37<214.5 305.5 214.5 311.5>
VStem: 71 43<138 195.5> 159 91<-188 -173.5> 659 42<726.5 762.5>
LayerCount: 2
Fore
SplineSet
259 -12 m 0xbc
 141 -12 71 60 71 182 c 0
 71 209 74 234 80 267 c 2
 159 659 l 1
 202 659 l 1
 124 272 l 2
 117 240 114 214 114 190 c 0
 114 86 165 25 264 25 c 0
 347 25 424 84 455 242 c 2
 538 659 l 1
 549 659 l 2
 619 661 659 698 659 755 c 0
 659 770 658 786 651 804 c 1
 690 819 l 1
 697 797 701 780 701 762 c 0
 701 683 642 642 576 632 c 1
 496 234 l 2
 459 51 364 -12 259 -12 c 0xbc
199 -227 m 0
 175 -227 159 -212 159 -188 c 0
 159 -159 184 -134 210 -134 c 0x7c
 235 -134 250 -150 250 -173 c 0
 250 -203 226 -227 199 -227 c 0
EndSplineSet
EndChar

StartChar: uni1E7E
Encoding: 7806 7806 233
Width: 600
Flags: MW
HStem: -227 21G<187 212.5> -227 93<197 212.5> 0 48<213 250 246 250 246 263>
VStem: 159 91<-188 -173.5>
LayerCount: 2
Fore
SplineSet
213 0 m 1xb0
 143 659 l 1
 185 659 l 1
 224 270 l 2
 231 197 238 122 246 48 c 1
 250 48 l 1
 286 119 330 201 366 269 c 2
 576 659 l 1
 621 659 l 1
 263 0 l 1
 213 0 l 1xb0
199 -227 m 0
 175 -227 159 -212 159 -188 c 0
 159 -159 184 -134 210 -134 c 0x70
 235 -134 250 -150 250 -173 c 0
 250 -203 226 -227 199 -227 c 0
EndSplineSet
EndChar

StartChar: Wgrave
Encoding: 7808 7808 234
Width: 600
Flags: MW
HStem: 0 33<108 112 108 131> 0 38<368 405 399 405 399 427> 422 47<319 324 319 319> 703 20G<424 424>
VStem: 71 562
LayerCount: 2
Fore
SplineSet
71 0 m 1x78
 103 659 l 1
 145 659 l 1
 117 157 l 2
 114 89 109 38 108 33 c 1
 112 33 l 1xb8
 114 38 163 154 165 159 c 2
 308 469 l 1
 352 469 l 1
 381 221 l 2
 387 170 397 78 399 38 c 1
 405 38 l 1
 406 43 437 158 438 164 c 2
 592 659 l 1
 633 659 l 1
 427 0 l 1
 368 0 l 1
 335 302 l 2
 330 341 326 394 324 422 c 1
 319 422 l 1
 309 393 288 341 270 302 c 2
 131 0 l 1
 71 0 l 1x78
401 702 m 1
 284 826 l 1
 317 854 l 1
 424 723 l 1
 401 702 l 1
EndSplineSet
EndChar

StartChar: Wacute
Encoding: 7810 7810 235
Width: 600
Flags: MW
HStem: 0 33<108 112 108 131> 0 38<368 405 399 405 399 427> 422 47<319 324 319 319>
VStem: 71 562
LayerCount: 2
Fore
SplineSet
71 0 m 1x70
 103 659 l 1
 145 659 l 1
 117 157 l 2
 114 89 109 38 108 33 c 1
 112 33 l 1xb0
 114 38 163 154 165 159 c 2
 308 469 l 1
 352 469 l 1
 381 221 l 2
 387 170 397 78 399 38 c 1
 405 38 l 1
 406 43 437 158 438 164 c 2
 592 659 l 1
 633 659 l 1
 427 0 l 1
 368 0 l 1
 335 302 l 2
 330 341 326 394 324 422 c 1
 319 422 l 1
 309 393 288 341 270 302 c 2
 131 0 l 1
 71 0 l 1x70
367 712 m 1
 350 736 l 1
 497 848 l 1
 520 813 l 1
 367 712 l 1
EndSplineSet
EndChar

StartChar: Wcircumflex
Encoding: 372 372 236
Width: 600
Flags: MW
HStem: 0 33<108 112 108 131> 0 38<368 405 399 405 399 427> 422 47<319 324 319 319> 706 20G<244 244 517 517> 808 34<396 400 396 396>
VStem: 71 562
LayerCount: 2
Fore
SplineSet
71 0 m 1x7c
 103 659 l 1
 145 659 l 1
 117 157 l 2
 114 89 109 38 108 33 c 1
 112 33 l 1xbc
 114 38 163 154 165 159 c 2
 308 469 l 1
 352 469 l 1
 381 221 l 2
 387 170 397 78 399 38 c 1
 405 38 l 1
 406 43 437 158 438 164 c 2
 592 659 l 1
 633 659 l 1
 427 0 l 1
 368 0 l 1
 335 302 l 2
 330 341 326 394 324 422 c 1
 319 422 l 1
 309 393 288 341 270 302 c 2
 131 0 l 1
 71 0 l 1x7c
264 707 m 1
 244 726 l 1
 379 842 l 1
 423 842 l 1
 517 726 l 1
 495 709 l 1
 400 808 l 1
 396 808 l 1
 264 707 l 1
EndSplineSet
EndChar

StartChar: Wdieresis
Encoding: 7812 7812 237
Width: 600
Flags: MW
HStem: 0 33<108 112 108 131> 0 38<368 405 399 405 399 427> 422 47<319 324 319 319>
VStem: 270 67<753 765> 442 66<753 765>
LayerCount: 2
Fore
SplineSet
71 0 m 1x78
 103 659 l 1
 145 659 l 1
 117 157 l 2
 114 89 109 38 108 33 c 1
 112 33 l 1xb8
 114 38 163 154 165 159 c 2
 308 469 l 1
 352 469 l 1
 381 221 l 2
 387 170 397 78 399 38 c 1
 405 38 l 1
 406 43 437 158 438 164 c 2
 592 659 l 1
 633 659 l 1
 427 0 l 1
 368 0 l 1
 335 302 l 2
 330 341 326 394 324 422 c 1
 319 422 l 1
 309 393 288 341 270 302 c 2
 131 0 l 1
 71 0 l 1x78
300 723 m 0
 282 723 270 734 270 753 c 0
 270 777 288 795 307 795 c 0
 325 795 337 784 337 764 c 0
 337 742 319 723 300 723 c 0
471 723 m 0
 453 723 442 734 442 753 c 0
 442 777 459 795 479 795 c 0
 496 795 508 784 508 764 c 0
 508 742 491 723 471 723 c 0
EndSplineSet
EndChar

StartChar: Ygrave
Encoding: 7922 7922 238
Width: 600
Flags: MW
HStem: 0 21G<217 217 217 260> 703 20G<411 411>
VStem: 121 493<659 659>
LayerCount: 2
Fore
SplineSet
217 0 m 1
 266 241 l 1
 121 659 l 1
 165 659 l 1
 240 440 l 2
 259 384 280 318 291 275 c 1
 295 275 l 1
 320 314 368 384 408 440 c 2
 569 659 l 1
 614 659 l 1
 307 236 l 1
 260 0 l 1
 217 0 l 1
388 702 m 1
 271 826 l 1
 304 854 l 1
 411 723 l 1
 388 702 l 1
EndSplineSet
EndChar

StartChar: Yacute
Encoding: 221 221 239
Width: 600
Flags: MW
HStem: 0 21G<217 217 217 260>
VStem: 121 493<659 659>
LayerCount: 2
Fore
SplineSet
217 0 m 1
 266 241 l 1
 121 659 l 1
 165 659 l 1
 240 440 l 2
 259 384 280 318 291 275 c 1
 295 275 l 1
 320 314 368 384 408 440 c 2
 569 659 l 1
 614 659 l 1
 307 236 l 1
 260 0 l 1
 217 0 l 1
354 712 m 1
 337 736 l 1
 484 848 l 1
 507 813 l 1
 354 712 l 1
EndSplineSet
EndChar

StartChar: Ycircumflex
Encoding: 374 374 240
Width: 600
Flags: MW
HStem: 0 21G<217 217 217 260> 706 20G<231 231 504 504> 808 34<383 387 383 383>
VStem: 121 493<659 659>
LayerCount: 2
Fore
SplineSet
217 0 m 1
 266 241 l 1
 121 659 l 1
 165 659 l 1
 240 440 l 2
 259 384 280 318 291 275 c 1
 295 275 l 1
 320 314 368 384 408 440 c 2
 569 659 l 1
 614 659 l 1
 307 236 l 1
 260 0 l 1
 217 0 l 1
251 707 m 1
 231 726 l 1
 366 842 l 1
 410 842 l 1
 504 726 l 1
 482 709 l 1
 387 808 l 1
 383 808 l 1
 251 707 l 1
EndSplineSet
EndChar

StartChar: Ydieresis
Encoding: 376 376 241
Width: 600
Flags: MW
HStem: 0 21G<217 217 217 260>
VStem: 257 67<753 765> 429 66<753 765>
LayerCount: 2
Fore
SplineSet
217 0 m 1
 266 241 l 1
 121 659 l 1
 165 659 l 1
 240 440 l 2
 259 384 280 318 291 275 c 1
 295 275 l 1
 320 314 368 384 408 440 c 2
 569 659 l 1
 614 659 l 1
 307 236 l 1
 260 0 l 1
 217 0 l 1
287 723 m 0
 269 723 257 734 257 753 c 0
 257 777 275 795 294 795 c 0
 312 795 324 784 324 764 c 0
 324 742 306 723 287 723 c 0
458 723 m 0
 440 723 429 734 429 753 c 0
 429 777 446 795 466 795 c 0
 483 795 495 784 495 764 c 0
 495 742 478 723 458 723 c 0
EndSplineSet
EndChar

StartChar: uni1E8E
Encoding: 7822 7822 242
Width: 600
Flags: MW
HStem: 0 21G<217 217 217 260>
VStem: 339 75<753.5 769>
LayerCount: 2
Fore
SplineSet
217 0 m 1
 266 241 l 1
 121 659 l 1
 165 659 l 1
 240 440 l 2
 259 384 280 318 291 275 c 1
 295 275 l 1
 320 314 368 384 408 440 c 2
 569 659 l 1
 614 659 l 1
 307 236 l 1
 260 0 l 1
 217 0 l 1
372 723 m 0
 354 723 339 736 339 756 c 0
 339 782 359 801 381 801 c 0
 399 801 414 787 414 766 c 0
 414 741 394 723 372 723 c 0
EndSplineSet
EndChar

StartChar: uni1EF4
Encoding: 7924 7924 243
Width: 600
Flags: MW
HStem: -227 21G<187 212.5> -227 93<197 212.5> 0 21G<217 217 217 260>
VStem: 159 91<-188 -173.5>
LayerCount: 2
Fore
SplineSet
217 0 m 1xb0
 266 241 l 1
 121 659 l 1
 165 659 l 1
 240 440 l 2
 259 384 280 318 291 275 c 1
 295 275 l 1
 320 314 368 384 408 440 c 2
 569 659 l 1
 614 659 l 1
 307 236 l 1
 260 0 l 1
 217 0 l 1xb0
199 -227 m 0
 175 -227 159 -212 159 -188 c 0
 159 -159 184 -134 210 -134 c 0x70
 235 -134 250 -150 250 -173 c 0
 250 -203 226 -227 199 -227 c 0
EndSplineSet
EndChar

StartChar: uni1EF6
Encoding: 7926 7926 244
Width: 600
Flags: MW
HStem: 0 21G<217 217 217 260> 831 32<317 326>
VStem: 393 41
LayerCount: 2
Fore
SplineSet
217 0 m 1
 266 241 l 1
 121 659 l 1
 165 659 l 1
 240 440 l 2
 259 384 280 318 291 275 c 1
 295 275 l 1
 320 314 368 384 408 440 c 2
 569 659 l 1
 614 659 l 1
 307 236 l 1
 260 0 l 1
 217 0 l 1
323 702 m 1
 320 729 l 1
 358 740 389 755 393 783 c 0
 398 814 370 829 317 831 c 1
 326 863 l 1
 392 861 442 839 434 789 c 0
 424 737 373 715 323 702 c 1
EndSplineSet
EndChar

StartChar: uni1EF8
Encoding: 7928 7928 245
Width: 600
Flags: MW
HStem: 0 21G<217 217 217 260> 704 20G<210 210> 718 36<424 464.5 424 470> 799 35<295 335.5>
VStem: 121 493<659 659>
LayerCount: 2
Fore
SplineSet
217 0 m 1xd8
 266 241 l 1
 121 659 l 1
 165 659 l 1
 240 440 l 2
 259 384 280 318 291 275 c 1
 295 275 l 1
 320 314 368 384 408 440 c 2
 569 659 l 1
 614 659 l 1
 307 236 l 1
 260 0 l 1
 217 0 l 1xd8
443 718 m 0xb8
 375 718 361 799 310 799 c 0
 280 799 255 769 241 721 c 1
 210 724 l 1xd8
 222 789 263 834 317 834 c 0
 385 834 398 754 450 754 c 0
 479 754 503 784 519 832 c 1
 549 829 l 1
 538 764 497 718 443 718 c 0xb8
EndSplineSet
EndChar

StartChar: Zacute
Encoding: 377 377 246
Width: 600
Flags: MW
HStem: 0 37<88 481> 623 36<143 513 135 579>
VStem: 22 557
LayerCount: 2
Fore
SplineSet
481 0 m 1
 22 0 l 1
 28 25 l 1
 513 623 l 1
 135 623 l 1
 143 659 l 1
 579 659 l 1
 573 633 l 1
 88 37 l 1
 489 37 l 1
 481 0 l 1
354 712 m 1
 337 736 l 1
 484 848 l 1
 507 813 l 1
 354 712 l 1
EndSplineSet
EndChar

StartChar: Zcaron
Encoding: 381 381 247
Width: 600
Flags: MW
HStem: 0 37<88 481> 623 36<143 513 135 579> 709 34<348 375 371 375 371 392>
VStem: 22 557
LayerCount: 2
Fore
SplineSet
481 0 m 1
 22 0 l 1
 28 25 l 1
 513 623 l 1
 135 623 l 1
 143 659 l 1
 579 659 l 1
 573 633 l 1
 88 37 l 1
 489 37 l 1
 481 0 l 1
348 709 m 1
 254 825 l 1
 276 842 l 1
 371 743 l 1
 375 743 l 1
 507 844 l 1
 527 824 l 1
 392 709 l 1
 348 709 l 1
EndSplineSet
EndChar

StartChar: Zdotaccent
Encoding: 379 379 248
Width: 600
Flags: MW
HStem: 0 37<88 481> 623 36<143 513 135 579>
VStem: 339 75<753.5 769>
LayerCount: 2
Fore
SplineSet
481 0 m 1
 22 0 l 1
 28 25 l 1
 513 623 l 1
 135 623 l 1
 143 659 l 1
 579 659 l 1
 573 633 l 1
 88 37 l 1
 489 37 l 1
 481 0 l 1
372 723 m 0
 354 723 339 736 339 756 c 0
 339 782 359 801 381 801 c 0
 399 801 414 787 414 766 c 0
 414 741 394 723 372 723 c 0
EndSplineSet
EndChar

StartChar: uni1E90
Encoding: 7824 7824 249
Width: 600
Flags: MW
HStem: 0 37<88 481> 623 36<143 513 135 579> 623 103<231 231 135 231> 706 20G<231 231 504 504> 808 34<383 387 383 383>
VStem: 22 557
LayerCount: 2
Fore
SplineSet
481 0 m 1xdc
 22 0 l 1
 28 25 l 1
 513 623 l 1
 135 623 l 1
 143 659 l 1
 579 659 l 1
 573 633 l 1
 88 37 l 1
 489 37 l 1
 481 0 l 1xdc
251 707 m 1
 231 726 l 1
 366 842 l 1
 410 842 l 1
 504 726 l 1
 482 709 l 1xac
 387 808 l 1
 383 808 l 1
 251 707 l 1
EndSplineSet
EndChar

StartChar: uni1E92
Encoding: 7826 7826 250
Width: 600
Flags: MW
HStem: -227 21G<222 247.5> -227 93<232 247.5> 0 37<88 481> 623 36<143 513 135 579>
VStem: 194 91<-188 -173.5>
LayerCount: 2
Fore
SplineSet
481 0 m 1xb8
 22 0 l 1
 28 25 l 1
 513 623 l 1
 135 623 l 1
 143 659 l 1
 579 659 l 1
 573 633 l 1
 88 37 l 1
 489 37 l 1
 481 0 l 1xb8
234 -227 m 0
 210 -227 194 -212 194 -188 c 0
 194 -159 219 -134 245 -134 c 0x78
 270 -134 285 -150 285 -173 c 0
 285 -203 261 -227 234 -227 c 0
EndSplineSet
EndChar

StartChar: uni1E94
Encoding: 7828 7828 251
Width: 600
Flags: MW
HStem: -183 34<120 363 125 358> 0 37<88 481> 623 36<143 513 135 579>
VStem: 22 557
LayerCount: 2
Fore
SplineSet
481 0 m 1
 22 0 l 1
 28 25 l 1
 513 623 l 1
 135 623 l 1
 143 659 l 1
 579 659 l 1
 573 633 l 1
 88 37 l 1
 489 37 l 1
 481 0 l 1
120 -183 m 1
 125 -149 l 1
 363 -149 l 1
 358 -183 l 1
 120 -183 l 1
EndSplineSet
EndChar

StartChar: Eth
Encoding: 208 208 252
Width: 600
GlyphClass: 2
Flags: MW
HStem: 0 36<81 194> 333 34<20 105 148 304> 623 36<199 283 199 199>
VStem: 512 44<296 468>
AnchorPoint: "Anchor-3" 221 -20 basechar 0
AnchorPoint: "Anchor-0" 361 679 basechar 0
LayerCount: 2
Fore
SplineSet
32 0 m 1
 99 333 l 1
 20 333 l 1
 28 364 l 1
 105 367 l 1
 164 659 l 1
 285 659 l 2
 466 659 556 560 556 403 c 0
 556 175 431 0 194 0 c 2
 32 0 l 1
81 36 m 1
 195 36 l 2
 399 36 512 192 512 400 c 0
 512 536 437 623 283 623 c 2
 199 623 l 1
 148 367 l 1
 312 367 l 1
 304 333 l 1
 141 333 l 1
 81 36 l 1
EndSplineSet
EndChar

StartChar: Thorn
Encoding: 222 222 253
Width: 600
Flags: MW
HStem: 0 21G<59 59 59 102> 165 36<143 263 263 266 135 263> 502 36<211 332 203 352>
VStem: 503 43<321.5 424>
LayerCount: 2
Fore
SplineSet
59 0 m 1
 191 659 l 1
 234 659 l 1
 211 538 l 1
 352 538 l 2
 471 538 546 492 546 385 c 0
 546 236 436 165 266 165 c 2
 135 165 l 1
 102 0 l 1
 59 0 l 1
143 201 m 1
 263 201 l 2
 421 201 503 262 503 381 c 0
 503 467 444 502 332 502 c 2
 203 502 l 1
 143 201 l 1
EndSplineSet
EndChar

StartChar: uni018F
Encoding: 399 399 254
Width: 600
GlyphClass: 2
Flags: MW
HStem: -12 36<182 302.5 180.5 329> 297 35<109 506 109 109> 635 36<336.5 420.5>
VStem: 62 42 520 43<409 488.5>
AnchorPoint: "Anchor-6" 251 0 basechar 0
AnchorPoint: "Anchor-3" 245 -20 basechar 0
AnchorPoint: "Anchor-2" 251 0 basechar 0
AnchorPoint: "Anchor-0" 374 679 basechar 0
LayerCount: 2
Fore
SplineSet
236 -12 m 0
 128 -12 62 57 62 216 c 0
 62 253 66 291 73 332 c 1
 513 332 l 1
 518 362 520 393 520 425 c 0
 520 552 472 635 369 635 c 0
 304 635 238 604 192 564 c 1
 171 593 l 1
 219 635 296 671 375 671 c 0
 501 671 563 581 563 429 c 0
 563 176 422 -12 236 -12 c 0
238 24 m 0
 367 24 470 137 506 297 c 1
 109 297 l 1
 89 137 123 24 238 24 c 0
EndSplineSet
EndChar

StartChar: Eng
Encoding: 330 330 255
Width: 600
GlyphClass: 2
Flags: MW
HStem: -12 21G<310 389> -12 37<310.5 372 310.5 389> 0 21G<28 71 28 28> 634 37<349 410>
VStem: 509 43<343.5 517>
AnchorPoint: "Anchor-3" 237 -20 basechar 0
AnchorPoint: "Anchor-0" 380 679 basechar 0
LayerCount: 2
Fore
SplineSet
322 -12 m 0x58
 298 -12 267 -4 248 6 c 1x98
 268 40 l 1
 284 31 299 25 322 25 c 0x58
 422 25 509 240 509 447 c 0
 509 587 452 634 368 634 c 0
 320 634 241 599 178 534 c 1
 71 0 l 1
 28 0 l 1x38
 160 659 l 1
 202 659 l 1
 187 581 l 1
 238 631 321 671 377 671 c 0
 481 671 552 608 552 453 c 0
 552 213 456 -12 322 -12 c 0x58
EndSplineSet
Substitution2: "'ss05' Style Set 5 lookup 2 subtable" uni014A.a
EndChar

StartChar: IJ
Encoding: 306 306 256
Width: 600
GlyphClass: 5
Flags: MW
HStem: -153 38<280.5 312.5 280.5 325.5> 0 21G<61 61 61 104> 639 20G<193 236 236 236 505 548 548 548>
VStem: 61 487
LayerCount: 2
Fore
SplineSet
61 0 m 1
 193 659 l 1
 236 659 l 1
 104 0 l 1
 61 0 l 1
292 -153 m 0
 264 -153 246 -145 230 -136 c 1
 245 -102 l 1
 258 -110 268 -115 293 -115 c 0
 332 -115 357 -77 370 -16 c 2
 505 659 l 1
 548 659 l 1
 415 -10 l 2
 398 -98 359 -153 292 -153 c 0
EndSplineSet
EndChar

StartChar: uni004C00B7004C
Encoding: 1114115 -1 257
Width: 600
GlyphClass: 3
Flags: MW
HStem: 0 37<56 240 363 546>
VStem: 194 117<346.5 361.5>
LayerCount: 2
Fore
SplineSet
6 0 m 1
 138 659 l 1
 180 659 l 1
 56 37 l 1
 248 37 l 1
 240 0 l 1
 6 0 l 1
242 290 m 0
 212 290 194 311 194 342 c 0
 194 381 227 418 264 418 c 0
 293 418 311 397 311 366 c 0
 311 327 279 290 242 290 c 0
313 0 m 1
 444 659 l 1
 487 659 l 1
 363 37 l 1
 554 37 l 1
 546 0 l 1
 313 0 l 1
EndSplineSet
Ligature2: "'ccmp' Glyph Composition/Decomposition lookup 12 subtable" L periodcentered L
EndChar

StartChar: uni01320301
Encoding: 1114116 -1 258
Width: 600
GlyphClass: 3
Flags: MW
HStem: -153 38<280.5 312.5 280.5 325.5> 0 21G<61 61 61 104>
VStem: 61 618
LayerCount: 2
Fore
SplineSet
61 0 m 1
 193 659 l 1
 236 659 l 1
 104 0 l 1
 61 0 l 1
292 -153 m 0
 264 -153 246 -145 230 -136 c 1
 245 -102 l 1
 258 -110 268 -115 293 -115 c 0
 332 -115 357 -77 370 -16 c 2
 505 659 l 1
 548 659 l 1
 415 -10 l 2
 398 -98 359 -153 292 -153 c 0
214 712 m 1
 197 736 l 1
 344 848 l 1
 367 813 l 1
 214 712 l 1
526 712 m 1
 509 736 l 1
 656 848 l 1
 679 813 l 1
 526 712 l 1
EndSplineSet
Ligature2: "'ccmp' Glyph Composition/Decomposition lookup 12 subtable" IJ uni0301
EndChar

StartChar: agrave
Encoding: 224 224 259
Width: 600
Flags: MW
HStem: -12 36<198 264.5> 0 21G<411 446 411 411> 456 36<266.5 359> 460 20G<508 542 542 542> 711 20G<290 290>
VStem: 62 42<126.5 249 126.5 256>
LayerCount: 2
Fore
SplineSet
231 -12 m 0xac
 130 -12 62 51 62 171 c 0
 62 341 178 492 330 492 c 0
 401 492 456 461 485 414 c 1
 489 414 l 1xac
 508 480 l 1
 542 480 l 1
 446 0 l 1
 411 0 l 1x5c
 422 77 l 1
 418 77 l 1
 365 25 298 -12 231 -12 c 0xac
239 24 m 0
 300 24 369 62 430 129 c 1
 480 369 l 1
 439 431 387 456 331 456 c 0
 202 456 104 319 104 179 c 0
 104 74 157 24 239 24 c 0
409 570 m 1
 290 731 l 1
 327 758 l 1
 436 590 l 1
 409 570 l 1
EndSplineSet
Substitution2: "'ss02' Style Set 2 lookup 0 subtable" agrave.a
EndChar

StartChar: aacute
Encoding: 225 225 260
Width: 600
GlyphClass: 2
Flags: MW
HStem: -12 36<198 264.5> 0 21G<411 446 411 411> 456 36<266.5 359> 460 20G<508 542 542 542>
VStem: 62 42<126.5 249 126.5 256>
AnchorPoint: "Anchor-6" 407 0 basechar 0
LayerCount: 2
Fore
SplineSet
231 -12 m 0xa8
 130 -12 62 51 62 171 c 0
 62 341 178 492 330 492 c 0
 401 492 456 461 485 414 c 1
 489 414 l 1xa8
 508 480 l 1
 542 480 l 1
 446 0 l 1
 411 0 l 1x58
 422 77 l 1
 418 77 l 1
 365 25 298 -12 231 -12 c 0xa8
239 24 m 0
 300 24 369 62 430 129 c 1
 480 369 l 1
 439 431 387 456 331 456 c 0
 202 456 104 319 104 179 c 0
 104 74 157 24 239 24 c 0
344 580 m 1
 323 605 l 1
 481 750 l 1
 508 716 l 1
 344 580 l 1
EndSplineSet
Substitution2: "'ss02' Style Set 2 lookup 0 subtable" aacute.a
EndChar

StartChar: acircumflex
Encoding: 226 226 261
Width: 600
Flags: MW
HStem: -12 36<198 264.5> 0 21G<411 446 411 411> 456 36<266.5 359> 460 20G<508 542 542 542> 700 37<396 400 396 396>
VStem: 62 42<126.5 249 126.5 256>
LayerCount: 2
Fore
SplineSet
231 -12 m 0xa4
 130 -12 62 51 62 171 c 0
 62 341 178 492 330 492 c 0
 401 492 456 461 485 414 c 1
 489 414 l 1xa4
 508 480 l 1
 542 480 l 1
 446 0 l 1
 411 0 l 1x54
 422 77 l 1
 418 77 l 1
 365 25 298 -12 231 -12 c 0xa4
239 24 m 0
 300 24 369 62 430 129 c 1
 480 369 l 1
 439 431 387 456 331 456 c 0
 202 456 104 319 104 179 c 0
 104 74 157 24 239 24 c 0
258 572 m 1
 237 593 l 1
 379 737 l 1
 422 737 l 1
 513 591 l 1
 488 572 l 1
 400 700 l 1
 396 700 l 1xac
 258 572 l 1
EndSplineSet
Substitution2: "'ss02' Style Set 2 lookup 0 subtable" acircumflex.a
EndChar

StartChar: atilde
Encoding: 227 227 262
Width: 600
Flags: MW
HStem: -12 36<198 264.5> 0 21G<411 446 411 411> 456 36<266.5 359> 460 20G<508 542 542 542> 579 34<432 478 432 487> 677 33<307 353.5>
VStem: 62 42<126.5 249 126.5 256>
LayerCount: 2
Fore
SplineSet
231 -12 m 0xae
 130 -12 62 51 62 171 c 0
 62 341 178 492 330 492 c 0
 401 492 456 461 485 414 c 1
 489 414 l 1xae
 508 480 l 1
 542 480 l 1
 446 0 l 1
 411 0 l 1x5e
 422 77 l 1
 418 77 l 1
 365 25 298 -12 231 -12 c 0xae
239 24 m 0
 300 24 369 62 430 129 c 1
 480 369 l 1
 439 431 387 456 331 456 c 0
 202 456 104 319 104 179 c 0
 104 74 157 24 239 24 c 0
456 579 m 0
 386 579 382 677 325 677 c 0
 289 677 268 635 256 582 c 1
 222 584 l 1
 237 648 267 710 329 710 c 0
 400 710 404 613 460 613 c 0
 496 613 518 656 529 707 c 1
 563 705 l 1
 548 643 518 579 456 579 c 0
EndSplineSet
Substitution2: "'ss02' Style Set 2 lookup 0 subtable" atilde.a
EndChar

StartChar: adieresis
Encoding: 228 228 263
Width: 600
GlyphClass: 2
Flags: MW
HStem: -12 36<198 264.5> 0 21G<411 446 411 411> 456 36<266.5 359> 460 20G<508 542 542 542>
VStem: 62 42<126.5 249 126.5 256> 260 78<634 648> 432 78<634 648>
AnchorPoint: "Anchor-6" 407 0 basechar 0
LayerCount: 2
Fore
SplineSet
231 -12 m 0xa8
 130 -12 62 51 62 171 c 0
 62 341 178 492 330 492 c 0
 401 492 456 461 485 414 c 1
 489 414 l 1xa8
 508 480 l 1
 542 480 l 1
 446 0 l 1
 411 0 l 1x58
 422 77 l 1
 418 77 l 1
 365 25 298 -12 231 -12 c 0xa8
239 24 m 0
 300 24 369 62 430 129 c 1
 480 369 l 1
 439 431 387 456 331 456 c 0
 202 456 104 319 104 179 c 0
 104 74 157 24 239 24 c 0
294 598 m 0xae
 274 598 260 612 260 634 c 0
 260 662 280 683 305 683 c 0
 325 683 338 670 338 648 c 0
 338 620 319 598 294 598 c 0xae
465 598 m 0
 446 598 432 612 432 634 c 0
 432 662 452 683 476 683 c 0
 496 683 510 670 510 648 c 0
 510 620 490 598 465 598 c 0
EndSplineSet
Substitution2: "'ss02' Style Set 2 lookup 0 subtable" adieresis.a
EndChar

StartChar: amacron
Encoding: 257 257 264
Width: 600
Flags: MW
HStem: -12 36<198 264.5> 0 21G<411 446 411 411> 456 36<266.5 359> 460 20G<508 542 542 542> 606 34<260 503 265 498>
VStem: 62 42<126.5 249 126.5 256>
LayerCount: 2
Fore
SplineSet
231 -12 m 0xac
 130 -12 62 51 62 171 c 0
 62 341 178 492 330 492 c 0
 401 492 456 461 485 414 c 1
 489 414 l 1xac
 508 480 l 1
 542 480 l 1
 446 0 l 1
 411 0 l 1x5c
 422 77 l 1
 418 77 l 1
 365 25 298 -12 231 -12 c 0xac
239 24 m 0
 300 24 369 62 430 129 c 1
 480 369 l 1
 439 431 387 456 331 456 c 0
 202 456 104 319 104 179 c 0
 104 74 157 24 239 24 c 0
260 606 m 1
 265 640 l 1
 503 640 l 1
 498 606 l 1
 260 606 l 1
EndSplineSet
Substitution2: "'ss02' Style Set 2 lookup 0 subtable" amacron.a
EndChar

StartChar: abreve
Encoding: 259 259 265
Width: 600
Flags: MW
HStem: -12 36<198 264.5> 0 21G<411 446 411 411> 456 36<266.5 359> 460 20G<508 542 542 542> 570 34<344 416 344 425> 703 20G<286 286 517 517>
VStem: 62 42<126.5 249 126.5 256> 252 34<718 723>
LayerCount: 2
Fore
SplineSet
231 -12 m 0xaf
 130 -12 62 51 62 171 c 0
 62 341 178 492 330 492 c 0
 401 492 456 461 485 414 c 1
 489 414 l 1xaf
 508 480 l 1
 542 480 l 1
 446 0 l 1
 411 0 l 1x5f
 422 77 l 1
 418 77 l 1
 365 25 298 -12 231 -12 c 0xaf
239 24 m 0
 300 24 369 62 430 129 c 1
 480 369 l 1
 439 431 387 456 331 456 c 0
 202 456 104 319 104 179 c 0
 104 74 157 24 239 24 c 0
373 570 m 0
 273 570 249 652 252 718 c 1
 286 723 l 1
 282 667 308 604 380 604 c 0
 452 604 498 667 517 723 c 1
 550 718 l 1
 532 652 477 570 373 570 c 0
EndSplineSet
Substitution2: "'ss02' Style Set 2 lookup 0 subtable" abreve.a
EndChar

StartChar: aring
Encoding: 229 229 266
Width: 600
GlyphClass: 2
Flags: MW
HStem: -12 36<198 264.5> 0 21G<411 446 411 411> 456 36<266.5 359> 460 20G<508 542 542 542> 550 26<362.5 398.5 362.5 407.5> 711 26<374.5 410.5>
VStem: 62 42<126.5 249 126.5 256> 293 31<613.5 652 613.5 657> 449 31<635 673>
AnchorPoint: "Anchor-6" 407 0 basechar 0
LayerCount: 2
Fore
SplineSet
231 -12 m 0xaf80
 130 -12 62 51 62 171 c 0
 62 341 178 492 330 492 c 0
 401 492 456 461 485 414 c 1
 489 414 l 1xaf80
 508 480 l 1
 542 480 l 1
 446 0 l 1
 411 0 l 1x5f80
 422 77 l 1
 418 77 l 1
 365 25 298 -12 231 -12 c 0xaf80
239 24 m 0
 300 24 369 62 430 129 c 1
 480 369 l 1
 439 431 387 456 331 456 c 0
 202 456 104 319 104 179 c 0
 104 74 157 24 239 24 c 0
377 550 m 0
 330 550 293 577 293 628 c 0
 293 686 335 737 396 737 c 0
 443 737 480 710 480 659 c 0
 480 601 438 550 377 550 c 0
380 576 m 0
 417 576 449 613 449 657 c 0
 449 689 428 711 393 711 c 0
 356 711 324 674 324 630 c 0
 324 597 345 576 380 576 c 0
EndSplineSet
Substitution2: "'ss02' Style Set 2 lookup 0 subtable" aring.a
EndChar

StartChar: aringacute
Encoding: 507 507 267
Width: 600
Flags: MW
HStem: -12 36<198 264.5> 0 21G<411 446 411 411> 456 36<266.5 359> 460 20G<508 542 542 542> 550 26<362.5 398.5 362.5 407.5> 711 25<374.5 413>
VStem: 62 42<126.5 249 126.5 256> 293 31<613.5 648.5> 449 31<635 673>
LayerCount: 2
Fore
SplineSet
231 -12 m 0xab80
 130 -12 62 51 62 171 c 0
 62 341 178 492 330 492 c 0
 401 492 456 461 485 414 c 1
 489 414 l 1xab80
 508 480 l 1
 542 480 l 1
 446 0 l 1
 411 0 l 1x5b80
 422 77 l 1
 418 77 l 1
 365 25 298 -12 231 -12 c 0xab80
239 24 m 0
 300 24 369 62 430 129 c 1
 480 369 l 1
 439 431 387 456 331 456 c 0
 202 456 104 319 104 179 c 0
 104 74 157 24 239 24 c 0
377 550 m 0
 330 550 293 577 293 628 c 0
 293 669 314 707 348 725 c 1
 481 820 l 1
 503 790 l 1
 413 736 l 1xaf80
 452 730 480 704 480 659 c 0
 480 601 438 550 377 550 c 0
380 576 m 0
 417 576 449 613 449 657 c 0
 449 689 428 711 393 711 c 0xaf80
 356 711 324 674 324 630 c 0
 324 597 345 576 380 576 c 0
EndSplineSet
Substitution2: "'ss02' Style Set 2 lookup 0 subtable" aringacute.a
EndChar

StartChar: uni01CE
Encoding: 462 462 268
Width: 600
Flags: MW
HStem: -12 36<198 264.5> 0 21G<411 446 411 411> 456 36<266.5 359> 460 20G<508 542 542 542> 573 37<351 377 373 377 373 394> 699 20G<260 260>
VStem: 62 42<126.5 249 126.5 256>
LayerCount: 2
Fore
SplineSet
231 -12 m 0xae
 130 -12 62 51 62 171 c 0
 62 341 178 492 330 492 c 0
 401 492 456 461 485 414 c 1
 489 414 l 1xae
 508 480 l 1
 542 480 l 1
 446 0 l 1
 411 0 l 1x5e
 422 77 l 1
 418 77 l 1
 365 25 298 -12 231 -12 c 0xae
239 24 m 0
 300 24 369 62 430 129 c 1
 480 369 l 1
 439 431 387 456 331 456 c 0
 202 456 104 319 104 179 c 0
 104 74 157 24 239 24 c 0
351 573 m 1
 260 719 l 1
 285 737 l 1
 373 610 l 1
 377 610 l 1
 514 737 l 1
 536 717 l 1
 394 573 l 1
 351 573 l 1
EndSplineSet
Substitution2: "'ss02' Style Set 2 lookup 0 subtable" uni01CE.a
EndChar

StartChar: aogonek
Encoding: 261 261 269
Width: 600
GlyphClass: 2
Flags: MW
HStem: -224 32<365.5 388.5> -12 36<198 264.5> 456 36<266.5 359> 460 20G<508 542 542 542>
VStem: 62 42<126.5 249 126.5 256> 284 37<-157.5 -117>
AnchorPoint: "Anchor-0" 357 502 basechar 0
LayerCount: 2
Fore
SplineSet
372 -224 m 0xec
 327 -224 284 -203 284 -151 c 0
 284 -83 343 -36 411 0 c 1
 422 77 l 1
 418 77 l 1
 365 25 298 -12 231 -12 c 0
 130 -12 62 51 62 171 c 0
 62 341 178 492 330 492 c 0
 401 492 456 461 485 414 c 1
 489 414 l 1xec
 508 480 l 1
 542 480 l 1xdc
 444 -7 l 1
 367 -47 321 -91 321 -139 c 0
 321 -176 348 -192 383 -192 c 0
 404 -192 421 -184 437 -173 c 1
 451 -195 l 1
 431 -212 405 -224 372 -224 c 0xec
239 24 m 0
 300 24 369 62 430 129 c 1
 480 369 l 1
 439 431 387 456 331 456 c 0
 202 456 104 319 104 179 c 0
 104 74 157 24 239 24 c 0
EndSplineSet
Ligature2: "'ccmp' Glyph Composition/Decomposition lookup 12 subtable" a uni0328
Substitution2: "'ss02' Style Set 2 lookup 0 subtable" aogonek.a
EndChar

StartChar: uni1EA1
Encoding: 7841 7841 270
Width: 600
Flags: MW
HStem: -227 21G<201 226.5> -227 93<211 226.5> -12 36<198 264.5> 0 21G<411 446 411 411> 456 36<266.5 359> 460 20G<508 542 542 542>
VStem: 62 42<126.5 249 126.5 256> 173 91<-188 -173.5>
LayerCount: 2
Fore
SplineSet
231 -12 m 0xaa
 130 -12 62 51 62 171 c 0
 62 341 178 492 330 492 c 0
 401 492 456 461 485 414 c 1
 489 414 l 1xaa
 508 480 l 1
 542 480 l 1
 446 0 l 1
 411 0 l 1x96
 422 77 l 1
 418 77 l 1
 365 25 298 -12 231 -12 c 0xaa
239 24 m 0
 300 24 369 62 430 129 c 1
 480 369 l 1
 439 431 387 456 331 456 c 0
 202 456 104 319 104 179 c 0
 104 74 157 24 239 24 c 0
213 -227 m 0xab
 189 -227 173 -212 173 -188 c 0
 173 -159 198 -134 224 -134 c 0x6b
 249 -134 264 -150 264 -173 c 0
 264 -203 240 -227 213 -227 c 0xab
EndSplineSet
Substitution2: "'ss02' Style Set 2 lookup 0 subtable" uni1EA1.a
EndChar

StartChar: uni1EA3
Encoding: 7843 7843 271
Width: 600
Flags: MW
HStem: -12 36<198 264.5> 0 21G<411 446 411 411> 456 36<266.5 359> 460 20G<508 542 542 542> 707 34<344 352>
VStem: 62 42<126.5 249 126.5 256>
LayerCount: 2
Fore
SplineSet
231 -12 m 0xac
 130 -12 62 51 62 171 c 0
 62 341 178 492 330 492 c 0
 401 492 456 461 485 414 c 1
 489 414 l 1xac
 508 480 l 1
 542 480 l 1
 446 0 l 1
 411 0 l 1x5c
 422 77 l 1
 418 77 l 1
 365 25 298 -12 231 -12 c 0xac
239 24 m 0
 300 24 369 62 430 129 c 1
 480 369 l 1
 439 431 387 456 331 456 c 0
 202 456 104 319 104 179 c 0
 104 74 157 24 239 24 c 0
350 575 m 1
 346 603 l 1
 384 614 415 629 419 658 c 0
 425 689 396 705 344 707 c 1
 352 741 l 1
 419 739 469 716 460 663 c 0
 450 611 399 588 350 575 c 1
EndSplineSet
Substitution2: "'ss02' Style Set 2 lookup 0 subtable" uni1EA3.a
EndChar

StartChar: uni1EA5
Encoding: 7845 7845 272
Width: 600
Flags: MW
HStem: -12 36<198 264.5> 0 21G<411 446 411 411> 456 36<266.5 359> 460 20G<508 542 542 542> 652 35<390 394 390 390>
VStem: 62 42<126.5 249 126.5 256>
LayerCount: 2
Fore
SplineSet
231 -12 m 0xa4
 130 -12 62 51 62 171 c 0
 62 341 178 492 330 492 c 0
 401 492 456 461 485 414 c 1
 489 414 l 1xa4
 508 480 l 1
 542 480 l 1
 446 0 l 1
 411 0 l 1x54
 422 77 l 1
 418 77 l 1
 365 25 298 -12 231 -12 c 0xa4
239 24 m 0
 300 24 369 62 430 129 c 1
 480 369 l 1
 439 431 387 456 331 456 c 0
 202 456 104 319 104 179 c 0
 104 74 157 24 239 24 c 0
269 573 m 1xac
 253 596 l 1
 374 687 l 1
 413 687 l 1
 501 593 l 1
 480 573 l 1
 394 652 l 1
 390 652 l 1
 269 573 l 1xac
493 640 m 1
 472 662 l 1
 585 768 l 1
 612 741 l 1
 493 640 l 1
EndSplineSet
Substitution2: "'ss02' Style Set 2 lookup 0 subtable" uni1EA5.a
EndChar

StartChar: uni1EA7
Encoding: 7847 7847 273
Width: 600
Flags: MW
HStem: -12 36<198 264.5> 0 21G<411 446 411 411> 456 36<266.5 359> 460 20G<508 542 542 542> 652 35<390 394 390 390>
VStem: 62 42<126.5 249 126.5 256>
LayerCount: 2
Fore
SplineSet
231 -12 m 0xa4
 130 -12 62 51 62 171 c 0
 62 341 178 492 330 492 c 0
 401 492 456 461 485 414 c 1
 489 414 l 1xa4
 508 480 l 1
 542 480 l 1
 446 0 l 1
 411 0 l 1x54
 422 77 l 1
 418 77 l 1
 365 25 298 -12 231 -12 c 0xa4
239 24 m 0
 300 24 369 62 430 129 c 1
 480 369 l 1
 439 431 387 456 331 456 c 0
 202 456 104 319 104 179 c 0
 104 74 157 24 239 24 c 0
269 573 m 1xac
 253 596 l 1
 374 687 l 1
 413 687 l 1
 501 593 l 1
 480 573 l 1
 394 652 l 1
 390 652 l 1
 269 573 l 1xac
274 640 m 1
 178 750 l 1
 211 773 l 1
 299 659 l 1
 274 640 l 1
EndSplineSet
Substitution2: "'ss02' Style Set 2 lookup 0 subtable" uni1EA7.a
EndChar

StartChar: uni1EA9
Encoding: 7849 7849 274
Width: 600
Flags: MW
HStem: -12 36<198 264.5> 0 21G<411 446 411 411> 456 36<266.5 359> 460 20G<508 542 542 542> 652 35<390 394 390 390> 747 29<476 482>
VStem: 62 42<126.5 249 126.5 256> 539 39
LayerCount: 2
Fore
SplineSet
231 -12 m 0xae
 130 -12 62 51 62 171 c 0
 62 341 178 492 330 492 c 0
 401 492 456 461 485 414 c 1
 489 414 l 1xae
 508 480 l 1
 542 480 l 1
 446 0 l 1
 411 0 l 1x5e
 422 77 l 1
 418 77 l 1
 365 25 298 -12 231 -12 c 0xae
239 24 m 0
 300 24 369 62 430 129 c 1
 480 369 l 1
 439 431 387 456 331 456 c 0
 202 456 104 319 104 179 c 0
 104 74 157 24 239 24 c 0
269 573 m 1
 253 596 l 1
 374 687 l 1
 413 687 l 1
 501 593 l 1
 480 573 l 1
 394 652 l 1
 390 652 l 1
 269 573 l 1
489 630 m 1xaf
 482 655 l 1
 513 665 535 678 539 701 c 0
 545 731 524 745 476 747 c 1
 482 776 l 1
 540 774 586 754 578 706 c 0
 569 660 527 641 489 630 c 1xaf
EndSplineSet
Substitution2: "'ss02' Style Set 2 lookup 0 subtable" uni1EA9.a
EndChar

StartChar: uni1EAB
Encoding: 7851 7851 275
Width: 600
Flags: MW
HStem: -12 36<198 264.5> 0 21G<411 446 411 411> 456 36<266.5 359> 460 20G<508 542 542 542> 651 35<391 395 391 391> 707 33<448 481.5 448 488.5> 749 33<325 357.5>
VStem: 62 42<126.5 249 126.5 256>
LayerCount: 2
Fore
SplineSet
231 -12 m 0xa5
 130 -12 62 51 62 171 c 0
 62 341 178 492 330 492 c 0
 401 492 456 461 485 414 c 1
 489 414 l 1xa5
 508 480 l 1
 542 480 l 1
 446 0 l 1
 411 0 l 1x55
 422 77 l 1
 418 77 l 1
 365 25 298 -12 231 -12 c 0xa5
239 24 m 0
 300 24 369 62 430 129 c 1
 480 369 l 1
 439 431 387 456 331 456 c 0
 202 456 104 319 104 179 c 0
 104 74 157 24 239 24 c 0
270 573 m 1xad
 254 596 l 1
 374 686 l 1
 413 686 l 1
 502 593 l 1
 481 573 l 1
 395 651 l 1
 391 651 l 1
 270 573 l 1xad
466 707 m 0xa5
 407 707 379 749 336 749 c 0
 314 749 305 734 295 704 c 1
 266 707 l 1
 275 743 297 782 342 782 c 0xa7
 403 782 426 740 470 740 c 0
 493 740 502 755 512 785 c 1
 541 782 l 1
 531 746 511 707 466 707 c 0xa5
EndSplineSet
Substitution2: "'ss02' Style Set 2 lookup 0 subtable" uni1EAB.a
EndChar

StartChar: uni1EAD
Encoding: 7853 7853 276
Width: 600
Flags: MW
HStem: -227 21G<201 226.5> -227 93<211 226.5> -12 36<198 264.5> 0 21G<411 446 411 411> 456 36<266.5 359> 460 20G<508 542 542 542> 700 37<396 400 396 396>
VStem: 62 42<126.5 249 126.5 256> 173 91<-188 -173.5>
LayerCount: 2
Fore
SplineSet
231 -12 m 0xab
 130 -12 62 51 62 171 c 0
 62 341 178 492 330 492 c 0
 401 492 456 461 485 414 c 1
 489 414 l 1xab
 508 480 l 1
 542 480 l 1
 446 0 l 1
 411 0 l 1x97
 422 77 l 1
 418 77 l 1
 365 25 298 -12 231 -12 c 0xab
239 24 m 0
 300 24 369 62 430 129 c 1
 480 369 l 1
 439 431 387 456 331 456 c 0
 202 456 104 319 104 179 c 0
 104 74 157 24 239 24 c 0
258 572 m 1
 237 593 l 1
 379 737 l 1
 422 737 l 1
 513 591 l 1
 488 572 l 1
 400 700 l 1
 396 700 l 1
 258 572 l 1
213 -227 m 0xab80
 189 -227 173 -212 173 -188 c 0
 173 -159 198 -134 224 -134 c 0x6b80
 249 -134 264 -150 264 -173 c 0
 264 -203 240 -227 213 -227 c 0xab80
EndSplineSet
Substitution2: "'ss02' Style Set 2 lookup 0 subtable" uni1EAD.a
EndChar

StartChar: uni1EAF
Encoding: 7855 7855 277
Width: 600
Flags: MW
HStem: -12 36<198 264.5> 0 21G<411 446 411 411> 456 36<266.5 359> 460 20G<508 542 542 542> 570 33<343.5 416 343.5 424.5> 703 20
VStem: 62 42<126.5 249 126.5 256> 252 32<718 723>
LayerCount: 2
Fore
SplineSet
231 -12 m 0xaf
 130 -12 62 51 62 171 c 0
 62 341 178 492 330 492 c 0
 401 492 456 461 485 414 c 1
 489 414 l 1xaf
 508 480 l 1
 542 480 l 1
 446 0 l 1
 411 0 l 1x5f
 422 77 l 1
 418 77 l 1
 365 25 298 -12 231 -12 c 0xaf
239 24 m 0
 300 24 369 62 430 129 c 1
 480 369 l 1
 439 431 387 456 331 456 c 0
 202 456 104 319 104 179 c 0
 104 74 157 24 239 24 c 0
373 570 m 0
 273 570 249 652 252 718 c 1
 284 723 l 1
 281 666 307 603 380 603 c 0
 452 603 499 666 518 723 c 1
 550 718 l 1
 532 652 476 570 373 570 c 0
392 703 m 1
 372 724 l 1
 477 820 l 1
 504 792 l 1
 392 703 l 1
EndSplineSet
Substitution2: "'ss02' Style Set 2 lookup 0 subtable" uni1EAF.a
EndChar

StartChar: uni1EB1
Encoding: 7857 7857 278
Width: 600
Flags: MW
HStem: -12 36<198 264.5> 0 21G<411 446 411 411> 456 36<266.5 359> 460 20G<508 542 542 542> 570 33<343.5 416 343.5 424.5> 703 20G<284 284 518 518>
VStem: 62 42<126.5 249 126.5 256> 252 32<718 723>
LayerCount: 2
Fore
SplineSet
231 -12 m 0xaf
 130 -12 62 51 62 171 c 0
 62 341 178 492 330 492 c 0
 401 492 456 461 485 414 c 1
 489 414 l 1xaf
 508 480 l 1
 542 480 l 1
 446 0 l 1
 411 0 l 1x5f
 422 77 l 1
 418 77 l 1
 365 25 298 -12 231 -12 c 0xaf
239 24 m 0
 300 24 369 62 430 129 c 1
 480 369 l 1
 439 431 387 456 331 456 c 0
 202 456 104 319 104 179 c 0
 104 74 157 24 239 24 c 0
373 570 m 0
 273 570 249 652 252 718 c 1
 284 723 l 1
 281 666 307 603 380 603 c 0
 452 603 499 666 518 723 c 1
 550 718 l 1
 532 652 476 570 373 570 c 0
405 696 m 1
 327 802 l 1
 358 825 l 1
 429 712 l 1
 405 696 l 1
EndSplineSet
Substitution2: "'ss02' Style Set 2 lookup 0 subtable" uni1EB1.a
EndChar

StartChar: uni1EB3
Encoding: 7859 7859 279
Width: 600
Flags: MW
HStem: -12 36<198 264.5> 0 21G<411 446 411 411> 456 36<266.5 359> 460 20G<508 542 542 542> 570 33<343.5 416 343.5 424.5> 703 20G<285 285 518 518> 792 33<363 372>
VStem: 62 42<126.5 249 126.5 256> 252 33<718 723>
LayerCount: 2
Fore
SplineSet
231 -12 m 0xaf80
 130 -12 62 51 62 171 c 0
 62 341 178 492 330 492 c 0
 401 492 456 461 485 414 c 1
 489 414 l 1xaf80
 508 480 l 1
 542 480 l 1
 446 0 l 1
 411 0 l 1x5f80
 422 77 l 1
 418 77 l 1
 365 25 298 -12 231 -12 c 0xaf80
239 24 m 0
 300 24 369 62 430 129 c 1
 480 369 l 1
 439 431 387 456 331 456 c 0
 202 456 104 319 104 179 c 0
 104 74 157 24 239 24 c 0
373 570 m 0
 273 570 249 652 252 718 c 1
 285 723 l 1
 281 666 307 603 380 603 c 0
 452 603 499 666 518 723 c 1
 550 718 l 1
 532 652 476 570 373 570 c 0
372 673 m 1
 368 701 l 1
 403 708 431 723 436 746 c 0
 442 777 417 790 363 792 c 1
 372 825 l 1
 437 823 484 801 474 752 c 0
 466 704 414 681 372 673 c 1
EndSplineSet
Substitution2: "'ss02' Style Set 2 lookup 0 subtable" uni1EB3.a
EndChar

StartChar: uni1EB5
Encoding: 7861 7861 280
Width: 600
Flags: MW
HStem: -12 36<198 264.5> 0 21G<411 446 411 411> 456 36<266.5 359> 460 20G<508 542 542 542> 570 32<345.5 412.5 345.5 420.5> 707 33<450 483 450 490> 749 33<328 360.5>
VStem: 62 42<126.5 249 126.5 256> 255 31<674 679>
LayerCount: 2
Fore
SplineSet
231 -12 m 0xad80
 130 -12 62 51 62 171 c 0
 62 341 178 492 330 492 c 0
 401 492 456 461 485 414 c 1
 489 414 l 1xad80
 508 480 l 1
 542 480 l 1
 446 0 l 1
 411 0 l 1x5d80
 422 77 l 1
 418 77 l 1
 365 25 298 -12 231 -12 c 0xad80
239 24 m 0
 300 24 369 62 430 129 c 1
 480 369 l 1
 439 431 387 456 331 456 c 0
 202 456 104 319 104 179 c 0
 104 74 157 24 239 24 c 0
373 570 m 0
 278 570 251 628 255 674 c 1
 286 679 l 1
 285 642 312 602 379 602 c 0
 446 602 488 642 500 679 c 1
 531 674 l 1
 516 628 468 570 373 570 c 0
467 707 m 0
 408 707 382 749 339 749 c 0
 317 749 307 734 297 704 c 1
 268 707 l 1
 277 743 299 782 344 782 c 0xaf80
 404 782 428 740 472 740 c 0
 494 740 505 755 515 785 c 1
 545 782 l 1
 535 746 513 707 467 707 c 0
EndSplineSet
Substitution2: "'ss02' Style Set 2 lookup 0 subtable" uni1EB5.a
EndChar

StartChar: uni1EB7
Encoding: 7863 7863 281
Width: 600
Flags: MW
HStem: -227 21G<201 226.5> -227 93<211 226.5> -12 36<198 264.5> 0 21G<411 446 411 411> 456 36<266.5 359> 460 20G<508 542 542 542> 570 34<344 416 344 425> 703 20G<286 286 517 517>
VStem: 62 42<126.5 249 126.5 256> 173 91<-188 -173.5> 252 34<718 723>
LayerCount: 2
Fore
SplineSet
231 -12 m 0xaba0
 130 -12 62 51 62 171 c 0
 62 341 178 492 330 492 c 0
 401 492 456 461 485 414 c 1
 489 414 l 1xaba0
 508 480 l 1
 542 480 l 1
 446 0 l 1
 411 0 l 1x97a0
 422 77 l 1
 418 77 l 1
 365 25 298 -12 231 -12 c 0xaba0
239 24 m 0
 300 24 369 62 430 129 c 1
 480 369 l 1
 439 431 387 456 331 456 c 0
 202 456 104 319 104 179 c 0
 104 74 157 24 239 24 c 0
373 570 m 0
 273 570 249 652 252 718 c 1
 286 723 l 1
 282 667 308 604 380 604 c 0
 452 604 498 667 517 723 c 1
 550 718 l 1
 532 652 477 570 373 570 c 0
213 -227 m 0xabc0
 189 -227 173 -212 173 -188 c 0
 173 -159 198 -134 224 -134 c 0x6bc0
 249 -134 264 -150 264 -173 c 0
 264 -203 240 -227 213 -227 c 0xabc0
EndSplineSet
Substitution2: "'ss02' Style Set 2 lookup 0 subtable" uni1EB7.a
EndChar

StartChar: ae
Encoding: 230 230 282
Width: 600
GlyphClass: 2
Flags: MW
HStem: -12 36<67 107 366.5 424.5> 237 35<309 555 309 583 302 555> 457 35<458.5 511>
VStem: -24 41<74 147.5 74 153> 258 37<143 163.5> 287 35 563 38<333 379>
AnchorPoint: "Anchor-3" 259 -20 basechar 0
AnchorPoint: "Anchor-2" 398 0 basechar 0
AnchorPoint: "Anchor-0" 340 502 basechar 0
LayerCount: 2
Fore
SplineSet
80 -12 m 0xf6
 18 -12 -24 24 -24 93 c 0
 -24 213 86 270 278 300 c 1
 302 392 277 456 200 456 c 0
 151 456 102 430 71 408 c 1
 53 437 l 1
 87 461 144 492 208 492 c 0
 275 492 317 449 322 383 c 1xf6
 364 455 427 492 490 492 c 0
 568 492 601 426 601 345 c 0
 601 292 590 258 583 237 c 1
 302 237 l 1
 297 213 295 188 295 163 c 0xfa
 295 82 329 24 404 24 c 0
 448 24 485 39 521 64 c 1
 537 35 l 1
 505 10 452 -12 397 -12 c 0
 323 -12 284 34 267 86 c 1
 203 17 134 -12 80 -12 c 0xf6
88 24 m 0
 137 24 210 60 260 121 c 1
 259 130 258 139 258 147 c 0xfa
 258 180 257 209 270 267 c 1
 110 238 17 196 17 99 c 0
 17 49 46 24 88 24 c 0
483 457 m 0
 404 457 338 376 309 272 c 1
 555 272 l 1
 560 297 563 322 563 344 c 0
 563 414 539 457 483 457 c 0
EndSplineSet
EndChar

StartChar: aeacute
Encoding: 509 509 283
Width: 600
Flags: MW
HStem: -12 36<67 107 366.5 424.5> 237 35<309 555 309 583 302 555> 457 35<458.5 511>
VStem: -24 41<74 147.5 74 153> 258 37<143 163.5> 287 35 563 38<333 379>
LayerCount: 2
Fore
SplineSet
80 -12 m 0xf6
 18 -12 -24 24 -24 93 c 0
 -24 213 86 270 278 300 c 1
 302 392 277 456 200 456 c 0
 151 456 102 430 71 408 c 1
 53 437 l 1
 87 461 144 492 208 492 c 0
 275 492 317 449 322 383 c 1xf6
 364 455 427 492 490 492 c 0
 568 492 601 426 601 345 c 0
 601 292 590 258 583 237 c 1
 302 237 l 1
 297 213 295 188 295 163 c 0xfa
 295 82 329 24 404 24 c 0
 448 24 485 39 521 64 c 1
 537 35 l 1
 505 10 452 -12 397 -12 c 0
 323 -12 284 34 267 86 c 1
 203 17 134 -12 80 -12 c 0xf6
88 24 m 0
 137 24 210 60 260 121 c 1
 259 130 258 139 258 147 c 0xfa
 258 180 257 209 270 267 c 1
 110 238 17 196 17 99 c 0
 17 49 46 24 88 24 c 0
483 457 m 0
 404 457 338 376 309 272 c 1
 555 272 l 1
 560 297 563 322 563 344 c 0
 563 414 539 457 483 457 c 0
327 580 m 1
 306 605 l 1
 464 750 l 1
 491 716 l 1
 327 580 l 1
EndSplineSet
EndChar

StartChar: uni01E3
Encoding: 483 483 284
Width: 600
Flags: MW
HStem: -12 36<67 107 366.5 424.5> 237 35<309 555 309 583 302 555> 457 35<458.5 511> 606 34<243 486 248 481>
VStem: -24 41<74 147.5 74 153> 258 37<143 163.5> 287 35 563 38<333 379>
LayerCount: 2
Fore
SplineSet
80 -12 m 0xfb
 18 -12 -24 24 -24 93 c 0
 -24 213 86 270 278 300 c 1
 302 392 277 456 200 456 c 0
 151 456 102 430 71 408 c 1
 53 437 l 1
 87 461 144 492 208 492 c 0
 275 492 317 449 322 383 c 1xfb
 364 455 427 492 490 492 c 0
 568 492 601 426 601 345 c 0
 601 292 590 258 583 237 c 1
 302 237 l 1
 297 213 295 188 295 163 c 0xfd
 295 82 329 24 404 24 c 0
 448 24 485 39 521 64 c 1
 537 35 l 1
 505 10 452 -12 397 -12 c 0
 323 -12 284 34 267 86 c 1
 203 17 134 -12 80 -12 c 0xfb
88 24 m 0
 137 24 210 60 260 121 c 1
 259 130 258 139 258 147 c 0xfd
 258 180 257 209 270 267 c 1
 110 238 17 196 17 99 c 0
 17 49 46 24 88 24 c 0
483 457 m 0
 404 457 338 376 309 272 c 1
 555 272 l 1
 560 297 563 322 563 344 c 0
 563 414 539 457 483 457 c 0
243 606 m 1
 248 640 l 1
 486 640 l 1
 481 606 l 1
 243 606 l 1
EndSplineSet
EndChar

StartChar: uni0180
Encoding: 384 384 285
Width: 600
Flags: MW
HStem: -12 36<231.5 323.5 231.5 337> 0 21G<48 83 48 48> 436 36<322.5 391.5> 581 35<87 171 171 204 211 435> 581 138<87 232 87 232 204 204 204 232 191 435>
VStem: 486 42<208 327.5>
LayerCount: 2
Fore
SplineSet
260 -12 m 0xb4
 191 -12 136 21 103 66 c 1
 99 66 l 1xb4
 83 0 l 1
 48 0 l 1
 164 581 l 1
 87 581 l 1
 92 611 l 1
 171 616 l 1x74
 191 719 l 1
 232 719 l 1xac
 211 616 l 1
 443 616 l 1
 435 581 l 1
 204 581 l 1
 186 490 l 1
 163 383 l 1
 167 383 l 1
 218 430 287 472 358 472 c 0
 460 472 528 404 528 281 c 0
 528 118 414 -12 260 -12 c 0xb4
259 24 m 0
 388 24 486 142 486 274 c 0
 486 381 433 436 350 436 c 0
 291 436 215 394 156 335 c 1
 110 107 l 1
 153 46 204 24 259 24 c 0
EndSplineSet
EndChar

StartChar: uni1E07
Encoding: 7687 7687 286
Width: 600
Flags: MW
HStem: -183 34<109 352 114 347> -12 36<231.5 325.5 231.5 339> 0 21G<48 82 48 48> 456 36<323.5 391.5> 699 20G<191 232 232 232>
VStem: 486 42<222 347>
LayerCount: 2
Fore
SplineSet
260 -12 m 0xdc
 191 -12 136 21 103 66 c 1
 99 66 l 1xdc
 82 0 l 1
 48 0 l 1xbc
 191 719 l 1
 232 719 l 1
 190 510 l 1
 165 403 l 1
 169 403 l 1
 220 448 289 492 358 492 c 0
 461 492 528 424 528 300 c 0
 528 127 418 -12 260 -12 c 0xdc
259 24 m 0
 392 24 486 151 486 293 c 0
 486 401 433 456 350 456 c 0
 293 456 219 414 160 355 c 1
 110 107 l 1
 153 45 204 24 259 24 c 0
109 -183 m 1
 114 -149 l 1
 352 -149 l 1
 347 -183 l 1
 109 -183 l 1
EndSplineSet
EndChar

StartChar: ccedilla
Encoding: 231 231 287
Width: 600
Flags: MW
HStem: -219 28<141 143> -12 36<279 287 279 280.5> -9 21G<246 246> 456 36<291.5 386>
VStem: 71 41<146 276 146 287.5> 263 39
LayerCount: 2
Fore
SplineSet
287 -12 m 0xdc
 284 -12 282 -12 279 -12 c 2
 245 -67 l 1xdc
 292 -79 303 -96 302 -125 c 0
 301 -184 237 -217 143 -219 c 1
 141 -191 l 1
 222 -188 263 -165 263 -132 c 0
 263 -104 242 -91 195 -87 c 1
 246 -9 l 1xbc
 142 5 71 76 71 201 c 0
 71 374 211 492 359 492 c 0
 441 492 502 453 536 407 c 1
 507 382 l 1
 470 431 423 456 349 456 c 0
 234 456 112 345 112 207 c 0
 112 85 185 24 292 24 c 0
 352 24 415 54 463 98 c 1
 485 69 l 1
 433 21 357 -12 287 -12 c 0xdc
EndSplineSet
EndChar

StartChar: cacute
Encoding: 263 263 288
Width: 600
Flags: MW
HStem: -12 36<238.5 322 238.5 322> 456 36<291.5 386>
VStem: 71 41<146 276 146 287.5>
LayerCount: 2
Fore
SplineSet
287 -12 m 0
 161 -12 71 60 71 201 c 0
 71 374 211 492 359 492 c 0
 441 492 502 453 536 407 c 1
 507 382 l 1
 470 431 423 456 349 456 c 0
 234 456 112 345 112 207 c 0
 112 85 185 24 292 24 c 0
 352 24 415 54 463 98 c 1
 485 69 l 1
 433 21 357 -12 287 -12 c 0
343 580 m 1
 322 605 l 1
 480 750 l 1
 507 716 l 1
 343 580 l 1
EndSplineSet
EndChar

StartChar: ccircumflex
Encoding: 265 265 289
Width: 600
Flags: MW
HStem: -12 36<238.5 322 238.5 322> 456 36<291.5 386> 700 37<395 399 395 395>
VStem: 71 41<146 276 146 287.5>
LayerCount: 2
Fore
SplineSet
287 -12 m 0
 161 -12 71 60 71 201 c 0
 71 374 211 492 359 492 c 0
 441 492 502 453 536 407 c 1
 507 382 l 1
 470 431 423 456 349 456 c 0
 234 456 112 345 112 207 c 0
 112 85 185 24 292 24 c 0
 352 24 415 54 463 98 c 1
 485 69 l 1
 433 21 357 -12 287 -12 c 0
257 572 m 1
 236 593 l 1
 378 737 l 1
 421 737 l 1
 512 591 l 1
 487 572 l 1
 399 700 l 1
 395 700 l 1
 257 572 l 1
EndSplineSet
EndChar

StartChar: ccaron
Encoding: 269 269 290
Width: 600
Flags: MW
HStem: -12 36<238.5 322 238.5 322> 456 36<291.5 386> 573 37<350 376 372 376 372 393> 699 20G<259 259>
VStem: 71 41<146 276 146 287.5>
LayerCount: 2
Fore
SplineSet
287 -12 m 0
 161 -12 71 60 71 201 c 0
 71 374 211 492 359 492 c 0
 441 492 502 453 536 407 c 1
 507 382 l 1
 470 431 423 456 349 456 c 0
 234 456 112 345 112 207 c 0
 112 85 185 24 292 24 c 0
 352 24 415 54 463 98 c 1
 485 69 l 1
 433 21 357 -12 287 -12 c 0
350 573 m 1
 259 719 l 1
 284 737 l 1
 372 610 l 1
 376 610 l 1
 513 737 l 1
 535 717 l 1
 393 573 l 1
 350 573 l 1
EndSplineSet
EndChar

StartChar: cdotaccent
Encoding: 267 267 291
Width: 600
Flags: MW
HStem: -12 36<238.5 322 238.5 322> 456 36<291.5 386> 597 93<376 391.5>
VStem: 71 41<146 276 146 287.5> 338 91<636 650.5>
LayerCount: 2
Fore
SplineSet
287 -12 m 0
 161 -12 71 60 71 201 c 0
 71 374 211 492 359 492 c 0
 441 492 502 453 536 407 c 1
 507 382 l 1
 470 431 423 456 349 456 c 0
 234 456 112 345 112 207 c 0
 112 85 185 24 292 24 c 0
 352 24 415 54 463 98 c 1
 485 69 l 1
 433 21 357 -12 287 -12 c 0
378 597 m 0
 354 597 338 612 338 636 c 0
 338 665 363 690 389 690 c 0
 414 690 429 674 429 651 c 0
 429 621 405 597 378 597 c 0
EndSplineSet
EndChar

StartChar: dcaron
Encoding: 271 271 292
Width: 600
GlyphClass: 3
Flags: MW
HStem: -12 36<193.5 257> 0 21G<402 437 402 402> 456 36<262 353.5> 699 20G<541 582 582 582>
VStem: 59 42<126.5 249 126.5 256>
LayerCount: 2
Fore
SplineSet
224 -12 m 0xb8
 125 -12 59 51 59 171 c 0
 59 341 173 492 325 492 c 0
 394 492 447 462 476 416 c 1
 480 416 l 1
 499 511 l 1
 541 719 l 1
 582 719 l 1
 437 0 l 1
 402 0 l 1x78
 413 75 l 1
 409 75 l 1
 356 24 290 -12 224 -12 c 0xb8
234 24 m 0
 294 24 361 61 421 127 c 1
 471 370 l 1
 431 431 381 456 326 456 c 0
 198 456 101 319 101 179 c 0
 101 74 153 24 234 24 c 0
633 548 m 1
 682 813 l 1
 722 813 l 1
 707 742 l 1
 661 548 l 1
 633 548 l 1
EndSplineSet
Ligature2: "'ccmp' Glyph Composition/Decomposition lookup 12 subtable" d uni030C
EndChar

StartChar: uni1E0D
Encoding: 7693 7693 293
Width: 600
Flags: MW
HStem: -227 21G<201 226.5> -227 93<211 226.5> -12 36<198 264.5> 0 21G<411 446 411 411> 456 36<266.5 359> 699 20G<550 591 591 591>
VStem: 62 42<126.5 249 126.5 256> 173 91<-188 -173.5>
LayerCount: 2
Fore
SplineSet
231 -12 m 0xae
 130 -12 62 51 62 171 c 0
 62 341 178 492 330 492 c 0
 401 492 455 461 485 415 c 1
 489 415 l 1
 508 510 l 1
 550 719 l 1
 591 719 l 1
 446 0 l 1
 411 0 l 1x9e
 422 77 l 1
 418 77 l 1
 365 25 298 -12 231 -12 c 0xae
239 24 m 0
 300 24 369 62 430 129 c 1
 480 369 l 1
 439 431 387 456 331 456 c 0
 202 456 104 319 104 179 c 0
 104 74 157 24 239 24 c 0
213 -227 m 0xaf
 189 -227 173 -212 173 -188 c 0
 173 -159 198 -134 224 -134 c 0x6f
 249 -134 264 -150 264 -173 c 0
 264 -203 240 -227 213 -227 c 0xaf
EndSplineSet
EndChar

StartChar: uni1E0F
Encoding: 7695 7695 294
Width: 600
Flags: MW
HStem: -183 34<99 342 104 337> -12 36<198 264.5> 0 21G<411 446 411 411> 456 36<266.5 359> 699 20G<550 591 591 591>
VStem: 62 42<126.5 249>
LayerCount: 2
Fore
SplineSet
231 -12 m 0xdc
 130 -12 62 51 62 171 c 0
 62 341 178 492 330 492 c 0
 401 492 455 461 485 415 c 1
 489 415 l 1
 508 510 l 1
 550 719 l 1
 591 719 l 1
 446 0 l 1
 411 0 l 1xbc
 422 77 l 1
 418 77 l 1
 365 25 298 -12 231 -12 c 0xdc
239 24 m 0
 300 24 369 62 430 129 c 1
 480 369 l 1
 439 431 387 456 331 456 c 0
 202 456 104 319 104 179 c 0
 104 74 157 24 239 24 c 0
99 -183 m 1
 104 -149 l 1
 342 -149 l 1
 337 -183 l 1
 99 -183 l 1
EndSplineSet
EndChar

StartChar: uni1E11
Encoding: 7697 7697 295
Width: 600
Flags: MW
HStem: -219 28<116 118> -12 36<219 219> 0 21G<411 446 411 411> 456 36<266.5 359> 699 20G<550 591 591 591>
VStem: 62 42<126.5 249 126.5 256> 238 39
LayerCount: 2
Fore
SplineSet
239 24 m 0xde
 300 24 369 62 430 129 c 1
 480 369 l 1
 439 431 387 456 331 456 c 0
 202 456 104 319 104 179 c 0
 104 74 157 24 239 24 c 0xde
118 -219 m 1
 116 -191 l 1
 197 -188 238 -165 238 -132 c 0
 238 -104 217 -91 170 -87 c 1
 219 -12 l 1xde
 125 -7 62 56 62 171 c 0
 62 341 178 492 330 492 c 0
 401 492 455 461 485 415 c 1
 489 415 l 1
 508 510 l 1
 550 719 l 1
 591 719 l 1
 446 0 l 1
 411 0 l 1
 422 77 l 1
 418 77 l 1
 371 31 314 -3 255 -10 c 1
 220 -67 l 1xbe
 267 -79 278 -96 277 -125 c 0
 276 -184 212 -217 118 -219 c 1
EndSplineSet
EndChar

